<svg width="199" height="28" viewBox="0 0 199 28" fill="none" xmlns="http://www.w3.org/2000/svg">
<path d="M16.9641 22.9164C16.6057 23.7885 16.0983 24.5281 15.4419 25.1304C14.7855 25.7327 13.9988 26.2002 13.0841 26.5327C12.1693 26.8653 11.1452 27.0304 10.0116 27.0304H0.943359V1.15598H9.56241C10.5772 1.15598 11.5013 1.30481 12.3346 1.60016C13.1702 1.89551 13.8801 2.32109 14.4666 2.87691C15.0532 3.43272 15.5117 4.10481 15.8399 4.89551C16.1681 5.68621 16.331 6.56295 16.331 7.52574V7.60016C16.331 8.48854 16.2263 9.26528 16.0168 9.93272C15.8073 10.5978 15.535 11.1792 15.1975 11.6723C14.86 12.1653 14.4759 12.5792 14.05 12.9141C13.6241 13.249 13.2004 13.5257 12.7838 13.7467C13.4006 13.942 13.9965 14.2071 14.5737 14.5397C15.1509 14.8723 15.6514 15.2909 16.0797 15.7955C16.5079 16.3002 16.8501 16.8885 17.1085 17.5653C17.3668 18.242 17.4948 19.0234 17.4948 19.9071V19.9816C17.4948 21.063 17.3156 22.042 16.9595 22.9141L16.9641 22.9164ZM14.7809 7.69784C14.7809 6.2583 14.3316 5.09784 13.4355 4.21644C12.5394 3.33505 11.2429 2.89551 9.55078 2.89551H2.49819V13.1327H9.40181C10.1792 13.1327 10.8961 13.0164 11.5525 12.7792C12.2089 12.542 12.7791 12.2025 13.2563 11.7536C13.7334 11.3048 14.1082 10.749 14.3759 10.0792C14.6435 9.40946 14.7785 8.6397 14.7785 7.77226V7.69784H14.7809ZM15.9447 19.9141C15.9447 18.3071 15.4023 17.063 14.3177 16.1862C13.2307 15.3095 11.6526 14.8699 9.58104 14.8699H2.49819V25.2932H10.0885C11.8807 25.2932 13.3052 24.8188 14.3619 23.8653C15.4186 22.9118 15.9447 21.6211 15.9447 19.9885V19.9141Z" fill="white"/>
<path d="M22.3407 27.0281V1.15598H37.221V2.89319H23.8932V13.1304H35.8756V14.8676H23.8932V25.2909H37.3699V27.0281H22.3384H22.3407Z" fill="white"/>
<path d="M58.4092 27.0281L43.6779 4.0397V27.0281H42.1836V1.15598H43.6476L58.081 23.6653V1.15598H59.5753V27.0281H58.4092Z" fill="white"/>
<path d="M72.961 2.89319V27.0281H71.4062V2.89319H64.1162V1.15598H80.251V2.89319H72.961Z" fill="white"/>
<path d="M83.1211 27.028V25.956L97.4358 2.89084H83.6308V1.15363H99.647V2.22572L85.3346 25.2885H99.647V27.0257H83.1234L83.1211 27.028Z" fill="white"/>
<path d="M129.38 22.9164C129.021 23.7885 128.514 24.5281 127.857 25.1304C127.201 25.7327 126.414 26.2002 125.5 26.5327C124.585 26.8653 123.561 27.0304 122.427 27.0304H113.359V1.15598H121.978C122.993 1.15598 123.917 1.30481 124.75 1.60016C125.586 1.89551 126.296 2.32109 126.882 2.87691C127.469 3.43272 127.927 4.10481 128.255 4.89551C128.584 5.68621 128.747 6.56295 128.747 7.52574V7.60016C128.747 8.48854 128.642 9.26528 128.432 9.93272C128.223 10.5978 127.951 11.1792 127.613 11.6723C127.276 12.1653 126.891 12.5792 126.466 12.9141C126.04 13.249 125.616 13.5257 125.199 13.7467C125.816 13.942 126.412 14.2071 126.989 14.5397C127.566 14.8723 128.067 15.2909 128.495 15.7955C128.923 16.3002 129.266 16.8885 129.524 17.5653C129.782 18.242 129.91 19.0234 129.91 19.9071V19.9816C129.91 21.063 129.731 22.042 129.375 22.9141L129.38 22.9164ZM127.196 7.69784C127.196 6.2583 126.747 5.09784 125.851 4.21644C124.955 3.33505 123.658 2.89551 121.966 2.89551H114.914V13.1327H121.817C122.595 13.1327 123.312 13.0164 123.968 12.7792C124.624 12.542 125.195 12.2025 125.672 11.7536C126.149 11.3048 126.524 10.749 126.791 10.0792C127.059 9.40946 127.194 8.6397 127.194 7.77226V7.69784H127.196ZM128.36 19.9141C128.36 18.3071 127.818 17.063 126.733 16.1862C125.646 15.3095 124.068 14.8699 121.997 14.8699H114.914V25.2932H122.504C124.296 25.2932 125.721 24.8188 126.777 23.8653C127.834 22.9118 128.36 21.6211 128.36 19.9885V19.9141Z" fill="white"/>
<path d="M152.237 27.0279L149.576 19.7837H137.235L134.575 27.0279H132.962L142.705 0.969757H144.199L153.94 27.0279H152.239H152.237ZM143.422 3.07673L137.894 18.0465H148.92L143.422 3.07673Z" fill="white"/>
<path d="M174.409 27.0281L159.678 4.0397V27.0281H158.184V1.15598H159.648L174.081 23.6653V1.15598H175.575V27.0281H174.409Z" fill="white"/>
<path d="M196.968 27.0281L188.363 13.9443L183.163 20.449V27.0281H181.608V1.15598H183.163V18.1583L196.491 1.15598H198.611L189.469 12.5769L199 27.0281H196.968Z" fill="white"/>
</svg>
