<svg width="49" height="49" viewBox="0 0 49 49" fill="none" xmlns="http://www.w3.org/2000/svg">
<g clip-path="url(#clip0_554_15182)">
<path d="M47.8506 16.8438H42.1209L40.5284 12.8625C38.8919 8.76928 34.9862 6.125 30.5772 6.125H18.4229C14.0148 6.125 10.1082 8.76928 8.4707 12.8625L6.8782 16.8438H1.14941C0.401971 16.8438 -0.146408 17.5462 0.0354283 18.2707L0.609647 20.5676C0.736932 21.0786 1.19631 21.4375 1.72363 21.4375H3.64439C2.3591 22.5601 1.53127 24.1918 1.53127 26.0312V30.625C1.53127 32.1677 2.1208 33.5602 3.06252 34.6378V39.8125C3.06252 41.5036 4.43394 42.875 6.12502 42.875H9.18752C10.8786 42.875 12.25 41.5036 12.25 39.8125V36.75H36.75V39.8125C36.75 41.5036 38.1214 42.875 39.8125 42.875H42.875C44.5661 42.875 45.9375 41.5036 45.9375 39.8125V34.6378C46.8792 33.5612 47.4688 32.1687 47.4688 30.625V26.0312C47.4688 24.1918 46.6409 22.5601 45.3566 21.4375H47.2774C47.8047 21.4375 48.2641 21.0786 48.3914 20.5676L48.9656 18.2707C49.1464 17.5462 48.5981 16.8438 47.8506 16.8438ZM14.1574 15.1374C14.8551 13.3937 16.5442 12.25 18.4229 12.25H30.5772C32.4558 12.25 34.145 13.3937 34.8427 15.1374L36.75 19.9062H12.25L14.1574 15.1374ZM9.18752 30.6059C7.35002 30.6059 6.12502 29.3847 6.12502 27.5529C6.12502 25.7212 7.35002 24.5 9.18752 24.5C11.025 24.5 13.7813 27.2476 13.7813 29.0794C13.7813 30.9112 11.025 30.6059 9.18752 30.6059ZM39.8125 30.6059C37.975 30.6059 35.2188 30.9112 35.2188 29.0794C35.2188 27.2476 37.975 24.5 39.8125 24.5C41.65 24.5 42.875 25.7212 42.875 27.5529C42.875 29.3847 41.65 30.6059 39.8125 30.6059V30.6059Z" fill="#226184"/>
</g>
<defs>
<clipPath id="clip0_554_15182">
<rect width="49" height="49" fill="white"/>
</clipPath>
</defs>
</svg>
