<svg width="47" height="42" viewBox="0 0 47 42" fill="none" xmlns="http://www.w3.org/2000/svg">
<path d="M45.5536 27.3603C43.9462 25.9086 41.5229 25.9168 39.8502 27.2619L34.8241 31.3052C34.669 31.4282 34.4814 31.4939 34.2774 31.4939H30.8831C31.2584 30.7065 31.4135 29.7961 31.2748 28.8448C30.9484 26.5565 28.8596 24.9326 26.5587 24.9326H14.7929C13.0957 24.9326 11.4476 25.4821 10.0931 26.5073L6.95992 28.8694H0.652747C0.293736 28.8694 0 29.1646 0 29.5255V30.8377C0 31.1986 0.293736 31.4939 0.652747 31.4939H7.83297L11.6597 28.6069C12.5654 27.9262 13.6669 27.5571 14.7929 27.5571H26.7626C27.8478 27.5571 28.7209 28.4347 28.7209 29.5255C28.7209 30.6163 27.8478 31.4939 26.7626 31.4939H19.5824C18.8644 31.4939 18.2769 32.0844 18.2769 32.8061C18.2769 33.5278 18.8644 34.1183 19.5824 34.1183H34.2856C35.077 34.1183 35.844 33.8477 36.4641 33.3556L41.4903 29.3204C42.1185 28.8202 43.1221 28.6971 43.8075 29.3204C44.6316 30.0668 44.5663 31.3298 43.7341 31.9941L35.5095 38.6128C34.8893 39.1131 34.1224 39.3755 33.3309 39.3755H0.652747C0.293736 39.3755 0 39.6708 0 40.0316V41.3439C0 41.7048 0.293736 42 0.652747 42H33.3309C34.718 42 36.0561 41.5243 37.1332 40.655L45.3659 34.0363C46.3614 33.2326 46.957 32.0352 46.9978 30.7557C47.0386 29.4763 46.5082 28.2296 45.5536 27.3603Z" fill="#226184"/>
<g clip-path="url(#clip0_568_15228)">
<path d="M32.9875 8.875L34.6125 8.875C34.7418 8.875 34.8658 8.92686 34.9572 9.01916C35.0486 9.11146 35.1 9.23665 35.1 9.36719L35.1 11.0078C35.1 11.1383 35.0486 11.2635 34.9572 11.3558C34.8658 11.4481 34.7418 11.5 34.6125 11.5L32.9875 11.5C32.8582 11.5 32.7342 11.4481 32.6428 11.3558C32.5514 11.2635 32.5 11.1383 32.5 11.0078L32.5 9.36719C32.5 9.23665 32.5514 9.11146 32.6428 9.01916C32.7342 8.92686 32.8582 8.875 32.9875 8.875ZM32.9875 12.8125L34.6125 12.8125C34.7418 12.8125 34.8658 12.8644 34.9572 12.9567C35.0486 13.049 35.1 13.1742 35.1 13.3047L35.1 14.9453C35.1 15.0758 35.0486 15.201 34.9572 15.2933C34.8658 15.3856 34.7418 15.4375 34.6125 15.4375L32.9875 15.4375C32.8582 15.4375 32.7342 15.3856 32.6428 15.2933C32.5514 15.201 32.5 15.0758 32.5 14.9453L32.5 13.3047C32.5 13.1742 32.5514 13.049 32.6428 12.9567C32.7342 12.8644 32.8582 12.8125 32.9875 12.8125ZM32.9875 4.9375L34.6125 4.9375C34.7418 4.9375 34.8658 4.98935 34.9572 5.08166C35.0486 5.17396 35.1 5.29915 35.1 5.42969L35.1 7.07031C35.1 7.20085 35.0486 7.32604 34.9572 7.41834C34.8658 7.51064 34.7418 7.5625 34.6125 7.5625L32.9875 7.5625C32.8582 7.5625 32.7342 7.51064 32.6428 7.41834C32.5514 7.32604 32.5 7.20085 32.5 7.07031L32.5 5.42969C32.5 5.29915 32.5514 5.17396 32.6428 5.08166C32.7342 4.98935 32.8582 4.9375 32.9875 4.9375ZM26.65 8.22449C26.073 7.74906 25.411 7.3897 24.7 7.16588L24.7 2.3125C24.7 1.9644 24.837 1.63056 25.0808 1.38442C25.3246 1.13828 25.6552 0.999999 26 0.999999L37.7 1C38.0448 1 38.3754 1.13828 38.6192 1.38442C38.863 1.63056 39 1.9644 39 2.3125L39 18.7188C39 18.8928 38.9315 19.0597 38.8096 19.1828C38.6877 19.3059 38.5224 19.375 38.35 19.375L37.7 19.375C37.5276 19.375 37.3623 19.3059 37.2404 19.1828C37.1185 19.0597 37.05 18.8928 37.05 18.7187L37.05 2.96875L26.65 2.96875L26.65 8.22449ZM30.7125 4.9375C30.8418 4.9375 30.9658 4.98935 31.0572 5.08166C31.1486 5.17396 31.2 5.29915 31.2 5.42969L31.2 7.07031C31.2 7.20085 31.1486 7.32604 31.0572 7.41834C30.9658 7.51064 30.8418 7.5625 30.7125 7.5625L29.0875 7.5625C28.9582 7.5625 28.8342 7.51064 28.7428 7.41834C28.6514 7.32604 28.6 7.20085 28.6 7.07031L28.6 5.42969C28.6 5.29915 28.6514 5.17396 28.7428 5.08166C28.8342 4.98935 28.9582 4.9375 29.0875 4.9375L30.7125 4.9375ZM17.55 15.1094C17.7428 15.1094 17.9313 15.1671 18.0917 15.2753C18.252 15.3834 18.377 15.5372 18.4508 15.717C18.5246 15.8969 18.5439 16.0948 18.5063 16.2858C18.4686 16.4767 18.3758 16.6521 18.2394 16.7898C18.1031 16.9275 17.9293 17.0212 17.7402 17.0592C17.5511 17.0972 17.355 17.0777 17.1769 17.0032C16.9987 16.9287 16.8465 16.8025 16.7393 16.6406C16.6322 16.4788 16.575 16.2884 16.575 16.0937C16.575 15.8327 16.6777 15.5823 16.8606 15.3977C17.0434 15.2131 17.2914 15.1094 17.55 15.1094ZM15.1625 12.3449L15.7312 11.0029C16.0815 10.176 16.6647 9.47119 17.4084 8.97619C18.1522 8.48119 19.0236 8.2178 19.9144 8.21875L22.9856 8.21875C23.8762 8.21804 24.7474 8.48154 25.4909 8.97653C26.2344 9.47151 26.8174 10.1762 27.1676 11.0029L27.7363 12.3449C28.3687 12.5723 28.9161 12.9915 29.3034 13.5451C29.6908 14.0987 29.8991 14.7597 29.9 15.4375L29.9 16.75C29.8985 17.2574 29.78 17.7575 29.5539 18.2106C29.3277 18.6637 29.0002 19.0575 28.5972 19.3606C28.5972 19.3656 28.6 19.3701 28.6 19.375L28.6 20.6875C28.6 21.0356 28.463 21.3694 28.2192 21.6156C27.9754 21.8617 27.6448 22 27.3 22L26.65 22C26.3052 22 25.9746 21.8617 25.7308 21.6156C25.487 21.3694 25.35 21.0356 25.35 20.6875L25.35 20.0312L17.55 20.0312L17.55 20.6875C17.55 21.0356 17.413 21.3694 17.1692 21.6156C16.9254 21.8617 16.5948 22 16.25 22L15.6 22C15.2552 22 14.9246 21.8617 14.6808 21.6156C14.437 21.3694 14.3 21.0356 14.3 20.6875L14.3 19.375C14.3 19.3701 14.3028 19.3656 14.3028 19.3606C13.8998 19.0575 13.5723 18.6637 13.3461 18.2106C13.12 17.7575 13.0015 17.2574 13 16.75L13 15.4375C13.0008 14.7599 13.2091 14.099 13.5961 13.5455C13.9832 12.9919 14.5303 12.5726 15.1625 12.3449V12.3449ZM14.95 16.75C14.95 17.0981 15.087 17.4319 15.3308 17.6781C15.5746 17.9242 15.9052 18.0625 16.25 18.0625L26.65 18.0625C26.9948 18.0625 27.3254 17.9242 27.5692 17.6781C27.813 17.4319 27.95 17.0981 27.95 16.75L27.95 15.4375C27.95 15.0894 27.813 14.7556 27.5692 14.5094C27.3254 14.2633 26.9948 14.125 26.65 14.125L26.3713 14.125L25.3752 11.7785C25.1748 11.3063 24.8415 10.9039 24.4168 10.6211C23.992 10.3383 23.4944 10.1875 22.9856 10.1875L19.9144 10.1875C19.4056 10.1875 18.908 10.3383 18.4832 10.6211C18.0585 10.9039 17.7252 11.3063 17.5248 11.7785L16.5287 14.125L16.25 14.125C15.9052 14.125 15.5746 14.2633 15.3308 14.5094C15.087 14.7556 14.95 15.0894 14.95 15.4375L14.95 16.75ZM28.6 11.0078L28.6 9.36719C28.6 9.23665 28.6514 9.11146 28.7428 9.01916C28.8342 8.92685 28.9582 8.875 29.0875 8.875L30.7125 8.875C30.8418 8.875 30.9658 8.92685 31.0572 9.01916C31.1486 9.11146 31.2 9.23665 31.2 9.36719L31.2 11.0078C31.2 11.1383 31.1486 11.2635 31.0572 11.3558C30.9658 11.4481 30.8418 11.5 30.7125 11.5L29.0875 11.5C28.9582 11.5 28.8342 11.4481 28.7428 11.3558C28.6514 11.2635 28.6 11.1383 28.6 11.0078ZM25.35 15.1094C25.5428 15.1094 25.7313 15.1671 25.8917 15.2753C26.052 15.3834 26.177 15.5372 26.2508 15.717C26.3246 15.8969 26.3439 16.0948 26.3063 16.2858C26.2686 16.4767 26.1758 16.6521 26.0394 16.7898C25.9031 16.9275 25.7293 17.0212 25.5402 17.0592C25.3511 17.0972 25.155 17.0777 24.9769 17.0032C24.7987 16.9287 24.6465 16.8025 24.5393 16.6406C24.4322 16.4788 24.375 16.2884 24.375 16.0937C24.375 15.8327 24.4777 15.5823 24.6606 15.3977C24.8434 15.2131 25.0914 15.1094 25.35 15.1094ZM18.7151 12.306C18.8143 12.0674 18.981 11.8637 19.1943 11.7203C19.4076 11.577 19.6581 11.5003 19.9144 11.5L22.9856 11.5C23.24 11.5 23.4889 11.5755 23.7012 11.7169C23.9136 11.8583 24.0802 12.0596 24.1804 12.2957L24.9762 14.125L17.9238 14.125L18.7151 12.306Z" fill="#226184"/>
</g>
<defs>
<clipPath id="clip0_568_15228">
<rect width="26" height="21" fill="white" transform="matrix(-1 -8.74228e-08 -8.74228e-08 1 39 1)"/>
</clipPath>
</defs>
</svg>
