<svg width="49" height="44" viewBox="0 0 49 44" fill="none" xmlns="http://www.w3.org/2000/svg">
<path d="M44.9082 2.75H4.09184C1.82899 2.75 0 4.59766 0 6.875V37.125C0 39.4023 1.82899 41.25 4.09184 41.25H44.9082C47.171 41.25 49 39.4023 49 37.125V6.875C49 4.59766 47.171 2.75 44.9082 2.75ZM4.60226 6.875H44.3977C44.6785 6.875 44.9082 7.10703 44.9082 7.39062V11H4.09184V7.39062C4.09184 7.10703 4.32153 6.875 4.60226 6.875ZM44.3977 37.125H4.60226C4.32153 37.125 4.09184 36.893 4.09184 36.6094V22H44.9082V36.6094C44.9082 36.893 44.6785 37.125 44.3977 37.125ZM16.3333 28.5312V31.9688C16.3333 32.5359 15.874 33 15.3125 33H9.1875C8.62604 33 8.16667 32.5359 8.16667 31.9688V28.5312C8.16667 27.9641 8.62604 27.5 9.1875 27.5H15.3125C15.874 27.5 16.3333 27.9641 16.3333 28.5312ZM32.6667 28.5312V31.9688C32.6667 32.5359 32.2073 33 31.6458 33H20.0764C19.5149 33 19.0556 32.5359 19.0556 31.9688V28.5312C19.0556 27.9641 19.5149 27.5 20.0764 27.5H31.6458C32.2073 27.5 32.6667 27.9641 32.6667 28.5312Z" fill="#226184"/>
</svg>
