<svg width="47" height="47" viewBox="0 0 47 47" fill="none" xmlns="http://www.w3.org/2000/svg">
<path d="M26.2915 22.0055L21.6953 20.6929C21.5336 20.6463 21.3915 20.5486 21.2902 20.4143C21.1889 20.2801 21.1339 20.1166 21.1335 19.9484C21.1335 19.5224 21.4805 19.1754 21.9082 19.1754H24.9173C25.2478 19.1754 25.5673 19.2461 25.8592 19.3792C26.2998 19.5821 26.8111 19.5362 27.1544 19.1929L28.7627 17.5846C29.2465 17.1008 29.1914 16.2737 28.6204 15.8974C27.7484 15.3218 26.7524 14.9693 25.7031 14.8454V13.2188C25.7031 12.4073 25.0459 11.75 24.2344 11.75H22.7656C21.9541 11.75 21.2969 12.4073 21.2969 13.2188V14.8307C18.5163 15.163 16.3977 17.6746 16.7695 20.6185C17.0357 22.7252 18.666 24.4106 20.7085 24.9945L25.3047 26.3071C25.4664 26.3537 25.6085 26.4514 25.7098 26.5857C25.8111 26.7199 25.8661 26.8834 25.8665 27.0516C25.8665 27.4776 25.5195 27.8245 25.0918 27.8245H22.0827C21.7522 27.8245 21.4327 27.7539 21.1408 27.6208C20.7002 27.4179 20.1889 27.4638 19.8456 27.8071L18.2373 29.4154C17.7535 29.8992 17.8086 30.7263 18.3796 31.1026C19.2516 31.6782 20.2476 32.0307 21.2969 32.1546V33.7812C21.2969 34.5927 21.9541 35.25 22.7656 35.25H24.2344C25.0459 35.25 25.7031 34.5927 25.7031 33.7812V32.1693C28.4837 31.837 30.6023 29.3254 30.2305 26.3815C29.9643 24.2748 28.334 22.5894 26.2915 22.0055ZM47 23.5C47 20.1494 45.2742 17.2211 42.7131 15.5412C43.3373 12.5211 42.4652 9.23477 40.1152 6.88477C37.7652 4.52559 34.4697 3.6627 31.4588 4.28691C29.7605 1.7166 26.8322 0 23.5 0C20.1678 0 17.2303 1.7166 15.5412 4.28691C12.5211 3.6627 9.23477 4.53477 6.88477 6.88477C4.52559 9.23477 3.6627 12.5303 4.28691 15.5412C1.70742 17.2395 0 20.177 0 23.5C0 26.8322 1.7166 29.7697 4.28691 31.4588C3.6627 34.4789 4.53477 37.7652 6.88477 40.1152C9.23477 42.4744 12.5027 43.3373 15.5412 42.7131C17.2395 45.2926 20.177 47 23.5 47C26.8414 47 29.7697 45.2742 31.4588 42.7131C34.4973 43.3373 37.7652 42.4652 40.1152 40.1152C42.4744 37.7652 43.3373 34.4697 42.7131 31.4588C45.2926 29.7605 47 26.823 47 23.5ZM37.0584 29.1271C37.8938 30.9539 39.8398 34.1576 36.9941 37.0033C34.4238 39.5736 31.9178 38.3344 29.118 37.0676C28.4111 38.9586 27.5299 42.5938 23.5 42.5938C19.3416 42.5938 18.4787 38.6648 17.882 37.0676C15.9451 37.9488 12.8424 39.8398 9.99668 36.9941C7.05918 34.0566 9.22559 30.6693 9.93242 29.118C8.04141 28.4111 4.40625 27.5299 4.40625 23.5C4.40625 19.3416 8.33516 18.4787 9.9416 17.8729C9.10625 16.0461 7.16016 12.8424 10.0059 9.99668C12.9434 7.05918 16.3307 9.22559 17.882 9.93242C18.5889 8.04141 19.4701 4.40625 23.5 4.40625C27.6584 4.40625 28.5213 8.33516 29.118 9.95078C30.9447 9.11543 34.1484 7.16934 36.9941 10.015C39.9316 12.9525 37.7652 16.3398 37.0584 17.8912C38.9494 18.598 42.5846 19.4793 42.5846 23.5092C42.5846 27.6676 38.6557 28.5305 37.0584 29.1271Z" fill="#226184"/>
</svg>
