<svg width="46" height="37" viewBox="0 0 46 37" fill="none" xmlns="http://www.w3.org/2000/svg">
<g clip-path="url(#clip0_453_13721)">
<path d="M20.815 10.4279L24.4159 11.4613C24.6747 11.5336 24.8544 11.7793 24.8544 12.0467C24.8544 12.3791 24.5812 12.6537 24.2506 12.6537H21.8931C21.6344 12.6537 21.3828 12.5959 21.1528 12.4947C20.8078 12.3357 20.4053 12.3719 20.1394 12.6393L18.8816 13.9039C18.5006 14.2869 18.5438 14.9373 18.9894 15.2336C19.6722 15.6889 20.4556 15.9635 21.275 16.0646V17.3438C21.275 17.9797 21.7925 18.5 22.425 18.5H23.575C24.2075 18.5 24.725 17.9797 24.725 17.3438V16.0719C26.9028 15.8117 28.5631 13.8316 28.2684 11.5191C28.06 9.85703 26.7806 8.53457 25.185 8.07207L21.5841 7.03867C21.3253 6.96641 21.1456 6.7207 21.1456 6.45332C21.1456 6.1209 21.4188 5.84629 21.7494 5.84629H24.1069C24.3656 5.84629 24.6172 5.9041 24.8472 6.00527C25.1922 6.16426 25.5947 6.12812 25.8606 5.86074L27.1184 4.59609C27.4994 4.21309 27.4562 3.5627 27.0106 3.26641C26.3278 2.81113 25.5444 2.53652 24.725 2.43535V1.15625C24.725 0.520312 24.2075 0 23.575 0H22.425C21.7925 0 21.275 0.520312 21.275 1.15625V2.42812C19.0972 2.68828 17.4369 4.66836 17.7316 6.98086C17.94 8.64297 19.2122 9.96543 20.815 10.4279ZM41.1772 6.95195C38.1656 6.74961 35.65 9.15605 35.65 12.1406C35.65 12.1406 35.6428 14.959 35.6356 17.6328C34.7947 17.0691 33.7884 16.7656 32.775 16.7656C31.1578 16.7656 29.6628 17.5027 28.6781 18.7891L23.5175 25.5314C23.3234 25.7844 23.1581 26.0662 23 26.3408C22.8347 26.0662 22.6766 25.7844 22.4825 25.5314L17.3219 18.7891C16.33 17.5027 14.835 16.7656 13.225 16.7656C12.2116 16.7656 11.2053 17.0764 10.3644 17.6328C10.3572 14.9518 10.35 12.1406 10.35 12.1406C10.35 9.15605 7.83437 6.74961 4.82281 6.95195C2.07 7.13262 0 9.55352 0 12.3213V26.1602C0 27.9885 0.625312 29.7879 1.76094 31.2188L5.98 36.5664C6.19562 36.841 6.53344 37.0072 6.87844 37.0072H8.05C8.6825 37.0072 9.2 36.4869 9.2 35.851C9.2 35.309 9.01313 34.7814 8.6825 34.3623L4.45625 29.0508C3.80219 28.2342 3.45 27.2152 3.45 26.1602V12.2057C3.45 11.3674 4.01062 10.5941 4.83 10.4424C5.92969 10.2256 6.9 11.0711 6.9 12.1406C6.9 12.1406 6.91438 19.4395 6.92156 21.723C6.92156 22.2723 7.12281 22.7926 7.48219 23.2117L12.9806 29.9035C13.5628 30.6117 14.6769 30.7057 15.3597 29.9758C15.8987 29.4049 15.8844 28.5016 15.4172 27.8656L11.8594 23.0238C11.2772 22.265 11.4209 21.1738 12.1756 20.5885C12.4919 20.3428 12.8584 20.2271 13.225 20.2271C13.7425 20.2271 14.2528 20.4584 14.5978 20.9064L19.7512 27.6416C20.3694 28.451 20.7072 29.441 20.7072 30.46V35.8438C20.7072 36.4797 21.2247 37 21.8572 37H24.1572C24.7897 37 25.3072 36.4797 25.3072 35.8438V30.4672C25.3072 29.4482 25.645 28.4582 26.2631 27.6488L31.4166 20.9137C31.7544 20.4729 32.2719 20.2344 32.7894 20.2344C33.1559 20.2344 33.5225 20.35 33.8387 20.5957C34.5934 21.1811 34.7372 22.265 34.155 23.0311L30.5972 27.8729C30.13 28.5088 30.1228 29.4121 30.6547 29.983C31.3878 30.7707 32.5019 30.5539 33.0337 29.9107L38.5322 23.2189C38.8916 22.7998 39.0856 22.2795 39.0928 21.7303C39.0856 19.4395 39.1 12.1406 39.1 12.1406C39.1 11.0711 40.0631 10.2256 41.17 10.4424C41.9894 10.6014 42.55 11.3674 42.55 12.2057V26.1602C42.55 27.208 42.1978 28.227 41.5438 29.0436L37.3247 34.3479C36.9869 34.7742 36.8072 35.2945 36.8072 35.8365C36.8072 36.4725 37.3247 36.9928 37.9572 36.9928H39.1287C39.4809 36.9928 39.8116 36.8338 40.0272 36.552L44.2462 31.2043C45.3819 29.7734 46.0072 27.9812 46.0072 26.1457V12.3213C46 9.55352 43.93 7.13262 41.1772 6.95195Z" fill="#226184"/>
</g>
<defs>
<clipPath id="clip0_453_13721">
<rect width="46" height="37" fill="white"/>
</clipPath>
</defs>
</svg>
