<svg width="47" height="42" viewBox="0 0 47 42" fill="none" xmlns="http://www.w3.org/2000/svg">
<path d="M20.945 11.1295L25.5469 12.4499C26.2649 12.655 26.7626 13.3193 26.7626 14.0656C26.7626 14.9924 26.012 15.7469 25.09 15.7469H22.0792C21.4101 15.7469 20.7655 15.5337 20.2352 15.1482C19.9904 14.9678 19.6477 15.0252 19.4356 15.2466L18.5054 16.1816C18.2198 16.4687 18.2688 16.9361 18.587 17.1822C19.5906 17.9531 20.8063 18.3714 22.0873 18.3714H22.2016V20.3398C22.2016 20.7006 22.4953 20.9959 22.8543 20.9959H24.1598C24.5188 20.9959 24.8126 20.7006 24.8126 20.3398V18.3714H24.9268C26.7871 18.3714 28.5414 17.256 29.1452 15.4845C29.9693 13.0568 28.5495 10.58 26.2812 9.92384L21.4591 8.53779C20.741 8.33275 20.2433 7.66843 20.2433 6.92209C20.2433 5.99531 20.994 5.24077 21.916 5.24077H24.9268C25.5959 5.24077 26.2404 5.45401 26.7708 5.83948C27.0156 6.01992 27.3583 5.96251 27.5704 5.74107L28.5006 4.80609C28.7862 4.51904 28.7372 4.05155 28.419 3.80551C27.4154 3.04277 26.1996 2.62449 24.9186 2.62449H24.8044V0.656122C24.8044 0.295255 24.5107 0 24.1517 0H22.8462C22.4871 0 22.1934 0.295255 22.1934 0.656122V2.62449H21.9078C19.4111 2.62449 17.412 4.78149 17.6487 7.34036C17.8118 9.1529 19.1989 10.6292 20.945 11.1295ZM45.5536 27.3603C43.9462 25.9086 41.5229 25.9168 39.8502 27.2619L34.8241 31.3052C34.669 31.4282 34.4814 31.4939 34.2774 31.4939H30.8831C31.2584 30.7065 31.4135 29.7961 31.2748 28.8448C30.9484 26.5565 28.8596 24.9326 26.5587 24.9326H14.7929C13.0957 24.9326 11.4476 25.4821 10.0931 26.5073L6.95992 28.8694H0.652747C0.293736 28.8694 0 29.1646 0 29.5255V30.8377C0 31.1986 0.293736 31.4939 0.652747 31.4939H7.83297L11.6597 28.6069C12.5654 27.9262 13.6669 27.5571 14.7929 27.5571H26.7626C27.8478 27.5571 28.7209 28.4347 28.7209 29.5255C28.7209 30.6163 27.8478 31.4939 26.7626 31.4939H19.5824C18.8644 31.4939 18.2769 32.0844 18.2769 32.8061C18.2769 33.5278 18.8644 34.1183 19.5824 34.1183H34.2856C35.077 34.1183 35.844 33.8477 36.4641 33.3556L41.4903 29.3204C42.1185 28.8202 43.1221 28.6971 43.8075 29.3204C44.6316 30.0668 44.5663 31.3298 43.7341 31.9941L35.5095 38.6128C34.8893 39.1131 34.1224 39.3755 33.3309 39.3755H0.652747C0.293736 39.3755 0 39.6708 0 40.0316V41.3439C0 41.7048 0.293736 42 0.652747 42H33.3309C34.718 42 36.0561 41.5243 37.1332 40.655L45.3659 34.0363C46.3614 33.2326 46.957 32.0352 46.9978 30.7557C47.0386 29.4763 46.5082 28.2296 45.5536 27.3603Z" fill="#226184"/>
</svg>
