<svg width="47" height="42" viewBox="0 0 47 42" fill="none" xmlns="http://www.w3.org/2000/svg">
<g clip-path="url(#clip0_554_15193)">
<path d="M46.5298 17.6711L41.7686 13.7377V5.90617C41.7686 5.73212 41.6999 5.5652 41.5774 5.44213C41.455 5.31906 41.289 5.24992 41.1159 5.24992H38.5048C38.3372 5.25212 38.1769 5.31902 38.0571 5.43675C37.9372 5.55448 37.867 5.71403 37.861 5.88238V10.5098L26.4267 1.06632C25.6053 0.377512 24.5695 0.000244141 23.4998 0.000244141C22.4302 0.000244141 21.3944 0.377512 20.573 1.06632L0.469842 17.6711C0.338356 17.7817 0.229833 17.9173 0.15047 18.0701C0.0711081 18.2229 0.0224609 18.3899 0.00730666 18.5616C-0.00784756 18.7333 0.010788 18.9063 0.0621492 19.0708C0.11351 19.2352 0.196591 19.3879 0.306648 19.5201L1.1422 20.5291C1.36442 20.7958 1.68289 20.9629 2.02762 20.9936C2.37234 21.0244 2.71511 20.9163 2.98059 20.6931L5.22206 18.8433V23.6249H5.19677V40.6874C5.19956 41.0361 5.33913 41.3695 5.58513 41.6153C5.83112 41.8611 6.16367 41.9993 6.51048 41.9999H40.4721C40.8183 41.9999 41.1504 41.8616 41.3952 41.6155C41.6401 41.3694 41.7776 41.0355 41.7776 40.6874V18.8433L44.0215 20.6964C44.287 20.9196 44.6298 21.0277 44.9745 20.9969C45.3192 20.9662 45.6377 20.7991 45.8599 20.5323L46.6971 19.5234C46.8074 19.3908 46.8906 19.2377 46.942 19.0728C46.9933 18.9079 47.0117 18.7344 46.9962 18.5623C46.9806 18.3902 46.9314 18.2229 46.8514 18.0699C46.7714 17.917 46.6621 17.7815 46.5298 17.6711V17.6711ZM37.861 18.3749H37.8438V38.0624H28.7221V26.2499C28.7221 25.5537 28.447 24.886 27.9573 24.3938C27.4676 23.9015 26.8035 23.6249 26.111 23.6249H20.8887C20.1962 23.6249 19.5321 23.9015 19.0424 24.3938C18.5527 24.886 18.2776 25.5537 18.2776 26.2499V38.0624H9.11344V15.9534L9.13873 15.9328V15.6047L23.4998 3.74464L37.861 15.608V18.3749Z" fill="#226184"/>
</g>
<defs>
<clipPath id="clip0_554_15193">
<rect width="47" height="42" fill="white"/>
</clipPath>
</defs>
</svg>
