<svg width="47" height="41" viewBox="0 0 47 41" fill="none" xmlns="http://www.w3.org/2000/svg">
<path d="M46.5618 19.2186L41.7778 15.0033V4.48426C41.7778 3.97454 41.5714 3.48571 41.2042 3.12528C40.8369 2.76486 40.3388 2.56238 39.8194 2.56238H31.9861C31.4667 2.56238 30.9686 2.76486 30.6013 3.12528C30.2341 3.48571 30.0278 3.97454 30.0278 4.48426V4.65082L25.6672 0.807068C25.0699 0.286522 24.2988 -0.000976563 23.5 -0.000976562C22.7011 -0.000976562 21.9301 0.286522 21.3328 0.807068L0.438152 19.2186C0.179083 19.4439 0.0217743 19.7609 0.000811635 20.1C-0.020151 20.4391 0.0969478 20.7724 0.326364 21.0268L1.19293 21.9837C1.30677 22.1096 1.44476 22.2122 1.59901 22.2857C1.75326 22.3592 1.92075 22.4021 2.09192 22.4121C2.26309 22.4221 2.43458 22.3988 2.5966 22.3437C2.75863 22.2887 2.908 22.2028 3.03621 22.091L5.21893 20.1692V37.7968C5.21893 38.6463 5.56281 39.461 6.1749 40.0617C6.787 40.6624 7.61719 40.9999 8.48282 40.9999H38.5139C39.3795 40.9999 40.2097 40.6624 40.8218 40.0617C41.4339 39.461 41.7778 38.6463 41.7778 37.7968V20.1676L43.9605 22.0894C44.0887 22.2012 44.2381 22.2871 44.4001 22.3421C44.5621 22.3972 44.7336 22.4205 44.9048 22.4105C45.0759 22.4005 45.2434 22.3576 45.3977 22.2841C45.5519 22.2106 45.6899 22.108 45.8038 21.9821L46.6736 21.0268C46.903 20.7724 47.0201 20.4391 46.9991 20.1C46.9782 19.7609 46.8209 19.4439 46.5618 19.2186ZM37.8611 37.1561H9.13886V16.7162L23.5 4.06385L37.8611 16.7162V37.1561ZM37.8611 11.552L33.9444 8.10138V6.40613H37.8611V11.552ZM18.2778 16.6561V24.3436C18.2778 24.6834 18.4153 25.0093 18.6601 25.2496C18.905 25.4899 19.2371 25.6249 19.5833 25.6249H27.4166C27.7629 25.6249 28.095 25.4899 28.3398 25.2496C28.5846 25.0093 28.7222 24.6834 28.7222 24.3436V16.6561C28.7222 16.3163 28.5846 15.9904 28.3398 15.7502C28.095 15.5099 27.7629 15.3749 27.4166 15.3749H19.5833C19.2371 15.3749 18.905 15.5099 18.6601 15.7502C18.4153 15.9904 18.2778 16.3163 18.2778 16.6561Z" fill="#226184"/>
</svg>
