<?xml version="1.0" encoding="UTF-8"?><svg id="Camada_2" xmlns="http://www.w3.org/2000/svg" viewBox="0 0 1194.38 301"><defs><style>.cls-1{fill:#fff;}.cls-2{fill:#226183;}</style></defs><g id="Camada_1-2"><g><circle class="cls-2" cx="150.5" cy="150.5" r="150.5"/><g><path class="cls-1" d="M217.4,148.62c9.88-6.06,15.81-18.82,15.81-34.8v-.43c0-10.5-2.34-19.25-6.94-25.99-6.15-9.01-16.05-13.77-28.63-13.77h-44.02V227.37h46.35c24.19,0,38.63-15.26,38.63-40.83v-.43c0-17.63-8.31-31.95-21.19-37.5Zm-17.44,70.04h-38.7v-64.66h41.18c17.32,0,28.51,12.69,28.51,32.33v.43c0,20.27-11.29,31.9-30.98,31.9Zm0-73.37h-38.7v-62.95h36.23c17.58,0,28.07,11.69,28.07,31.26v.43c0,23.05-13.22,31.26-25.59,31.26Z"/><path class="cls-1" d="M62.4,114.45v.43c0,17.63,8.31,31.95,21.19,37.5-9.88,6.06-15.81,18.82-15.81,34.8v.43c0,10.5,2.34,19.25,6.94,25.99,6.15,9.01,16.05,13.77,28.63,13.77h44.02V73.63h-46.35c-24.19,0-38.63,15.26-38.63,40.83Zm38.63,41.25h38.7v62.95h-36.23c-17.58,0-28.07-11.69-28.07-31.26v-.43c0-23.05,13.22-31.26,25.59-31.26Zm0-73.36h38.7v64.65h-41.18c-17.32,0-28.51-12.69-28.51-32.33v-.43c0-20.27,11.29-31.9,30.98-31.9Z"/></g><g><path class="cls-2" d="M412.29,188.84c-1.54,3.75-3.72,6.93-6.54,9.52-2.82,2.59-6.2,4.6-10.13,6.03-3.93,1.43-8.33,2.14-13.2,2.14h-38.96V95.27h37.03c4.36,0,8.33,.64,11.91,1.91,3.59,1.27,6.64,3.1,9.16,5.49s4.49,5.28,5.9,8.68c1.41,3.4,2.11,7.17,2.11,11.31v.32c0,3.82-.45,7.16-1.35,10.03-.9,2.86-2.07,5.36-3.52,7.48-1.45,2.12-3.1,3.9-4.93,5.34s-3.65,2.63-5.44,3.58c2.65,.84,5.21,1.98,7.69,3.41,2.48,1.43,4.63,3.23,6.47,5.4,1.84,2.17,3.31,4.7,4.42,7.61s1.66,6.27,1.66,10.07v.32c0,4.65-.77,8.86-2.3,12.61Zm-9.38-65.44c0-6.19-1.93-11.18-5.78-14.97-3.85-3.79-9.42-5.68-16.69-5.68h-30.3v44.02h29.66c3.34,0,6.42-.5,9.24-1.52,2.82-1.02,5.27-2.48,7.32-4.41s3.66-4.32,4.81-7.2,1.73-6.19,1.73-9.92v-.32Zm5,52.53c0-6.91-2.33-12.26-6.99-16.03-4.67-3.77-11.45-5.66-20.35-5.66h-30.43v44.82h32.61c7.7,0,13.82-2.04,18.36-6.14s6.8-9.65,6.8-16.67v-.32Z"/><path class="cls-2" d="M435.39,206.52V95.27h63.93v7.47h-57.26v44.02h51.48v7.47h-51.48v44.82h57.9v7.47h-64.58Z"/><path class="cls-2" d="M590.35,206.52l-63.29-98.85v98.85h-6.42V95.27h6.29l62.01,96.79V95.27h6.42v111.25h-5.01Z"/><path class="cls-2" d="M652.87,102.74v103.78h-6.68V102.74h-31.32v-7.47h69.32v7.47h-31.32Z"/><path class="cls-2" d="M696.52,206.52v-4.61l61.5-99.18h-59.31v-7.47h68.81v4.61l-61.49,99.17h61.49v7.47h-70.99Z"/><path class="cls-2" d="M895.26,188.84c-1.54,3.75-3.72,6.93-6.54,9.52-2.82,2.59-6.2,4.6-10.13,6.03-3.93,1.43-8.33,2.14-13.2,2.14h-38.96V95.27h37.03c4.36,0,8.33,.64,11.91,1.91,3.59,1.27,6.64,3.1,9.16,5.49s4.49,5.28,5.9,8.68c1.41,3.4,2.11,7.17,2.11,11.31v.32c0,3.82-.45,7.16-1.35,10.03-.9,2.86-2.07,5.36-3.52,7.48-1.45,2.12-3.1,3.9-4.93,5.34s-3.65,2.63-5.44,3.58c2.65,.84,5.21,1.98,7.69,3.41,2.48,1.43,4.63,3.23,6.47,5.4,1.84,2.17,3.31,4.7,4.42,7.61s1.66,6.27,1.66,10.07v.32c0,4.65-.77,8.86-2.3,12.61Zm-9.38-65.44c0-6.19-1.93-11.18-5.78-14.97-3.85-3.79-9.42-5.68-16.69-5.68h-30.3v44.02h29.66c3.34,0,6.42-.5,9.24-1.52,2.82-1.02,5.27-2.48,7.32-4.41s3.66-4.32,4.81-7.2,1.73-6.19,1.73-9.92v-.32Zm5,52.53c0-6.91-2.33-12.26-6.99-16.03-4.67-3.77-11.45-5.66-20.35-5.66h-30.43v44.82h32.61c7.7,0,13.82-2.04,18.36-6.14s6.8-9.65,6.8-16.67v-.32Z"/><path class="cls-2" d="M993.46,206.52l-11.43-31.15h-53.02l-11.43,31.15h-6.93l41.86-112.05h6.42l41.85,112.05h-7.31Zm-37.87-102.99l-23.75,64.37h47.37l-23.62-64.37Z"/><path class="cls-2" d="M1088.72,206.52l-63.29-98.85v98.85h-6.42V95.27h6.29l62.01,96.79V95.27h6.42v111.25h-5.01Z"/><path class="cls-2" d="M1185.64,206.52l-36.97-56.26-22.34,27.97v28.29h-6.68V95.27h6.68v73.11l57.26-73.11h9.11l-39.28,49.11,40.95,62.14h-8.73Z"/></g></g></g></svg>