<svg width="42" height="36" viewBox="0 0 42 36" fill="none" xmlns="http://www.w3.org/2000/svg">
<path d="M36.6017 17.5628C38.9014 16.1535 40.2816 13.1861 40.2816 9.4698V9.3698C40.2816 6.92794 39.737 4.89306 38.6663 3.32562C37.2348 1.23027 34.9305 0.123291 32.0024 0.123291H21.7563V35.8768H32.5447C38.1751 35.8768 41.5362 32.3279 41.5362 26.3814V26.2814C41.5362 22.1814 39.602 18.8512 36.604 17.5605L36.6017 17.5628ZM32.5424 33.8512H23.5346V18.814H33.1196C37.151 18.814 39.7556 21.7652 39.7556 26.3326V26.4326C39.7556 31.1465 37.1277 33.8512 32.5447 33.8512H32.5424ZM32.5424 16.7884H23.5346V2.14887H31.9675C36.0594 2.14887 38.501 4.86748 38.501 9.41864V9.51864C38.501 14.8791 35.4239 16.7884 32.5447 16.7884H32.5424Z" fill="white"/>
<path d="M0.524301 9.61628V9.71628C0.524301 13.8163 2.45852 17.1465 5.45646 18.4372C3.1568 19.8465 1.77654 22.814 1.77654 26.5302V26.6302C1.77654 29.0721 2.3212 31.107 3.39189 32.6744C4.82335 34.7698 7.12766 35.8768 10.0558 35.8768H20.3018V0.12326H9.51344C3.88301 0.12326 0.521973 3.6721 0.521973 9.61861L0.524301 9.61628ZM9.51577 19.2093H18.5235V33.8488H10.0907C5.99879 33.8488 3.55715 31.1302 3.55715 26.5791V26.4791C3.55715 21.1186 6.63422 19.2093 9.51344 19.2093H9.51577ZM9.51577 2.14884H18.5235V17.1837H8.93853C4.90715 17.1837 2.30258 14.2326 2.30258 9.66512V9.56512C2.30258 4.85117 4.93042 2.14652 9.51344 2.14652L9.51577 2.14884Z" fill="white"/>
</svg>
