<svg width="38" height="42" viewBox="0 0 38 42" fill="none" xmlns="http://www.w3.org/2000/svg">
<path d="M29.9292 24.9375H17.9575C17.7812 24.9375 17.612 25.0066 17.4873 25.1297C17.3625 25.2528 17.2925 25.4197 17.2925 25.5938V26.9062C17.2925 27.0803 17.3625 27.2472 17.4873 27.3703C17.612 27.4934 17.7812 27.5625 17.9575 27.5625H29.9292C30.1056 27.5625 30.2748 27.4934 30.3995 27.3703C30.5243 27.2472 30.5943 27.0803 30.5943 26.9062V25.5938C30.5943 25.4197 30.5243 25.2528 30.3995 25.1297C30.2748 25.0066 30.1056 24.9375 29.9292 24.9375ZM7.98113 27.8906C8.30999 27.8906 8.63146 27.7944 8.9049 27.6141C9.17833 27.4339 9.39145 27.1776 9.5173 26.8778C9.64315 26.5781 9.67608 26.2482 9.61192 25.9299C9.54776 25.6117 9.3894 25.3193 9.15686 25.0899C8.92433 24.8605 8.62805 24.7042 8.30552 24.6409C7.98298 24.5776 7.64866 24.6101 7.34483 24.7343C7.041 24.8584 6.78132 25.0687 6.59862 25.3385C6.41591 25.6083 6.3184 25.9255 6.3184 26.25C6.3184 26.6851 6.49358 27.1024 6.8054 27.4101C7.11722 27.7178 7.54015 27.8906 7.98113 27.8906ZM9.31132 21H27.934C28.6395 21 29.3162 20.7234 29.8151 20.2312C30.314 19.7389 30.5943 19.0712 30.5943 18.375V9.1875C30.5943 8.49131 30.314 7.82363 29.8151 7.33134C29.3162 6.83906 28.6395 6.5625 27.934 6.5625H9.31132C8.60574 6.5625 7.92907 6.83906 7.43015 7.33134C6.93123 7.82363 6.65094 8.49131 6.65094 9.1875V18.375C6.65094 19.0712 6.93123 19.7389 7.43015 20.2312C7.92907 20.7234 8.60574 21 9.31132 21ZM34.5849 0H2.66038C1.9548 0 1.27812 0.276562 0.779207 0.768845C0.280289 1.26113 0 1.92881 0 2.625L0 31.5C0 32.1962 0.280289 32.8639 0.779207 33.3562C1.27812 33.8484 1.9548 34.125 2.66038 34.125V39.375C2.66038 40.0712 2.94067 40.7389 3.43958 41.2312C3.9385 41.7234 4.61518 42 5.32075 42H31.9245C32.6301 42 33.3068 41.7234 33.8057 41.2312C34.3046 40.7389 34.5849 40.0712 34.5849 39.375V34.125C35.2905 34.125 35.9672 33.8484 36.4661 33.3562C36.965 32.8639 37.2453 32.1962 37.2453 31.5V2.625C37.2453 1.92881 36.965 1.26113 36.4661 0.768845C35.9672 0.276562 35.2905 0 34.5849 0V0ZM30.5943 38.0625H6.65094V34.125H30.5943V38.0625ZM33.2547 30.1875H3.99057V3.9375H33.2547V30.1875Z" fill="#226184"/>
</svg>
