<svg width="47" height="40" viewBox="0 0 47 40" fill="none" xmlns="http://www.w3.org/2000/svg">
<path d="M46.9372 19.8281C44.5789 10.3516 35.4394 4.50781 25.4595 3.82031V1.875C25.4595 0.835938 24.5863 0 23.501 0C22.4157 0 21.5426 0.835938 21.5426 1.875V3.82031C11.5952 4.5 2.48842 10.2969 0.0648312 19.8203C-0.416622 21.6641 1.88456 23.2422 3.62269 21.8125L3.66349 21.7812C7.67833 18.2031 10.9669 19.5859 13.8883 23.9453C14.8104 25.3359 16.728 25.2656 17.6093 23.9453C18.711 22.3125 19.8615 20.8047 21.5426 20.1328V34.375C21.5426 35.4062 20.6612 36.25 19.5841 36.25C18.7518 36.25 18.0092 35.75 17.7317 35C17.3727 34.0234 16.2547 33.5156 15.2347 33.8594C14.2147 34.2031 13.6843 35.2734 14.0433 36.25C14.8756 38.4922 17.0952 40 19.5841 40C22.8237 40 25.4595 37.4766 25.4595 34.375V20.1562C27.573 21 28.5604 22.7031 29.3927 23.9453C30.274 25.2656 32.1835 25.3359 33.1138 23.9453C36.0678 19.5703 39.3645 18.2344 43.3467 21.7812L43.3875 21.8125C45.1093 23.2344 47.4105 21.6797 46.9372 19.8281ZM31.3185 19.9453C29.3601 17.6016 26.6835 16.0156 23.501 16.0156C20.2859 16.0156 17.8133 17.4766 15.7814 19.9141C12.8682 16.4531 9.02476 15.4531 5.76883 16.2578C9.38381 10.5312 16.4832 7.5 23.501 7.5C30.4862 7.5 37.6835 10.5469 41.274 16.3125C37.3652 15.2344 33.9461 16.9453 31.3185 19.9453Z" fill="#226184"/>
</svg>
