<svg width="85" height="108" viewBox="0 0 85 108" fill="none" xmlns="http://www.w3.org/2000/svg">
<path d="M42.5832 0.75H42.5811H42.5787H42.5762H42.5738H42.5713H42.5689H42.5664H42.564H42.5615H42.5591H42.5566H42.5542H42.5517H42.5493H42.5468H42.5444H42.5419H42.5395H42.537H42.5345H42.5321H42.5297H42.5272H42.5247H42.5223H42.5199H42.5174H42.515H42.5125H42.5101H42.5076H42.5052H42.5027H42.5003H42.4978H42.4954H42.4929H42.4905H42.488H42.4856H42.4831H42.4807H42.4782H42.4758H42.4733H42.4709H42.4684H42.466H42.4635H42.4611H42.4586H42.4562H42.4537H42.4513H42.4488H42.4464H42.4439H42.4415H42.439H42.4366H42.4341H42.4317H42.4293H42.4268H42.4244H42.4219H42.4195H42.417H42.4146H42.4121H42.4097H42.4072H42.4048H42.4023H42.3999H42.3974H42.395H42.3925H42.3901H42.3877H42.3852H42.3828H42.3803H42.3779H42.3754H42.373H42.3705H42.3681H42.3656H42.3632H42.3607H42.3583H42.3559H42.3534H42.351H42.3485H42.3461H42.3436H42.3412H42.3387H42.3363H42.3338H42.3314H42.329H42.3265H42.3241H42.3216H42.3192H42.3167H42.3143H42.3118H42.3094H42.3069H42.3045H42.3021H42.2996H42.2972H42.2947H42.2923H42.2898H42.2874H42.2849H42.2825H42.2801H42.2776H42.2752H42.2727H42.2703H42.2678H42.2654H42.2629H42.2605H42.2581H42.2556H42.2532H42.2507H42.2483H42.2458H42.2434H42.241H42.2385H42.2361H42.2336H42.2312H42.2287H42.2263H42.2239H42.2214H42.219H42.2165H42.2141H42.2116H42.2092H42.2068H42.2043H42.2019H42.1994H42.197H42.1945H42.1921H42.1897H42.1872H42.1848H42.1823H42.1799H42.1774H42.175H42.1726H42.1701H42.1677H42.1652H42.1628H42.1603H42.1579H42.1555H42.153H42.1506H42.1481H42.1457H42.1433H42.1408H42.1384H42.1359H42.1335H42.131H42.1286H42.1262H42.1237H42.1213H42.1188H42.1164H42.114H42.1115H42.1091H42.1066H42.1042H42.1017H42.0993H42.0969H42.0944H42.092H42.0895H42.0871H42.0847H42.0822H42.0798H42.0773H42.0749H42.0725H42.07H42.0676H42.0651H42.0627H42.0603H42.0578H42.0554H42.0529H42.0505H42.0481H42.0456H42.0432H42.0407H42.0383H42.0359H42.0334H42.031H42.0285H42.0261H42.0237H42.0212H42.0188H42.0163H42.0139H42.0115H42.009H42.0066H42.0041H42.0017H41.9993H41.9968H41.9944H41.9919H41.9895H41.9871H41.9846H41.9822H41.9797H41.9773H41.9749H41.9724H41.97H41.9676H41.9651H41.9627H41.9602H41.9578H41.9554H41.9529H41.9505H41.948H41.9456H41.9432H41.9407H41.9383H41.9358H41.9334H41.931H41.9285H41.9261H41.9237H41.9212H41.9188H41.9163H41.9139H41.9115H41.909H41.9066H41.9042H41.9017H41.8993H41.8968H41.8944H41.892H41.8895H41.8871H41.8846H41.8822H41.8798H41.8773H41.8749H41.8725H41.87H41.8676H41.8651H41.8627H41.8603H41.8578H41.8554H41.853H41.8505H41.8481H41.8456H41.8432H41.8408H41.8383H41.8359H41.8335H41.831H41.8286H41.8261H41.8237H41.8213H41.8188H41.8164H41.814H41.8115H41.8091H41.8066H41.8042H41.8018H41.7993H41.7969H41.7945H41.792H41.7896H41.7872H41.7847H41.7823H41.7798H41.7774H41.775H41.7725H41.7701H41.7677H41.7652H41.7628H41.7603H41.7579H41.7555H41.753H41.7506H41.7482H41.7457H41.7433H41.7409H41.7384H41.736H41.7335H41.7311H41.7287H41.7262H41.7238H41.7214H41.7189H41.7165H41.7141H41.7116H41.7092H41.7067H41.7043H41.7019H41.6994H41.697H41.6946H41.6921H41.6897H41.6873H41.6848H41.6824H41.68H41.6775H41.6751H41.6726H41.6702H41.6678H41.6653H41.6629H41.6605H41.658H41.6556H41.6532H41.6507H41.6483H41.6459H41.6434H41.641H41.6385H41.6361H41.6337H41.6312H41.6288H41.6264H41.6239H41.6215H41.6191H41.6166H41.6142H41.6118H41.6093H41.6069H41.6044H41.602H41.5996H41.5971H41.5947H41.5923H41.5898H41.5874H41.585H41.5825H41.5801H41.5777H41.5752H41.5728H41.5704H41.5679H41.5655H41.563H41.5606H41.5582H41.5557H41.5533H41.5509H41.5484H41.546H41.5436H41.5411H41.5387H41.5363H41.5338H41.5314H41.529H41.5265H41.5241H41.5216H41.5192H41.5168H41.5143H41.5119H41.5095H41.507H41.5046H41.5022H41.4997H41.4973H41.4949H41.4924H41.49H41.4876H41.4851H41.4827H41.4803H41.4778H41.4754H41.4729H41.4705H41.4681H41.4656H41.4632H41.4608H41.4583H41.4559H41.4535H41.451H41.4486H41.4462H41.4437H41.4413H41.4389H41.4364H41.434H41.4316H41.4291H41.4267H41.4243H41.4218H41.4194H41.417H41.4145H41.4121H41.4096H41.4072H41.4048H41.4023H41.3999H41.3975H41.395H41.3926H41.3902H41.3877H41.3853H41.3829H41.3804H41.378H41.3756H41.3731H41.3707H41.3683H41.3658H41.3634H41.361H41.3585H41.3561H41.3536H41.3512H41.3488H41.3463H41.3439H41.3415H41.339H41.3366H41.2571L41.1922 0.795954C41.154 0.822955 41.1123 0.854742 41.0754 0.88285C41.0573 0.896641 41.0404 0.909546 41.0256 0.920566C40.9747 0.958561 40.9313 0.988272 40.8892 1.0108L40.8872 1.01187C38.7673 2.17 36.6476 3.32835 34.5278 4.48671C23.8701 10.3107 13.212 16.1348 2.53993 21.9312C1.91778 22.2688 1.46199 22.6669 1.16584 23.1723C0.86984 23.6774 0.747059 24.2663 0.750053 24.9614C0.764546 28.3335 0.75994 31.7076 0.755334 35.0824C0.748107 40.3769 0.740878 45.6729 0.807381 50.9651C0.847571 54.3773 1.03131 57.835 1.59886 61.2049L42.5832 0.75ZM42.5832 0.75H42.5836H42.586V0.994682M42.5832 0.75L42.586 0.994682M42.586 0.994682L42.7017 0.779903C43.6263 1.27796 44.5498 1.77689 45.4732 2.27569C47.6474 3.45031 49.8204 4.62423 52.0023 5.7843C53.4979 6.57917 54.9934 7.37421 56.4889 8.16924C65.0709 12.7317 73.652 17.2936 82.2538 21.8183C82.9486 22.183 83.4578 22.6075 83.7881 23.1574C84.1185 23.7075 84.2545 24.3573 84.25 25.1445V25.1448C84.2087 31.3172 84.2136 37.4907 84.2184 43.6646C84.2203 46.0543 84.2222 48.444 84.2214 50.8338C84.2099 74.5856 70.8168 94.964 48.9729 104.468C48.5297 104.661 48.0865 104.857 47.6428 105.052C46.1239 105.721 44.5989 106.393 43.0459 106.993L43.0455 106.993C42.7277 107.116 42.3506 107.207 41.9766 107.238C41.6054 107.269 41.2176 107.242 40.8901 107.109L40.8898 107.109C35.2743 104.821 29.7153 102.364 24.7765 98.7098C12.0398 89.2875 4.21764 76.8083 1.59888 61.2051L42.586 0.994682ZM79.7468 40.7313L79.6743 40.8033L79.6714 40.8062L79.5978 40.8795V40.9834C79.5978 42.4309 79.6187 43.8759 79.6396 45.3187C79.6852 48.468 79.7306 51.6071 79.558 54.74C78.9107 66.4749 74.62 76.8251 67.0421 85.8194C61.107 92.8632 53.649 97.7475 45.1738 101.331C43.9676 101.84 42.9067 102.102 41.8531 102.11C40.8002 102.118 39.7377 101.872 38.5282 101.343C28.805 97.0854 20.7484 90.8777 14.7229 82.1524C8.40497 73.0014 5.30188 62.8295 5.26479 51.7322C5.2493 47.1585 5.25056 42.5865 5.25182 38.0141C5.25289 34.127 5.25395 30.2395 5.24473 26.3504C5.24477 26.037 5.28837 25.8281 5.381 25.6646C5.47277 25.5025 5.62952 25.3554 5.91411 25.1997C17.7034 18.7899 29.4813 12.3572 41.2477 5.90161L41.248 5.90144C41.5376 5.74201 41.7682 5.67726 41.9844 5.67868C42.2016 5.6801 42.4316 5.74843 42.7202 5.90286L42.7206 5.90306C54.808 12.3444 66.9041 18.7714 79.0146 25.17C79.3342 25.3391 79.5117 25.5053 79.6153 25.6917C79.7203 25.8807 79.7667 26.1215 79.764 26.4745V26.4747C79.7382 30.1012 79.7414 33.7297 79.7446 37.3562C79.7456 38.4815 79.7466 39.6065 79.7468 40.7313Z" fill="#003F62" stroke="#003F62" stroke-width="0.5"/>
<path d="M36.5623 61.1589C36.5453 61.1394 36.5284 61.12 36.5115 61.1007C36.1052 60.6349 35.7412 60.2175 35.3792 59.796C34.6438 58.9374 33.909 58.0779 33.1741 57.2183C31.3265 55.0575 29.4783 52.8957 27.6185 50.7445C27.1389 50.1883 26.5514 49.8614 25.948 49.7913C25.3421 49.7209 24.7413 49.9124 24.2505 50.3536C24.2505 50.3536 24.2504 50.3537 24.2504 50.3537L24.4175 50.5396C23.5636 51.3048 23.5435 52.4668 24.4175 53.4918C27.8047 57.4605 31.1976 61.4263 34.602 65.3806C35.5448 66.4741 36.5334 66.5484 37.694 65.6776M36.5623 61.1589L38.3416 65.489M36.5623 61.1589C36.6147 61.2191 36.6679 61.28 36.7218 61.3419L36.7267 61.3475C37.5867 60.6516 38.4377 59.9623 39.2838 59.277C40.4254 58.3523 41.5581 57.4348 42.6916 56.5183M36.5623 61.1589C37.4243 60.4613 38.2776 59.7702 39.126 59.083C40.2678 58.1582 41.4007 57.2406 42.5342 56.3241M37.694 65.6776L37.8425 65.8786C37.8428 65.8785 37.843 65.8783 37.8432 65.8781C37.8435 65.8779 37.8438 65.8777 37.844 65.8775L37.694 65.6776ZM37.694 65.6776C37.8602 65.5548 38.0235 65.4263 38.184 65.295M38.184 65.295L38.3415 65.4891C38.3415 65.4891 38.3416 65.489 38.3416 65.489M38.184 65.295L38.3423 65.4884C38.3421 65.4886 38.3419 65.4888 38.3416 65.489M38.184 65.295C39.1426 64.5174 40.1012 63.7398 41.0599 62.9622C46.223 58.774 51.3878 54.5844 56.5527 50.3968C57.0832 49.9667 57.6148 49.5381 58.1463 49.1094C59.4177 48.0842 60.6889 47.0591 61.9458 46.0142M38.3416 65.489C39.299 64.7124 40.2564 63.9358 41.2139 63.1591C46.3782 58.97 51.5442 54.7795 56.7101 50.591C57.2395 50.1618 57.7704 49.7337 58.3016 49.3054C59.5736 48.2796 60.8471 47.2527 62.1055 46.2065M61.9458 46.0142L62.1055 46.2065M61.9458 46.0142L62.1056 46.2064C62.1056 46.2065 62.1056 46.2065 62.1055 46.2065M61.9458 46.0142C62.8083 45.2976 63.0032 44.3782 62.5447 43.5188C62.0805 42.6508 61.3182 42.2825 60.3783 42.4938C59.9341 42.5966 59.5043 42.9021 59.1375 43.199M62.1055 46.2065L42.5342 56.3241M59.1375 43.199L58.9804 43.0045C58.9804 43.0046 58.9803 43.0046 58.9803 43.0046C58.9802 43.0047 58.9802 43.0047 58.9802 43.0047L59.1375 43.199ZM59.1375 43.199C54.2999 47.1053 49.469 51.0226 44.6389 54.9393C43.9898 55.4657 43.3407 55.992 42.6916 56.5183M42.6916 56.5183L42.5345 56.3239C42.5344 56.3239 42.5343 56.324 42.5342 56.3241M42.6916 56.5183L42.5342 56.3241M36.3231 61.265C36.3379 61.282 36.3528 61.2991 36.3678 61.3163L27.4293 50.9079C29.2886 53.0586 31.1362 55.2195 32.9836 57.3802C33.7186 58.24 34.4537 59.0997 35.1894 59.9587C35.5521 60.3811 35.9168 60.7992 36.3231 61.265Z" fill="#003F62" stroke="#003F62" stroke-width="0.5"/>
</svg>
