<svg width="107" height="107" viewBox="0 0 107 107" fill="none" xmlns="http://www.w3.org/2000/svg">
<path d="M83.3824 100.99H54.6466C44.0315 100.99 33.4165 101.073 22.8182 100.99C14.4599 100.923 7.18814 95.2366 5.39946 86.9914C4.66393 83.613 5.0317 79.7998 5.0317 76.3546V36.3663C5.0317 32.0346 5.0317 27.6862 5.0317 23.3546C5.0317 16.0794 8.8598 9.38962 15.6802 6.42938C19.5919 4.74021 23.771 5.02452 27.9167 5.02452H81.8111C88.1467 5.02452 94.0643 7.16526 97.7922 12.6007C100.734 16.8822 100.935 21.4982 100.935 26.4319V80.7866C100.935 86.3057 100.015 91.4736 95.97 95.638C92.6434 99.0665 88.1467 100.923 83.3824 100.99C80.1561 101.04 80.1561 106.057 83.3824 106.007C93.8637 105.857 103.342 98.4644 105.465 88.0618C106.251 84.2318 105.95 80.1176 105.95 76.2208V34.4597C105.95 30.5629 105.983 26.6493 105.95 22.7525C105.866 13.3701 100.199 4.99107 91.4566 1.5291C87.0601 -0.193527 82.4965 0.0071672 77.8994 0.0071672H58.7589C46.9235 0.0071672 35.0714 0.0071672 23.2361 0.0071672C15.0784 0.0406162 7.50576 3.93743 3.22631 10.9952C0.300899 15.8118 0 21.0132 0 26.4319V82.0075C0 89.1488 2.39048 95.9725 8.02397 100.655C13.0222 104.803 18.8229 106.007 25.1083 106.007H83.3824C86.6087 106.007 86.6087 100.99 83.3824 100.99Z" fill="#003F62"/>
<path d="M72.1821 13.4202V18.9059C72.1821 21.0968 72.0484 23.3379 72.6335 25.4619C73.5863 28.9071 76.1105 31.9343 79.387 33.3893C81.744 34.4429 84.101 34.56 86.6253 34.56H92.9776C95.4015 34.56 95.4015 30.797 92.9776 30.797H87.8623C86.1238 30.797 84.2348 30.981 82.5297 30.5461C79.7213 29.8437 77.3475 27.7197 76.4281 24.9601C75.8263 23.1372 75.9601 21.264 75.9601 19.3742V13.437C75.9601 11.0119 72.1988 11.0119 72.1988 13.437L72.1821 13.4202Z" fill="#003F62"/>
<path d="M33.1023 74.9455C33.2901 75.1676 33.1877 74.5526 33.1023 74.7064C33.1023 74.6722 33.1535 74.6722 33.1706 74.6381C33.2901 74.4672 33.5462 74.3135 33.717 74.1597L35.7317 72.4002L41.0077 67.788C41.5029 67.3438 42.2371 66.8997 42.6298 66.3701C42.8347 66.0968 43.1932 66.2506 42.22 66.1481L41.6395 66.0968C41.6736 66.1993 41.7078 66.3018 41.7248 66.4214C41.6736 66.4555 41.6053 66.5068 41.5712 66.541C41.1955 67.1047 40.376 67.583 39.8808 68.0271L37.2001 70.3845L33.1023 73.9718C32.59 74.416 32.6242 75.3384 33.1023 75.7826L41.1272 83.1793C41.2468 83.2989 41.5541 83.4697 41.6224 83.6405C41.6224 83.6576 41.6736 83.6918 41.6907 83.7088C41.7761 83.7943 41.537 83.9309 41.6224 83.9992C41.6565 84.0334 42.8005 83.8626 42.8005 83.8797C42.8005 83.6747 41.9468 83.0939 41.8102 82.9572L36.8074 78.3449L33.1023 74.9455C31.89 73.8352 30.0801 75.6459 31.2924 76.7563C34.2804 79.5066 37.2684 82.2568 40.2564 85.0071C40.7345 85.4342 41.2638 86.0833 41.9127 86.22C44.2519 86.7154 44.747 83.2135 43.5006 81.8981C42.2542 80.5828 40.8711 79.4724 39.5735 78.2766L34.9122 73.9718V75.7826L39.3003 71.939C40.7175 70.7091 42.3566 69.5304 43.6201 68.1296C44.9519 66.6435 43.8421 62.7487 41.4517 64.0469C40.9224 64.3373 40.4101 64.9181 39.9662 65.311L34.0072 70.5383C32.2656 72.0757 29.0727 74.1085 31.3095 76.7563C32.3681 78.0204 34.178 76.1926 33.1194 74.9455H33.1023Z" fill="#003F62"/>
<path d="M62.5897 83.8799C63.5459 84.3753 63.9386 84.3924 63.7678 83.9312C63.7508 83.8629 63.7166 83.7774 63.6996 83.7091C63.6996 83.7091 63.7166 83.692 63.7337 83.6749C63.802 83.6237 63.8703 83.5554 63.9215 83.5041C64.1606 83.1966 64.5191 82.9575 64.8094 82.6842L67.7803 79.9339L72.288 75.7658C72.766 75.3216 72.8002 74.3992 72.288 73.955C70.1537 72.093 68.0364 70.231 65.9021 68.3691C65.1509 67.7199 64.3996 67.0879 63.6654 66.4046C63.4264 66.1825 63.8532 66.3021 63.7337 66.1654V66.08C63.3751 66.1142 62.9824 66.1483 62.5897 66.1825C62.5897 66.1825 62.6239 66.1996 62.6239 66.2167C62.6409 66.3021 62.8629 66.4217 62.9312 66.49L64.2289 67.6174L71.6904 74.16C71.827 74.2796 71.9636 74.4333 72.1172 74.5358C72.1684 74.57 72.3733 74.6896 72.2538 74.6554C72.1002 74.5871 72.1855 74.0063 72.2197 74.6554C72.2197 74.775 72.288 74.8433 72.288 74.9287C72.288 75.1337 72.3733 74.8775 72.2026 75.0483C71.383 75.9024 70.4439 76.6711 69.5731 77.474C67.251 79.6093 64.9289 81.7617 62.6239 83.897C61.4116 85.0245 63.2215 86.8181 64.4337 85.7078C66.7046 83.6066 68.9755 81.5055 71.2635 79.4043C72.2026 78.5502 73.2271 77.7302 74.0979 76.7907C74.2686 76.6028 74.4223 76.3807 74.5418 76.1587C74.7125 75.8341 74.7979 75.4924 74.815 75.1337C74.8321 74.8946 74.815 74.7066 74.7808 74.4675C74.7808 74.4162 74.6784 73.8525 74.7296 74.1429C74.7638 74.4162 74.6955 73.9038 74.6613 73.8184C74.5589 73.4938 74.354 73.1521 74.1149 72.913C74.0466 72.8447 73.9783 72.7934 73.91 72.7251C71.383 70.3335 68.6511 68.1299 66.0387 65.8408C65.185 65.1063 63.9557 63.586 62.7092 63.9105C61.0701 64.3376 60.7969 66.695 61.6165 67.9249C61.8555 68.2836 62.197 68.5399 62.5043 68.8132C65.1679 71.1364 67.8316 73.4767 70.4781 75.7999V73.9892C68.4804 75.8341 66.4827 77.679 64.502 79.5239C63.6654 80.2926 62.7605 81.0442 61.975 81.8642C60.2335 83.6579 61.9409 87.7235 64.4337 85.7248C65.7143 84.6828 63.8874 82.8892 62.6239 83.9141L62.5897 83.8799Z" fill="#003F62"/>
</svg>
