<svg width="97" height="125" viewBox="0 0 97 125" fill="none" xmlns="http://www.w3.org/2000/svg">
<path d="M0.003396 58.7881C0.003396 40.0033 0.003396 21.2185 0.006792 2.43375C0.006792 1.97019 -0.03396 1.47935 0.095088 1.04646C0.4245 -0.0681544 1.53839 -0.29653 2.65907 0.531758C5.15513 2.37922 7.93306 3.13592 11.0132 2.82233C13.0373 2.61441 14.8915 1.92587 16.4876 0.678328C17.5336 -0.139735 18.369 -0.071563 19.4319 0.695371C23.575 3.69153 28.8524 3.66767 33.0397 0.637425C34.0687 -0.109058 34.8532 -0.0920147 35.8754 0.651059C40.0321 3.67107 45.3298 3.68812 49.4797 0.674919C50.5529 -0.105649 51.3543 -0.088606 52.4207 0.685145C56.5095 3.65744 61.831 3.6404 65.9334 0.732865C66.5956 0.265888 67.2069 -0.306756 68.1034 0.194307C68.9762 0.685145 68.8709 1.52366 68.8709 2.32809C68.8709 21.4537 68.8811 40.5793 68.8437 59.7016C68.8437 60.731 69.1324 61.0411 70.1139 61.1877C83.5281 63.1817 94.5413 74.2017 96.5993 87.635C99.1836 104.514 89.0466 120.112 72.525 124.015C60.2621 126.909 49.7175 123.357 41.1392 114.103C40.3785 113.285 39.9879 113.216 39.1899 113.956C38.0726 114.989 36.8195 115.875 35.641 116.84C34.8769 117.467 34.1604 117.457 33.3385 116.901C28.4008 113.564 23.9894 113.561 19.1059 116.888C18.2909 117.443 17.6015 117.426 16.7898 116.867C12.0252 113.585 7.37272 113.585 2.65907 116.847C2.06137 117.259 1.48405 117.528 0.787872 117.143C0.027168 116.731 0 116.018 0 115.272C0.006792 102.183 0.003396 89.0939 0.003396 76.0015C0.003396 70.2648 0.003396 64.5281 0.003396 58.7881V58.7881ZM3.08017 112.94C8.0723 110.66 12.8165 110.854 17.4113 113.568C18.0633 113.953 18.4063 113.639 18.8784 113.373C22.957 111.069 27.1816 110.79 31.5828 112.375C32.656 112.76 33.5695 114.018 34.7207 113.574C35.7735 113.169 36.5546 112.098 37.5326 111.434C38.351 110.878 38.3001 110.428 37.8213 109.634C33.2672 102.047 31.936 93.9273 33.9872 85.2831C34.303 83.9503 34.9958 83.3743 35.9501 83.6947C37.047 84.0628 37.2066 84.857 36.9451 85.9375C35.9806 89.9051 35.8856 93.9 36.558 97.946C39.0982 113.216 54.3123 124.168 69.4584 121.574C85.6947 118.796 96.151 104.15 93.5395 87.8497C90.9925 71.9589 74.9633 61.0105 59.2263 64.4156C51.9792 65.9836 46.1415 69.7535 41.7097 75.7151C40.786 76.9559 39.9404 77.2286 39.0948 76.5537C38.3307 75.9469 38.385 75.0982 39.2782 73.8779C39.7298 73.2575 40.1883 72.6406 40.7181 71.9214C37.6345 71.9214 34.7547 71.9214 31.8749 71.9214C30.2244 71.9214 28.5706 71.9452 26.9201 71.9043C26.0405 71.8839 25.4734 71.359 25.4361 70.4727C25.3987 69.5217 25.9624 68.99 26.8895 68.8707C27.2224 68.8298 27.5653 68.857 27.9049 68.857C32.8597 68.857 37.8145 68.8434 42.7692 68.8707C43.4892 68.8741 44.0224 68.6798 44.5827 68.2128C50.3865 63.3726 57.0902 60.9014 64.6259 60.7616C65.6515 60.7412 65.8383 60.448 65.8383 59.4936C65.8111 41.5133 65.8179 23.533 65.8179 5.55262V4.40733C60.7579 6.68086 55.9797 6.51384 51.3645 3.69493C50.811 3.35748 50.4952 3.71539 50.1148 3.93013C45.16 6.68768 40.2019 6.70472 35.2743 3.90627C34.6766 3.56541 34.286 3.55859 33.6883 3.89604C28.7607 6.68768 23.789 6.70472 18.8512 3.93694C18.206 3.57563 17.7917 3.54496 17.1532 3.92672C14.5009 5.51853 11.6109 6.12526 8.52057 5.92416C6.6222 5.79804 4.87326 5.147 3.08017 4.44483V112.94V112.94Z" fill="#003F62"/>
<path d="M81.8303 92.8303C81.8303 97.8443 81.8337 102.858 81.8303 107.872C81.8269 111.414 79.7622 113.493 76.2405 113.493C68.7048 113.497 61.1691 113.497 53.6333 113.493C50.1049 113.493 48.0367 111.421 48.0367 107.883C48.0333 97.7694 48.0333 87.6561 48.0367 77.5393C48.0367 73.9944 50.1015 71.922 53.6231 71.9186C61.1589 71.9152 68.6946 71.9152 76.2303 71.9186C79.7588 71.9186 81.8269 73.991 81.8303 77.5291C81.8371 82.6284 81.8303 87.7276 81.8303 92.8269V92.8303ZM56.1668 92.7826C56.1668 98.3931 56.1905 104.004 56.143 109.611C56.1362 110.521 56.3841 110.715 57.2569 110.708C63.5666 110.667 69.873 110.688 76.1828 110.685C78.2883 110.685 79.0286 109.952 79.032 107.876C79.032 97.8478 79.032 87.8163 79.032 77.7882C79.032 75.7805 78.2544 74.9863 76.2881 74.9863C69.9375 74.9795 63.587 75.0068 57.2365 74.959C56.3264 74.9522 56.1396 75.2079 56.1464 76.0805C56.1871 81.6467 56.1668 87.2164 56.1668 92.7826V92.7826ZM53.1137 92.8337C53.1137 87.3527 53.1205 81.8751 53.0968 76.3941C53.0968 75.9475 53.4126 75.2079 52.8387 75.0886C52.2919 74.9761 51.7621 75.5078 51.4327 76.0293C51.1814 76.4281 51.0761 76.8747 51.0761 77.3621C51.0829 87.6833 51.0829 98.008 51.0761 108.329C51.0761 109.106 51.3342 109.74 51.9455 110.214C52.2444 110.443 52.6043 110.753 52.9609 110.582C53.2903 110.422 53.1002 109.972 53.1002 109.659C53.1104 104.051 53.107 98.4443 53.107 92.8371L53.1137 92.8337Z" fill="#003F62"/>
<path d="M11.859 87.1784C11.8692 88.9542 13.0578 90.1541 14.9901 90.3415C18.3352 90.6688 20.5901 92.5401 21.1233 95.4272C21.6836 98.4642 20.22 101.273 17.3673 102.422C16.6915 102.694 16.4844 102.987 16.5013 103.693C16.5319 105.033 15.9444 105.738 14.963 105.714C13.9985 105.694 13.4755 105.009 13.4857 103.625C13.4891 102.984 13.3125 102.705 12.6774 102.445C10.4802 101.546 9.1456 99.8924 8.83657 97.4894C8.65318 96.0748 9.10825 95.2124 10.1203 95.1477C11.4005 95.0659 11.7368 95.935 11.8998 97.0019C12.1646 98.7267 13.3465 99.7833 14.963 99.8174C16.5659 99.8515 17.8835 98.7574 18.1858 97.1485C18.4914 95.5294 17.4149 93.9137 15.7271 93.5456C15.0275 93.3922 14.2905 93.4161 13.5944 93.2593C10.9047 92.6423 9.01316 90.3722 8.78902 87.5533C8.57507 84.8776 10.0523 82.4302 12.5722 81.3838C13.1665 81.1383 13.5332 80.9543 13.4959 80.1669C13.4348 78.9227 14.0698 78.2274 15.0411 78.3058C16.1448 78.3944 16.5998 79.117 16.4979 80.143C16.4232 80.8895 16.756 81.1247 17.3843 81.3838C19.7004 82.3382 20.9467 84.1447 21.2388 86.6228C21.3746 87.768 20.8007 88.6679 19.8702 88.6884C18.7936 88.7122 18.3522 88.0646 18.2061 87.0148C17.9379 85.0412 16.5217 83.8209 14.8135 83.9538C13.1257 84.0834 11.842 85.4843 11.8522 87.1784H11.859Z" fill="#003F62"/>
<path d="M34.4285 17.8549C26.5973 17.8549 18.7662 17.8549 10.935 17.8549C10.5546 17.8549 10.1641 17.8924 9.79392 17.8242C8.98228 17.6777 8.50684 17.1391 8.50684 16.3279C8.50684 15.5166 8.97548 14.9781 9.78713 14.8213C10.1131 14.7565 10.4629 14.794 10.7991 14.794C26.5871 14.794 42.3752 14.794 58.1632 14.794C58.5028 14.794 58.8526 14.7565 59.1752 14.8315C59.9732 15.019 60.4317 15.5712 60.4045 16.3824C60.3808 17.1323 59.9291 17.6504 59.182 17.814C58.8152 17.8924 58.4247 17.8549 58.0443 17.8549C50.1724 17.8549 42.2971 17.8549 34.4251 17.8549H34.4285Z" fill="#003F62"/>
<path d="M34.4285 22.6984C42.3005 22.6984 50.1758 22.6984 58.0477 22.6984C58.4281 22.6984 58.822 22.6609 59.1854 22.7393C59.9325 22.8995 60.3808 23.421 60.408 24.1709C60.4351 24.9822 59.9733 25.5344 59.1786 25.7218C58.856 25.7968 58.5062 25.7627 58.1666 25.7627C42.3344 25.7627 26.5057 25.7627 10.6735 25.7627C10.3373 25.7627 9.98412 25.7934 9.66489 25.7082C8.93136 25.5105 8.50346 24.9856 8.50686 24.2255C8.50686 23.4688 8.93815 22.937 9.67508 22.753C10.0351 22.6609 10.4324 22.7018 10.8127 22.7018C18.6847 22.7018 26.56 22.7018 34.4319 22.7018L34.4285 22.6984Z" fill="#003F62"/>
<path d="M34.4285 33.4116C26.5973 33.4116 18.7662 33.4116 10.935 33.4116C10.5139 33.4116 10.0724 33.4525 9.67166 33.3571C8.93473 33.1798 8.50684 32.6413 8.50684 31.8846C8.50684 31.1279 8.93134 30.5995 9.66827 30.4052C9.98749 30.32 10.3407 30.3541 10.6769 30.3541C26.509 30.3541 42.3378 30.3541 58.17 30.3541C58.5096 30.3541 58.8594 30.3166 59.182 30.3916C59.98 30.5791 60.4385 31.1313 60.4113 31.9425C60.3876 32.6924 59.9325 33.2105 59.1888 33.3707C58.822 33.4491 58.4315 33.4116 58.0511 33.4116C50.1792 33.4116 42.3038 33.4116 34.4319 33.4116H34.4285Z" fill="#003F62"/>
<path d="M42.9015 44.1248C37.6988 44.1248 32.4961 44.118 27.2934 44.1316C26.4444 44.1316 25.7822 43.8828 25.4901 43.0443C25.2728 42.4239 25.4766 41.8649 25.9554 41.432C26.441 40.9923 27.0523 41.0605 27.6432 41.0605C37.3728 41.0605 47.0989 41.0605 56.8285 41.0605C57.3786 41.0605 57.9288 41.0536 58.4789 41.0605C59.6981 41.0809 60.418 41.6399 60.4316 42.5739C60.4452 43.5078 59.7185 44.118 58.5129 44.118C53.9011 44.1282 49.2927 44.1214 44.681 44.1214C44.0901 44.1214 43.4957 44.1214 42.9048 44.1214L42.9015 44.1248Z" fill="#003F62"/>
<path d="M42.8095 56.6205C37.7767 56.6205 32.7438 56.6205 27.7109 56.6205C27.3306 56.6205 26.9332 56.6614 26.5766 56.5626C25.8601 56.3615 25.422 55.8604 25.4288 55.0798C25.4356 54.2993 25.8771 53.805 26.6004 53.6141C26.9604 53.5187 27.3577 53.563 27.7347 53.563C37.8446 53.563 47.9511 53.563 58.061 53.563C58.2715 53.563 58.4855 53.563 58.696 53.563C59.7012 53.5528 60.3091 54.0538 60.4178 55.0423C60.5129 55.932 59.7624 56.6103 58.6756 56.6171C55.6736 56.6376 52.6681 56.6239 49.6661 56.6239C47.3805 56.6239 45.0984 56.6239 42.8129 56.6239L42.8095 56.6205Z" fill="#003F62"/>
<path d="M18.7022 44.1177C17.9449 44.1177 17.1842 44.162 16.4303 44.1041C15.5643 44.0393 15.0209 43.5348 15.0005 42.6384C14.9802 41.6806 15.5303 41.1147 16.4608 41.0807C17.9754 41.0261 19.4935 41.0295 21.0047 41.0807C21.8775 41.1113 22.4106 41.6499 22.4276 42.5429C22.448 43.4973 21.9046 44.0427 20.9707 44.1075C20.2168 44.1586 19.4561 44.1177 18.6988 44.1177H18.7022Z" fill="#003F62"/>
<path d="M18.6445 56.617C17.9279 56.617 17.2114 56.6511 16.4982 56.6068C15.5677 56.5489 14.9972 56.0376 15.004 55.0763C15.0108 54.1151 15.5915 53.5936 16.522 53.5697C17.9924 53.5288 19.4697 53.5288 20.9402 53.5697C21.8741 53.597 22.4378 54.139 22.431 55.0968C22.4242 56.0546 21.8503 56.5625 20.9164 56.6068C20.1591 56.6443 19.4018 56.6136 18.6445 56.6136V56.617Z" fill="#003F62"/>
<path d="M18.7701 71.9214C18.0128 71.9214 17.2521 71.9555 16.4982 71.9112C15.5677 71.8567 14.9972 71.342 15.004 70.3807C15.0108 69.4195 15.5949 68.9014 16.522 68.8741C17.9924 68.8366 19.4697 68.8332 20.9402 68.8741C21.8741 68.9014 22.4378 69.4434 22.431 70.4012C22.4242 71.359 21.8503 71.8635 20.9164 71.9112C20.2032 71.9487 19.4867 71.918 18.7701 71.918V71.9214Z" fill="#003F62"/>
<path d="M10.4466 44.1214C9.29192 44.1588 8.60932 43.7055 8.50065 42.642C8.40896 41.7422 9.16966 41.0877 10.2224 41.0604C11.3669 41.0332 12.1344 41.6535 12.1276 42.6011C12.1208 43.4976 11.3906 44.1145 10.4466 44.1214Z" fill="#003F62"/>
<path d="M10.2834 53.5562C11.3225 53.5153 12.0017 53.9755 12.1172 55.0321C12.2191 55.9661 11.3973 56.6308 10.2698 56.6205C9.20684 56.6103 8.48349 55.9865 8.49028 55.0833C8.49368 54.18 9.21703 53.5664 10.2834 53.5562V53.5562Z" fill="#003F62"/>
<path d="M10.2462 71.9256C9.1866 71.9052 8.4225 71.2678 8.50061 70.3645C8.59569 69.301 9.26131 68.8545 10.3039 68.8545C11.3499 68.8545 12.0155 69.3044 12.114 70.3611C12.2022 71.2985 11.3804 71.9461 10.2428 71.9256H10.2462Z" fill="#003F62"/>
<path d="M64.1031 88.757C65.543 88.757 66.9795 88.757 68.4194 88.757C69.4654 88.757 70.1616 89.2171 70.1446 90.3283C70.1276 91.3714 69.4484 91.8145 68.4636 91.8145C65.4581 91.8213 62.4527 91.8145 59.4506 91.8145C58.442 91.8145 57.7798 91.293 57.7764 90.3045C57.773 89.241 58.4726 88.7399 59.5355 88.7502C61.0603 88.7604 62.5817 88.7502 64.1065 88.7502L64.1031 88.757Z" fill="#003F62"/>
<path d="M70.2496 86.9711C68.8165 86.9711 67.38 86.9711 65.9469 86.9711C64.8975 86.9711 64.2115 86.4973 64.2319 85.3963C64.2523 84.3669 64.9145 83.9102 65.9061 83.9102C68.735 83.9102 71.5605 83.9102 74.3893 83.9102C75.4523 83.9102 76.1349 84.4249 76.1179 85.4849C76.1009 86.4768 75.4319 86.9745 74.4301 86.9745C73.0377 86.9745 71.6454 86.9745 70.253 86.9745L70.2496 86.9711Z" fill="#003F62"/>
<path d="M60.4282 86.9609C60.0071 86.9609 59.5825 86.9984 59.1682 86.9541C58.2921 86.8552 57.7725 86.3064 57.7657 85.4509C57.7589 84.5953 58.2683 84.0193 59.1479 83.9341C59.8135 83.8693 60.4927 83.9102 61.1617 83.9102C62.2145 83.9102 62.8835 84.4147 62.8597 85.4918C62.8359 86.5007 62.1737 86.9677 61.1821 86.9711C60.9308 86.9711 60.6795 86.9711 60.4248 86.9711C60.4248 86.9677 60.4248 86.9643 60.4248 86.9609H60.4282Z" fill="#003F62"/>
<path d="M73.8424 91.8108C73.0884 91.8279 72.3855 91.9063 71.8829 91.3097C71.3089 90.628 71.3089 89.9122 71.8964 89.2476C72.5281 88.5317 75.0208 88.5079 75.6796 89.2135C76.2841 89.8611 76.3079 90.5803 75.7543 91.2757C75.2313 91.9335 74.4774 91.8244 73.8424 91.8108V91.8108Z" fill="#003F62"/>
</svg>
