<svg width="107" height="123" viewBox="0 0 107 123" fill="none" xmlns="http://www.w3.org/2000/svg">
<path d="M53.4954 103.688C27.5301 108.753 5.96057 91.446 1.69712 70.2388C-0.751807 58.067 1.53088 46.7683 8.74932 36.6138L8.95309 36.7586L8.74934 36.6137C15.9238 26.5232 25.8513 20.6918 38.0866 18.6664V13.3555C37.8755 13.3562 37.6633 13.3576 37.4503 13.3591C36.8502 13.3632 36.2439 13.3673 35.6404 13.355L35.6397 13.3549C34.3942 13.3263 33.3621 12.9307 32.6352 12.2085C31.908 11.486 31.5116 10.4614 31.4903 9.22349C31.4644 7.75604 31.4569 6.28667 31.4941 4.81628L31.4941 4.81604C31.5251 3.63114 31.9401 2.62001 32.6658 1.90293C33.3918 1.18556 34.4104 0.780604 35.6146 0.774796M53.4954 103.688L82.5266 25.0089M53.4954 103.688C54.8656 107.651 56.9449 111.234 59.9622 114.257L59.9623 114.258C63.0362 117.334 66.6348 119.558 70.7817 120.908L70.7817 120.908C74.931 122.257 79.1732 122.609 83.4716 121.879C95.009 119.918 103.945 110.952 105.646 99.6725C106.49 94.0655 105.672 88.6941 103.09 83.6398L103.09 83.6398C99.6182 76.8501 94.1055 72.3953 86.8153 70.0302C88.9977 58.5431 86.9492 47.9035 80.6886 37.9325L53.4954 103.688ZM35.6146 0.774796C35.6146 0.774795 35.6146 0.774795 35.6147 0.774795L35.6159 1.02479M35.6146 0.774796C35.6145 0.774796 35.6145 0.774796 35.6144 0.774796L35.6159 1.02479M35.6146 0.774796C41.3419 0.741735 47.0655 0.741735 52.7929 0.774796L52.793 0.774797C53.9968 0.782504 55.0145 1.18638 55.74 1.90287C56.4653 2.61906 56.8802 3.62923 56.9132 4.81564C56.9541 6.28674 56.9429 7.7566 56.917 9.22349L56.917 9.22374C56.8938 10.4632 56.4975 11.4877 55.7707 12.2099C55.0442 12.9317 54.0129 13.3263 52.7676 13.3549L52.7671 13.355C52.1959 13.3671 51.622 13.3633 51.012 13.3593C50.7718 13.3577 50.526 13.3561 50.2726 13.3554V18.6846C58.5056 19.8985 65.7849 23.1131 72.4674 28.6881C72.7911 28.3287 73.1132 27.9648 73.4362 27.6C74.2676 26.6608 75.1047 25.7152 75.9896 24.822C77.0834 23.7178 78.1888 23.1387 79.3315 23.1447C80.4725 23.1507 81.5872 23.7398 82.7014 24.8303M35.6159 1.02479C33.3209 1.03581 31.8032 2.56374 31.744 4.82259L52.7914 1.02479C47.065 0.991736 41.3423 0.991736 35.6159 1.02479ZM82.7014 24.8303L82.5266 25.0089M82.7014 24.8303C82.7013 24.8302 82.7012 24.8301 82.7011 24.83L82.5266 25.0089M82.7014 24.8303C82.8485 24.9738 82.9961 25.1173 83.1439 25.261C83.8862 25.9827 84.634 26.7098 85.3478 27.4673L85.1658 27.6388C84.4561 26.8856 83.713 26.163 82.9707 25.4413C82.8225 25.2972 82.6744 25.1532 82.5266 25.0089M35.2956 5.39922L35.2956 5.39973C35.3155 5.87099 35.3086 6.34503 35.3019 6.8104C35.3004 6.91765 35.2989 7.02444 35.2977 7.13063C35.2912 7.70183 35.2942 8.26037 35.3536 8.81025L35.3537 8.81071C35.3573 8.84471 35.3786 8.9087 35.4331 8.99661C35.4852 9.08058 35.5574 9.17002 35.6399 9.2521C35.7226 9.33434 35.8099 9.40352 35.8893 9.45069C35.9738 9.50099 36.0261 9.51247 36.0443 9.51268C41.5765 9.57142 47.1123 9.57142 52.6444 9.51268L52.647 9.51265C52.6638 9.51266 52.7144 9.50229 52.7977 9.45247C52.8758 9.40579 52.9619 9.33681 53.0437 9.25432C53.1251 9.17206 53.1966 9.0821 53.2482 8.99736C53.302 8.90887 53.3237 8.84338 53.3275 8.80731L53.3277 8.8054C53.3868 8.28111 53.3854 7.74626 53.3771 7.19586C53.3761 7.13318 53.3751 7.07026 53.3741 7.00713C53.366 6.52083 53.3578 6.02219 53.3896 5.527M35.2956 5.39922L53.6391 5.54248M35.2956 5.39922C35.278 5.00212 35.3512 4.8127 35.4537 4.71308C35.5602 4.60958 35.7632 4.53836 36.1678 4.54367C38.1487 4.57041 40.1325 4.56603 42.113 4.56166C42.8548 4.56002 43.5963 4.55838 44.3369 4.55838C45.0878 4.55838 45.8392 4.56099 46.591 4.5636C48.5144 4.57029 50.4403 4.57698 52.3668 4.53997M35.2956 5.39922L52.362 4.29002M53.3896 5.527C53.3896 5.52682 53.3896 5.52663 53.3896 5.52645L53.6391 5.54248M53.3896 5.527C53.3896 5.5271 53.3896 5.5272 53.3895 5.5273L53.6391 5.54248M53.3896 5.527C53.4179 5.06075 53.3348 4.84143 53.2126 4.72663C53.0828 4.6048 52.8382 4.53098 52.3668 4.53997M53.6391 5.54248C53.6983 4.56916 53.3244 4.27165 52.362 4.29002M52.3668 4.53997L52.362 4.29002M52.3668 4.53997C52.3668 4.53997 52.3668 4.53997 52.3668 4.53997L52.362 4.29002M85.3299 33.4403C85.3299 33.4403 85.33 33.4402 85.33 33.4402L85.151 33.2657L85.3299 33.4403ZM42.0139 100.525C24.7699 100.282 5.94367 85.8801 4.65308 63.6665C5.13487 63.6662 5.61013 63.665 6.08063 63.6638C7.31342 63.6607 8.51357 63.6577 9.71299 63.6703L9.71323 63.6703C10.3034 63.6759 10.8727 63.6001 11.3109 63.319C11.7672 63.0262 12.0396 62.5393 12.0861 61.8241L12.0861 61.8238C12.1257 61.2049 11.9264 60.6977 11.4818 60.3547C11.0518 60.0231 10.4269 59.8722 9.66504 59.8684H9.66485C8.50416 59.8635 7.34123 59.8651 6.17967 59.8667C5.68415 59.8674 5.18888 59.8681 4.69414 59.8683C5.01428 40.9105 20.8455 23.1835 42.0066 22.1958V22.2014V22.209V22.2166V22.2243V22.2319V22.2395V22.2471V22.2548V22.2624V22.27V22.2776V22.2852V22.2929V22.3005V22.3081V22.3157V22.3234V22.331V22.3386V22.3462V22.3538V22.3615V22.3691V22.3767V22.3843V22.392V22.3996V22.4072V22.4148V22.4225V22.4301V22.4377V22.4453V22.4529V22.4606V22.4682V22.4758V22.4834V22.4911V22.4987V22.5063V22.5139V22.5216V22.5292V22.5368V22.5444V22.5521V22.5597V22.5673V22.5749V22.5826V22.5902V22.5978V22.6054V22.6131V22.6207V22.6283V22.6359V22.6436V22.6512V22.6588V22.6664V22.6741V22.6817V22.6893V22.6969V22.7046V22.7122V22.7198V22.7274V22.7351V22.7427V22.7503V22.758V22.7656V22.7732V22.7808V22.7885V22.7961V22.8037V22.8113V22.819V22.8266V22.8342V22.8419V22.8495V22.8571V22.8647V22.8724V22.88V22.8876V22.8952V22.9029V22.9105V22.9181V22.9258V22.9334V22.941V22.9486V22.9563V22.9639V22.9715V22.9792V22.9868V22.9944V23.002V23.0097V23.0173V23.0249V23.0326V23.0402V23.0478V23.0554V23.0631V23.0707V23.0783V23.086V23.0936V23.1012V23.1088V23.1165V23.1241V23.1317V23.1394V23.147V23.1546V23.1623V23.1699V23.1775V23.1851V23.1928V23.2004V23.208V23.2157V23.2233V23.2309V23.2386V23.2462V23.2538V23.2614V23.2691V23.2767V23.2843V23.292V23.2996V23.3072V23.3149V23.3225V23.3301V23.3378V23.3454V23.353V23.3606V23.3683V23.3759V23.3835V23.3912V23.3988V23.4064V23.4141V23.4217V23.4293V23.437V23.4446V23.4522V23.4599V23.4675V23.4751V23.4828V23.4904V23.498V23.5056V23.5133V23.5209V23.5285V23.5362V23.5438V23.5514V23.5591V23.5667V23.5743V23.582V23.5896V23.5972V23.6049V23.6125V23.6201V23.6278V23.6354V23.643V23.6507V23.6583V23.6659V23.6736V23.6812V23.6888V23.6965V23.7041V23.7117V23.7194V23.727V23.7346V23.7423V23.7499V23.7575V23.7652V23.7728V23.7804V23.7881V23.7957V23.8033V23.811V23.8186V23.8262V23.8339V23.8415V23.8491V23.8568V23.8644V23.8721V23.8797V23.8873V23.895V23.9026V23.9102V23.9179V23.9255V23.9331V23.9408V23.9484V23.956V23.9637V23.9713V23.9789V23.9866V23.9942V24.0018V24.0095V24.0171V24.0248V24.0324V24.04V24.0477V24.0553V24.0629V24.0706V24.0782V24.0858V24.0935V24.1011V24.1087V24.1164V24.124V24.1317V24.1393V24.1469V24.1546V24.1622V24.1698V24.1775V24.1851V24.1927V24.2004V24.208V24.2156V24.2233V24.2309V24.2386V24.2462V24.2538V24.2615V24.2691V24.2767V24.2844V24.292V24.2996V24.3073V24.3149V24.3226V24.3302V24.3378V24.3455V24.3531V24.3607V24.3684V24.376V24.3837V24.3913V24.3989V24.4066V24.4142V24.4218V24.4295V24.4371V24.4447V24.4524V24.46V24.4677V24.4753V24.4829V24.4906V24.4982V24.5058V24.5135V24.5211V24.5288V24.5364V24.544V24.5517V24.5593V24.5669V24.5746V24.5822V24.5899V24.5975V24.6051V24.6128V24.6204V24.628V24.6357V24.6433V24.651V24.6586V24.6662V24.6739V24.6815V24.6892V24.6968V24.7044V24.7121V24.7197V24.7273V24.735V24.7426V24.7503V24.7579V24.7655V24.7732V24.7808V24.7885V24.7961V24.8037V24.8114V24.819V24.8266V24.8343V24.8419V24.8496V24.8572V24.8648V24.8725V24.8801V24.8878V24.8954V24.903V24.9107V24.9183V24.9259V24.9336V24.9412V24.9489V24.9565V24.9641V24.9718V24.9794V24.9871V24.9947V25.0023V25.01V25.0176V25.0253V25.0329V25.0405V25.0482V25.0558V25.0634V25.0711V25.0787V25.0864V25.094V25.1016V25.1093V25.1169V25.1246V25.1322V25.1398V25.1475V25.1551V25.1628V25.1704V25.178V25.1857V25.1933V25.201V25.2086V25.2162V25.2239V25.2315V25.2391V25.2468V25.2544V25.2621V25.2697V25.2773V25.285V25.2926V25.3003V25.3079V25.3155V25.3232V25.3308V25.3385V25.3461V25.3537V25.3614V25.369V25.3767V25.3843V25.3919V25.3996V25.4072V25.4149V25.4225V25.4301V25.4378V25.4454V25.4531V25.4607V25.4683V25.476V25.4836V25.4913V25.4989V25.5065V25.5142V25.5218V25.5295V25.5371V25.5447V25.5524V25.56V25.5677V25.5753V25.5829V25.5906V25.5982V25.6059V25.6135V25.6211V25.6288V25.6364V25.6441V25.6517V25.6593V25.667V25.6746V25.6823V25.6899V25.6975V25.7052V25.7128V25.7205V25.7281V25.7357V25.7434V25.751V25.7587V25.7663V25.7739V25.7816V25.7892V25.7969V25.8045V25.8121V25.8198V25.8274V25.8351V25.8427V25.8454V25.8481V25.8508V25.8535V25.8561V25.8588V25.8615V25.8642V25.8669V25.8696V25.8723V25.875V25.8777V25.8803V25.883V25.8857V25.8884V25.8911V25.8938V25.8965V25.8992V25.9019V25.9045V25.9072V25.9099V25.9126V25.9153V25.918V25.9207V25.9234V25.926V25.9287V25.9314V25.9341V25.9368V25.9395V25.9422V25.9449V25.9475V25.9502V25.9529V25.9556V25.9583V25.961V25.9637V25.9664V25.969V25.9717V25.9744V25.9771V25.9798V25.9825V25.9852V25.9878V25.9905V25.9932V25.9959V25.9986V26.0013V26.004V26.0066V26.0093V26.012V26.0147V26.0174V26.0201V26.0228V26.0254V26.0281V26.0308V26.0335V26.0362V26.0389V26.0416V26.0442V26.0469V26.0496V26.0523V26.055V26.0577V26.0603V26.063V26.0657V26.0684V26.0711V26.0738V26.0765V26.0791V26.0818V26.0845V26.0872V26.0899V26.0926V26.0952V26.0979V26.1006V26.1033V26.106V26.1087V26.1113V26.114V26.1167V26.1194V26.1221V26.1248V26.1274V26.1301V26.1328V26.1355V26.1382V26.1409V26.1435V26.1462V26.1489V26.1516V26.1543V26.1569V26.1596V26.1623V26.165V26.1677V26.1704V26.173V26.1757V26.1784V26.1811V26.1838V26.1865V26.1891V26.1918V26.1945V26.1972V26.1999V26.2025V26.2052V26.2079V26.2106V26.2133V26.216V26.2186V26.2213V26.224V26.2267V26.2294V26.232V26.2347V26.2374V26.2401V26.2428V26.2455V26.2481V26.2508V26.2535V26.2562V26.2589V26.2615V26.2642V26.2669V26.2696V26.2723V26.2749V26.2776V26.2803V26.283V26.2857V26.2883V26.291V26.2937V26.2964V26.2991V26.3017V26.3044V26.3071V26.3098V26.3125V26.3152V26.3178V26.3205V26.3232V26.3259V26.3286V26.3312V26.3339V26.3366V26.3393V26.342V26.3446V26.3473V26.35V26.3527V26.3554V26.358V26.3607V26.3634V26.3661V26.3688V26.3714V26.3741V26.3768V26.3795V26.3822V26.3848V26.3875V26.3902V26.3929V26.3956V26.3982V26.4009V26.4036V26.4063V26.409V26.4116V26.4143V26.417V26.4197V26.4223V26.425V26.4277V26.4304V26.4331V26.4357V26.4384V26.4411V26.4438V26.4465V26.4491V26.4518V26.4545V26.4572V26.4599V26.4625V26.4652V26.4679V26.4706V26.4733V26.4759V26.4786V26.4813V26.484V26.4867V26.4893V26.492V26.4947V26.4974V26.5001V26.5027V26.5054V26.5081V26.5108V26.5135V26.5161V26.5188V26.5215V26.5242V26.5268V26.5295V26.5322V26.5349V26.5376V26.5402V26.5429V26.5456V26.5483V26.551V26.5536V26.5563V26.559V26.5617V26.5644V26.567V26.5697V26.5724V26.5751V26.5778V26.5804V26.5831V26.5858V26.5885V26.5912V26.5938V26.5965V26.5992V26.6019V26.6046V26.6072V26.6099V26.6126V26.6153V26.6179V26.6206V26.6233V26.626V26.6287V26.6313V26.634V26.6367V26.6394V26.6421V26.6447V26.6474V26.6501V26.6528V26.6555V26.6581V26.6608V26.6635V26.6662V26.6689V26.6715V26.6742V26.6769V26.6796V26.6823V26.6849V26.6876V26.6903V26.693V26.6957V26.6983V26.701V26.7037V26.7064V26.7091V26.7117V26.7144V26.7171V26.7198V26.7225V26.7251V26.7278V26.7305V26.7332V26.7359V26.7385V26.7412V26.7439V26.7466V26.7493V26.7519V26.7546V26.7573V26.76V26.7627V26.7653V26.768V26.7707V26.7734V26.7761V26.7788V26.7814V26.7841V26.7868V26.7895V26.7922V26.7948V26.7975V26.8002V26.8029V26.8056V26.8082V26.8109V26.8136V26.8163V26.819V26.8216V26.8243V26.827V26.8297V26.8324V26.8351V26.8377V26.8404V26.8431V26.8458V26.8485V26.8511V26.8538V26.8565V26.8592V26.8619V26.8646V26.8672V26.8699V26.8726V26.8753V26.878V26.8806V26.8833V26.886V26.8887V26.8914V26.8941V26.8967V26.8994V26.9021V26.9048V26.9075V26.9102V26.9128V26.9155V26.9182V26.9209V26.9236V26.9263V26.9289V26.9316V26.9343V26.937V26.9397V26.9424V26.945V26.9477V26.9504V26.9531V26.9558V26.9585V26.9611V26.9638V26.9665V26.9692V26.9719V26.9746V26.9772V26.9799V26.9826V26.9853V26.988V26.9907V26.9933V26.996V26.9987V27.0014V27.0041V27.0068V27.0094V27.0121V27.0148V27.0175V27.0202V27.0229V27.0256V27.0282V27.0309V27.0336V27.0363V27.039V27.0417V27.0444V27.047V27.0497V27.0524V27.0551V27.0578V27.0605V27.0632V27.0658V27.0685V27.0712V27.0739V27.0766V27.0793V27.082V27.0846V27.0873V27.09V27.0927V27.0954V27.0981V27.1008V27.1034V27.1061V27.1088V27.1115V27.1142V27.1169V27.1196V27.1223V27.1249V27.1276V27.1303V27.133V27.1357V27.1384V27.1411V27.1438V27.1464V27.1491V27.1518V27.1545V27.1572V27.1599V27.1626V27.1653V27.168V27.1706V27.1733V27.176V27.1787V27.1814V27.1841V27.1868V27.1895V27.1922V27.1948V27.1975V27.2002V27.2029V27.2056V27.2083V27.211V27.2137L42.0066 27.2164L42.0066 27.2175C42.0104 28.0462 42.1411 28.6986 42.4509 29.1517C42.7736 29.6237 43.2631 29.8415 43.8803 29.8537L43.8805 29.8537C44.5214 29.866 45.0332 29.6497 45.3704 29.1614C45.6937 28.6932 45.8306 28.0104 45.8306 27.1429V27.133V27.1231V27.1132V27.1033V27.0934V27.0835V27.0736V27.0637V27.0538V27.0439V27.034V27.0241V27.0142V27.0043V26.9944V26.9845V26.9746V26.9647V26.9548V26.9449V26.935V26.9251V26.9152V26.9053V26.8954V26.8855V26.8756V26.8657V26.8558V26.8459V26.836V26.8261V26.8162V26.8063V26.7964V26.7865V26.7766V26.7667V26.7568V26.7469V26.737V26.7271V26.7172V26.7073V26.6974V26.6875V26.6776V26.6677V26.6578V26.6479V26.638V26.6281V26.6182V26.6083V26.5984V26.5885V26.5786V26.5687V26.5588V26.5489V26.539V26.5291V26.5192V26.5093V26.4994V26.4895V26.4796V26.4697V26.4598V26.4499V26.44V26.4301V26.4202V26.4103V26.4004V26.3905V26.3806V26.3707V26.3608V26.3509V26.341V26.3312V26.3213V26.3114V26.3015V26.2916V26.2817V26.2718V26.2619V26.252V26.2421V26.2322V26.2223V26.2124V26.2025V26.1926V26.1827V26.1728V26.1629V26.153V26.1431V26.1332V26.1233V26.1134V26.1035V26.0936V26.0837V26.0738V26.0639V26.054V26.0441V26.0342V26.0243V26.0144V26.0045V25.9946V25.9847V25.9748V25.9649V25.955V25.9451V25.9352V25.9253V25.9154V25.9055V25.8956V25.8857V25.8758V25.8659V25.856V25.8461V25.8362V25.8263V25.8164V25.8065V25.7966V25.7867V25.7768V25.7669V25.757V25.7471V25.7372V25.7273V25.7174V25.7075V25.6976V25.6877V25.6778V25.6679V25.6581V25.6482V25.6383V25.6284V25.6185V25.6086V25.5987V25.5888V25.5789V25.569V25.5591V25.5492V25.5393V25.5294V25.5195V25.5096V25.4997V25.4898V25.4799V25.47V25.4601V25.4502V25.4403V25.4304V25.4205V25.4106V25.4007V25.3908V25.3809V25.371V25.3611V25.3512V25.3413V25.3314V25.3215V25.3116V25.3017V25.2918V25.282V25.2721V25.2622V25.2523V25.2424V25.2325V25.2226V25.2127V25.2028V25.1929V25.183V25.1731V25.1632V25.1533V25.1434V25.1335V25.1236V25.1137V25.1038V25.0939V25.084V25.0741V25.0642V25.0543V25.0444V25.0345V25.0246V25.0148V25.0049V24.995V24.9851V24.9752V24.9653V24.9554V24.9455V24.9356V24.9257V24.9158V24.9059V24.896V24.8861V24.8762V24.8663V24.8564V24.8465V24.8366V24.8267V24.8168V24.8069V24.7971V24.7872V24.7773V24.7674V24.7575V24.7476V24.7377V24.7278V24.7179V24.708V24.6981V24.6882V24.6783V24.6684V24.6585V24.6486V24.6387V24.6288V24.6189V24.6091V24.5992V24.5893V24.5794V24.5695V24.5596V24.5497V24.5398V24.5299V24.52V24.5101V24.5002V24.4903V24.4804V24.4705V24.4606V24.4507V24.4409V24.431V24.4211V24.4112V24.4013V24.3914V24.3815V24.3716V24.3617V24.3518V24.3419V24.332V24.3221V24.3122V24.3024V24.2925V24.2826V24.2727V24.2628V24.2529V24.243V24.2331V24.2232V24.2133V24.2034V24.1935V24.1836V24.1737V24.1639V24.154V24.1441V24.1342V24.1243V24.1144V24.1045V24.0946V24.0847V24.0748V24.0649V24.055V24.0452V24.0353V24.0254V24.0155V24.0056V23.9957V23.9858V23.9759V23.966V23.9561V23.9462V23.9363V23.9265V23.9166V23.9067V23.8968V23.8869V23.877V23.8671V23.8572V23.8473V23.8374V23.8275V23.8177V23.8078V23.7979V23.788V23.7781V23.7682V23.7583V23.7484V23.7385V23.7286V23.7188V23.7089V23.699V23.6891V23.6792V23.6693V23.6594V23.6495V23.6396V23.6297V23.6199V23.61V23.6001V23.5902V23.5803V23.5704V23.5605V23.5506V23.5407V23.5309V23.521V23.5111V23.5012V23.4913V23.4814V23.4715V23.4616V23.4518V23.4419V23.432V23.4221V23.4122V23.4023V23.3924V23.3825V23.3726V23.3628V23.3529V23.343V23.3331V23.3232V23.3133V23.3034V23.2935V23.2837V23.2738V23.2639V23.254V23.2441V23.2342V23.2243V23.2145V23.2046V23.1947V23.1848V23.1749V23.165V23.1551V23.1452V23.1354V23.1255V23.1156V23.1057V23.0958V23.0859V23.076V23.0662V23.0563V23.0464V23.0365V23.0266V23.0167V23.0068V22.997V22.9871V22.9772V22.9673V22.9574V22.9475V22.9377V22.9278V22.9179V22.908V22.8981V22.8882V22.8783V22.8685V22.8586V22.8487V22.8388V22.8289V22.819V22.8092V22.7993V22.7894V22.7795V22.7696V22.7597V22.7499V22.74V22.7301V22.7202V22.7103V22.7004V22.6906V22.6807V22.6708V22.6609V22.651V22.6411V22.6313V22.6214V22.6115V22.6016V22.5917V22.5818V22.572V22.5621V22.5522V22.5423V22.5324V22.5226V22.5127V22.5028V22.4929V22.483V22.4731V22.4633V22.4534V22.4435V22.4336V22.4237V22.4139V22.404V22.3941V22.3842V22.3743V22.3645V22.3546V22.3447V22.3348V22.3249V22.3224C63.1154 22.0071 83.0532 37.3752 83.7282 59.8683C83.1745 59.868 82.6201 59.867 82.0653 59.8659C80.7823 59.8635 79.4971 59.861 78.2127 59.8684C77.4451 59.8722 76.828 60.017 76.3993 60.342C75.9568 60.6773 75.7539 61.1741 75.758 61.7839L75.758 61.7847C75.7642 62.3918 75.9706 62.8811 76.4178 63.2088C76.8498 63.5253 77.4699 63.6629 78.2463 63.6666L78.2465 63.6666C79.4887 63.6715 80.7313 63.6699 82.0326 63.6683C82.616 63.6676 83.2112 63.6669 83.8234 63.6667C83.6982 64.6533 83.5775 65.6117 83.4566 66.572C83.3471 67.4416 83.2374 68.3127 83.1239 69.2079C74.2057 68.2203 66.398 70.554 60.0696 76.8885C53.7303 83.2338 51.4441 91.0039 52.5561 99.9541C50.3214 100.23 48.1608 100.497 45.8344 100.785C45.8347 100.205 45.8358 99.6406 45.8369 99.0858C45.8393 97.8353 45.8417 96.6358 45.8343 95.4356C45.8305 94.686 45.671 94.0674 45.3422 93.6307C45.0053 93.1834 44.5119 92.9556 43.914 92.9577C43.3179 92.9597 42.8291 93.1901 42.4969 93.6399C42.173 94.0785 42.0178 94.6985 42.014 95.4505V95.4508C42.0091 96.6343 42.0107 97.82 42.0123 99.0044C42.0131 99.5116 42.0138 100.019 42.0139 100.525ZM84.1071 63.4166C84.0228 63.4166 83.9388 63.4166 83.8551 63.4167L84.0754 63.6666C84.0859 63.5835 84.0965 63.5002 84.1071 63.4166ZM82.4982 30.8374L82.4979 30.8377C81.5108 31.9126 80.4739 32.9413 79.4207 33.9862C79.1229 34.2816 78.8238 34.5783 78.5242 34.8778C77.4525 33.6772 76.4508 32.5503 75.3858 31.3524L75.0766 31.0047C75.3697 30.7191 75.6601 30.4332 75.9497 30.1481C76.9146 29.198 77.8695 28.2579 78.8784 27.3752C78.8918 27.3635 78.9374 27.3377 79.0327 27.3196C79.1223 27.3026 79.2328 27.2968 79.3498 27.3038C79.4664 27.3109 79.582 27.3303 79.6811 27.3593C79.783 27.3891 79.8517 27.4244 79.8882 27.4539C80.7963 28.1994 81.6333 29.0478 82.3952 29.9455L82.3957 29.9461C82.4222 29.9772 82.4561 30.0385 82.4861 30.1321C82.515 30.2224 82.5354 30.3281 82.5444 30.4343C82.5535 30.5411 82.5503 30.6404 82.5367 30.7189C82.53 30.7579 82.5213 30.7879 82.5127 30.8093C82.5044 30.83 82.4981 30.8374 82.4982 30.8374ZM79.2286 72.7424C91.8273 72.7279 102.132 83.0392 102.136 95.6612C102.139 108.119 91.7627 118.426 79.2025 118.426C66.4808 118.429 56.0915 108.213 56.0915 95.7089C56.0879 82.9495 66.3534 72.7533 79.2286 72.7424ZM42.0661 13.4468H46.3782V18.2689H42.0661V13.4468Z" fill="#003F62" stroke="#003F62" stroke-width="0.5"/>
<path d="M59.4659 60.1437V60.1437C60.0514 60.1516 60.5689 60.3019 60.9442 60.6259C61.3253 60.955 61.528 61.4358 61.5301 62.0346L61.5301 62.0355C61.5301 62.6337 61.33 63.1188 60.9514 63.4514C60.5778 63.7797 60.0609 63.9326 59.4748 63.9346C57.7582 63.9425 56.0431 63.941 54.3279 63.9395C53.6421 63.9389 52.9563 63.9383 52.2703 63.9383C51.4391 63.9383 50.6081 63.9391 49.777 63.9399C48.1146 63.9416 46.4522 63.9432 44.7886 63.9383H44.7883C43.9242 63.9346 43.2731 63.8055 42.8496 63.3926C42.4241 62.9776 42.2906 62.3375 42.2888 61.4888L42.2888 61.4885C42.2814 54.9836 42.2814 48.4787 42.2888 41.9737C42.2888 41.2299 42.4596 40.6012 42.8023 40.1661C43.1537 39.7198 43.667 39.5026 44.2768 39.5618L44.277 39.5619C44.9736 39.6302 45.4539 39.9089 45.748 40.3607C46.0323 40.7975 46.1184 41.3604 46.1165 41.9528M59.4659 60.1437L45.8665 41.952M59.4659 60.1437H59.4626H59.4601H59.4577H59.4553H59.4529H59.4504H59.448H59.4456H59.4431H59.4407H59.4383H59.4359H59.4334H59.431H59.4286H59.4261H59.4237H59.4213H59.4188H59.4164H59.414H59.4115H59.4091H59.4067H59.4043H59.4018H59.3994H59.397H59.3945H59.3921H59.3897H59.3872H59.3848H59.3824H59.3799H59.3775H59.3751H59.3726H59.3702H59.3678H59.3653H59.3629H59.3605H59.358H59.3556H59.3532H59.3507H59.3483H59.3459H59.3435H59.341H59.3386H59.3362H59.3337H59.3313H59.3289H59.3264H59.324H59.3216H59.3191H59.3167H59.3143H59.3118H59.3094H59.3069H59.3045H59.3021H59.2996H59.2972H59.2948H59.2923H59.2899H59.2875H59.285H59.2826H59.2802H59.2777H59.2753H59.2729H59.2704H59.268H59.2656H59.2631H59.2607H59.2583H59.2558H59.2534H59.251H59.2485H59.2461H59.2436H59.2412H59.2388H59.2363H59.2339H59.2315H59.229H59.2266H59.2242H59.2217H59.2193H59.2169H59.2144H59.212H59.2095H59.2071H59.2047H59.2022H59.1998H59.1974H59.1949H59.1925H59.1901H59.1876H59.1852H59.1827H59.1803H59.1779H59.1754H59.173H59.1706H59.1681H59.1657H59.1632H59.1608H59.1584H59.1559H59.1535H59.1511H59.1486H59.1462H59.1437H59.1413H59.1389H59.1364H59.134H59.1316H59.1291H59.1267H59.1242H59.1218H59.1194H59.1169H59.1145H59.1121H59.1096H59.1072H59.1047H59.1023H59.0999H59.0974H59.095H59.0926H59.0901H59.0877H59.0852H59.0828H59.0804H59.0779H59.0755H59.073H59.0706H59.0682H59.0657H59.0633H59.0609H59.0584H59.056H59.0535H59.0511H59.0487H59.0462H59.0438H59.0413H59.0389H59.0365H59.034H59.0316H59.0292H59.0267H59.0243H59.0218H59.0194H59.017H59.0145H59.0121H59.0096H59.0072H59.0048H59.0023H58.9999H58.9974H58.995H58.9926H58.9901H58.9877H58.9852H58.9828H58.9804H58.9779H58.9755H58.973H58.9706H58.9682H58.9657H58.9633H58.9608H58.9584H58.956H58.9535H58.9511H58.9487H58.9462H58.9438H58.9413H58.9389H58.9365H58.934H58.9316H58.9291H58.9267H58.9243H58.9218H58.9194H58.9169H58.9145H58.9121H58.9096H58.9072H58.9047H58.9023H58.8999H58.8974H58.895H58.8925H58.8901H58.8877H58.8852H58.8828H58.8803H58.8779H58.8755H58.873H58.8706H58.8681H58.8657H58.8633H58.8608H58.8584H58.8559H58.8535H58.8511H58.8486H58.8462H58.8437H58.8413H58.8389H58.8364H58.834H58.8315H58.8291H58.8267H58.8242H58.8218H58.8193H58.8169H58.8145H58.812H58.8096H58.8071H58.8047H58.8023H58.7998H58.7974H58.7949H58.7925H58.7901H58.7876H58.7852H58.7827H58.7803H58.7779H58.7754H58.773H58.7705H58.7681H58.7657H58.7632H58.7608H58.7583H58.7559H58.7535H58.751H58.7486H58.7461H58.7437H58.7413H58.7388H58.7364H58.7339H58.7315H58.7291H58.7266H58.7242H58.7217H58.7193H58.7169H58.7144H58.712H58.7095H58.7071H58.7047H58.7022H58.6998H58.6973H58.6949H58.6925H58.69H58.6876H58.6851H58.6827H58.6803H58.6778H58.6754H58.6729H58.6705H58.6681H58.6656H58.6632H58.6608H58.6583H58.6559H58.6534H58.651H58.6486H58.6461H58.6437H58.6412H58.6388H58.6364H58.6339H58.6315H58.629H58.6266H58.6242H58.6217H58.6193H58.6169H58.6144H58.612H58.6095H58.6071H58.6047H58.6022H58.5998H58.5973H58.5949H58.5925H58.59H58.5876H58.5852H58.5827H58.5803H58.5778H58.5754H58.573H58.5705H58.5681H58.5656H58.5632H58.5608H58.5583H58.5559H58.5535H58.551H58.5486H58.5461H58.5437H58.5413H58.5388H58.5364H58.534H58.5315H58.5291H58.5266H58.5242H58.5218H58.5193H58.5169H58.5145H58.512H58.5096H58.5071H58.5047H58.5023H58.4998H58.4974H58.495H58.4925H58.4901H58.4877H58.4852H58.4828H58.4803H58.4779H58.4755H58.473H58.4706H58.4682H58.4657H58.4633H58.4609H58.4584H58.456H58.4535H58.4511H58.4487H58.4462H58.4438H58.4414H58.4389H58.4365H58.4341H58.4316H58.4292H58.4268H58.4243H58.4219H58.4194H58.417H58.4146H58.4121H58.4097H58.4073H58.4048H58.4024H58.4H58.3975H58.3951H58.3927H58.3902H58.3878H58.3854H58.3829H58.3805H58.3781H58.3756H58.3732H58.3708H58.3683H58.3659H58.3635H58.361H58.3586H58.3562H58.3537H58.3513H58.3489H58.3464H58.344H58.3416H58.3391H58.3367H58.3343H58.3318H58.3294H58.327H58.3245H58.3221H58.3197H58.3172H58.3148H58.3124H58.3099H58.3075H58.3051H58.3026H58.3002H58.2978H58.2953H58.2929H58.2905H58.288H58.2856H58.2832H58.2807H58.2783H58.2759H58.2735H58.271H58.2686H58.2662H58.2637H58.2613H58.2589H58.2564H58.254H58.2516H58.2491H58.2467H58.2443H58.2419H58.2394H58.237H58.2346H58.2321H58.2297H58.2273H58.2248H58.2224H58.22H58.2176H58.2151H58.1914H58.1676H58.1439H58.1201H58.0964H58.0726H58.0489H58.0251H58.0014H57.9776H57.9539H57.9301H57.9064H57.8826H57.8589H57.8351H57.8114H57.7876H57.7639H57.7401H57.7164H57.6926H57.6688H57.6451H57.6213H57.5976H57.5738H57.5501H57.5263H57.5026H57.4788H57.4551H57.4313H57.4075H57.3838H57.36H57.3363H57.3125H57.2887H57.265H57.2412H57.2175H57.1937H57.1699H57.1462H57.1224H57.0987H57.0749H57.0511H57.0274H57.0036H56.9798H56.9561H56.9323H56.9085H56.8848H56.861H56.8372H56.8135H56.7897H56.7659H56.7422H56.7184H56.6946H56.6709H56.6471H56.6233H56.5995H56.5758H56.552H56.5282H56.5044H56.4807H56.4569H56.4331H56.4093H56.3855H56.3618H56.338H56.3142H56.2904H56.2666H56.2428H56.2191H56.1953H56.1715H56.1477H56.1239H56.1001H56.0763H56.0525H56.0288H56.005H55.9812H55.9574H55.9336H55.9098H55.886H55.8622H55.8384H55.8146H55.7908H55.767H55.7432H55.7194H55.6956H55.6718H55.648H55.6242H55.6004H55.5765H55.5527H55.5289H55.5051H55.4813H55.4575H55.4337H55.4099H55.386H55.3622H55.3384H55.3146H55.2908H55.2669H55.2431H55.2193H55.1955H55.1716H55.1478H55.124H55.1002H55.0763H55.0525H55.0287H55.0048H54.981H54.9572H54.9333H54.9095H54.8856H54.8618H54.838H54.8141H54.7903H54.7664H54.7426H54.7187H54.6949H54.671H54.6472H54.6233H54.5995H54.5756H54.5517H54.5279H54.504H54.4802H54.4563H54.4324H54.4086H54.3847H54.3608H54.337H54.3131H54.2892H54.2653H54.2415H54.2176H54.1937H54.1698H54.1459H54.1221H54.0982H54.0743H54.0504H54.0265H54.0026H53.9787H53.9548H53.9309H53.907H53.8831H53.8592H53.8353H53.8114H53.7875H53.7636H53.7397H53.7158H53.6919H53.668H53.6441H53.6202H53.5962H53.5723H53.5484H53.5245H53.5005H53.4766H53.4527H53.4288H53.4048H53.3809H53.357H53.333H53.3091H53.2851H53.2612H53.2373H53.2133H53.1894H53.1654H53.1415H53.1175H53.0936H53.0696H53.0456H53.0217H52.9977H52.9738H52.9498H52.9258H52.9019H52.8779H52.8539H52.8299H52.806H52.782H52.758H52.734H52.71H52.6861H52.6621H52.6381H52.6141H52.5901H52.5661H52.5421H52.5181H52.4941H52.4701H52.4461H52.4221H52.3981H52.374H52.35H52.326H52.302H52.278H52.2539H52.2299H52.2059H52.1819H52.1578H52.1338H52.1098H52.0857H52.0617H52.0376H52.0136H51.9896H51.9655H51.9415H51.9174H51.8933H51.8693H51.8452H51.8212H51.7971H51.773H51.749H51.7249H51.7008H51.6767H51.6527H51.6286H51.6045H51.5804H51.5563H51.5322H51.5081H51.484H51.46H51.4359H51.4117H51.3876H51.3635H51.3394H51.3153H51.2912H51.2671H51.243H51.2188H51.1947H51.1706H51.1465H51.1223H51.0982H51.0741H51.0499H51.0258H51.0016H50.9775H50.9533H50.9292H50.905H50.8809H50.8567H50.8326H50.8084H50.7842H50.7601H50.7359H50.7117H50.6875H50.6634H50.6392H50.615H50.5908H50.5666H50.5424H50.5182H50.494H50.4698H50.4456H50.4214H50.3972H50.373H50.3488H50.3246H50.3003H50.2761H50.2519H50.2277H50.2034H50.1792H50.155H50.1307H50.1065H50.0822H50.058H50.0337H50.0095H49.9852H49.961H49.9367H49.9124H49.8882H49.8639H49.8396H49.8153H49.7911H49.7668H49.7425H49.7182H49.6939H49.6696H49.6453H49.621H49.5967H49.5724H49.5481H49.5238H49.4995H49.4751H49.4508H49.4265H49.4022H49.3778H49.3535H49.3292H49.3048H49.2805H49.2561H49.2318H49.2074H49.1831H49.1587H49.1343H49.11H49.0856H49.0612H49.0369H49.0125H48.9881H48.9637H48.9393H48.9149H48.8905H48.8662H48.8417H48.8173H48.7929H48.7685H48.7441H48.7197H48.6953H48.6709H48.6464H48.622H48.5976H48.5731H48.5487H48.5242H48.4998H48.4753H48.4509H48.4264H48.402H48.3775H48.353H48.3286H48.3041H48.2796H48.2551H48.2306H48.2062H48.1817H48.1572H48.1327H48.1082H48.0837H48.0592H48.0346H48.0101H47.9856H47.9611H47.9366H47.912H47.8875H47.863H47.8384H47.8139H47.7893H47.7648H47.7402H47.7157H47.6911H47.6665H47.642H47.6174H47.5928H47.5682H47.5436H47.5191H47.4945H47.4699H47.4453H47.4207H47.3961H47.3714H47.3468H47.3222H47.2976H47.273H47.2483H47.2237H47.1991H47.1744H47.1498H47.1251H47.1005H47.0758H47.0512H47.0265H47.0018H46.9772H46.9525H46.9278H46.9031H46.8784H46.8537H46.829H46.8043H46.7796H46.7549H46.7302H46.7055H46.6808H46.6561H46.6313H46.6066H46.5819H46.5571H46.5324H46.5077H46.4829H46.4581H46.4334H46.4086H46.3839H46.3591H46.3343H46.3095H46.2848H46.26H46.2352H46.2104H46.1856H46.1608H46.136H46.1112H46.1091M59.4659 60.1437H46.1091M46.1165 41.9528L45.8665 41.952M46.1165 41.9528C46.1165 41.9527 46.1165 41.9527 46.1165 41.9527L45.8665 41.952M46.1165 41.9528C46.1054 46.1447 46.1068 50.3345 46.1082 54.5257C46.1086 55.9232 46.1091 57.3209 46.1091 58.7189V58.7218V58.7247V58.7276V58.7306V58.7335V58.7364V58.7393V58.7423V58.7452V58.7481V58.751V58.754V58.7569V58.7598V58.7628V58.7657V58.7686V58.7715V58.7745V58.7774V58.7803V58.7832V58.7862V58.7891V58.792V58.7949V58.7979V58.8008V58.8037V58.8067V58.8096V58.8125V58.8154V58.8184V58.8213V58.8242V58.8272V58.8301V58.833V58.8359V58.8389V58.8418V58.8447V58.8477V58.8506V58.8535V58.8565V58.8594V58.8623V58.8653V58.8682V58.8711V58.8741V58.877V58.8799V58.8829V58.8858V58.8887V58.8917V58.8946V58.8976V58.9005V58.9034V58.9064V58.9093V58.9122V58.9152V58.9181V58.9211V58.924V58.9269V58.9299V58.9328V58.9358V58.9387V58.9417V58.9446V58.9476V58.9505V58.9534V58.9564V58.9593V58.9623V58.9652V58.9682V58.9711V58.9741V58.977V58.98V58.9829V58.9859V58.9889V58.9918V58.9948V58.9977V59.0007V59.0036V59.0066V59.0096V59.0125V59.0155V59.0184V59.0214V59.0244V59.0273V59.0303V59.0333V59.0362V59.0392V59.0422V59.0451V59.0481V59.0511V59.054V59.057V59.06V59.063V59.0659V59.0689V59.0719V59.0749V59.0778V59.0808V59.0838V59.0868V59.0898V59.0927V59.0957V59.0987V59.1017V59.1047V59.1077V59.1107V59.1137V59.1166V59.1196V59.1226V59.1256V59.1286V59.1316V59.1346V59.1376V59.1406V59.1436V59.1466V59.1496V59.1526V59.1556V59.1586V59.1616V59.1647V59.1677V59.1707V59.1737V59.1767V59.1797V59.1827V59.1858V59.1888V59.1918V59.1948V59.1978V59.2009V59.2039V59.2069V59.2099V59.213V59.216V59.219V59.2221V59.2251V59.2281V59.2312V59.2342V59.2372V59.2403V59.2433V59.2464V59.2494V59.2525V59.2555V59.2586V59.2616V59.2647V59.2677V59.2708V59.2738V59.2769V59.2799V59.283V59.2861V59.2891V59.2922V59.2953V59.2983V59.3014V59.3045V59.3076V59.3106V59.3137V59.3168V59.3199V59.3229V59.326V59.3291V59.3322V59.3353V59.3384V59.3415V59.3446V59.3477V59.3508V59.3539V59.357V59.3601V59.3632V59.3663V59.3694V59.3725V59.3756V59.3787V59.3818V59.3849V59.388V59.3912V59.3943V59.3974V59.4005V59.4037V59.4068V59.4099V59.413V59.4162V59.4193V59.4225V59.4256V59.4287V59.4319V59.435V59.4382V59.4413V59.4445V59.4476V59.4508V59.4539V59.4571V59.4603V59.4634V59.4666V59.4697V59.4729V59.4761V59.4793V59.4824V59.4856V59.4888V59.492V59.4952V59.4983V59.5015V59.5047V59.5079V59.5111V59.5143V59.5175V59.5207V59.5239V59.5271V59.5303V59.5335V59.5367V59.5399V59.5431V59.5464V59.5496V59.5528V59.556V59.5593V59.5625V59.5657V59.5689V59.5722V59.5754V59.5787V59.5819V59.5851V59.5884V59.5916V59.5949V59.5981V59.6014V59.6047V59.6079V59.6112V59.6144V59.6177V59.621V59.6243V59.6275V59.6308V59.6341V59.6374V59.6407V59.6439V59.6472V59.6505V59.6538V59.6571V59.6604V59.6637V59.667V59.6703V59.6736V59.677V59.6803V59.6836V59.6869V59.6902V59.6935V59.6969V59.7002V59.7035V59.7069V59.7102V59.7136V59.7169V59.7202V59.7236V59.7269V59.7303V59.7337V59.737V59.7404V59.7437V59.7471V59.7505V59.7538V59.7572V59.7606V59.764V59.7674V59.7708V59.7741V59.7775V59.7809V59.7843V59.7877V59.7911V59.7945V59.7979V59.8014V59.8048V59.8082V59.8116V59.815V59.8185V59.8219V59.8253V59.8288V59.8322V59.8356V59.8391V59.8425V59.846V59.8494V59.8529V59.8563V59.8598V59.8633V59.8667V59.8702V59.8737V59.8771V59.8806V59.8841V59.8876V59.8911V59.8946V59.8981V59.9016V59.9051V59.9086V59.9121V59.9156V59.9191V59.9226V59.9261V59.9297V59.9332V59.9367V59.9403V59.9438V59.9473V59.9509V59.9544V59.958V59.9615V59.9651V59.9686V59.9722V59.9758V59.9793V59.9829V59.9865V59.99V59.9936V59.9972V60.0008V60.0044V60.008V60.0116V60.0152V60.0188V60.0224V60.026V60.0296V60.0332V60.0369V60.0405V60.0441V60.0478V60.0514V60.055V60.0587V60.0623V60.066V60.0696V60.0733V60.0769V60.0806V60.0843V60.0879V60.0916V60.0953V60.099V60.1026V60.1063V60.11V60.1137V60.1174V60.1211V60.1248V60.1285V60.1322V60.136V60.1397V60.1434V60.1437M45.8665 41.952C45.8554 46.1444 45.8568 50.3347 45.8582 54.5261C45.8586 55.9235 45.8591 57.3211 45.8591 58.7189V60.1437H45.8628H45.8877H45.9125H45.9374H45.9622H45.987H46.0119H46.0367H46.0615H46.0863H46.1091M44.7893 63.6883C43.0792 63.681 42.5425 63.1631 42.5388 61.4882L61.2801 62.0355C61.2801 63.1153 60.5657 63.681 59.4737 63.6846C57.7577 63.6925 56.0437 63.691 54.3288 63.6895C53.6428 63.6889 52.9567 63.6883 52.2703 63.6883C51.4386 63.6883 50.6072 63.6891 49.776 63.6899C48.1139 63.6916 46.4525 63.6932 44.7893 63.6883Z" fill="#003F62" stroke="#003F62" stroke-width="0.5"/>
<path d="M92.1074 96.7094C92.0047 96.8181 91.8853 96.9135 91.7504 96.9907L92.1074 96.7094ZM92.1074 96.7094C92.1959 96.6193 92.2746 96.5177 92.3411 96.405C92.5378 96.0715 92.5977 95.6896 92.5389 95.3282M92.1074 96.7094L92.5389 95.3282M92.5389 95.3282C92.51 95.1325 92.4451 94.9405 92.3415 94.7634C92.2927 94.68 92.2369 94.6025 92.1751 94.5313C92.0578 94.3919 91.9153 94.2709 91.7497 94.1766L92.5389 95.3282ZM91.7467 94.1833L91.7503 94.1769C90.3855 93.3944 89.0206 92.6128 87.6558 91.8313L87.647 91.8262C86.2792 91.043 84.9115 90.2597 83.5438 89.4756L83.5438 89.4756C82.4351 88.8402 81.3255 88.2047 80.216 87.5693L80.2125 87.5673C79.1041 86.9326 77.9957 86.2978 76.8883 85.6631L73.0461 83.4594L73.046 83.4593C71.9742 82.8455 70.584 83.6175 70.584 84.8663V106.301C70.584 107.546 71.9737 108.323 73.046 107.708L73.046 107.708C74.4108 106.926 75.7756 106.144 77.1404 105.363L77.1492 105.358L77.152 105.356C78.5188 104.573 79.8856 103.791 81.2525 103.007C81.2525 103.007 81.2525 103.007 81.2525 103.007L87.908 99.1946L87.9081 99.1945L89.8292 98.0926L91.7502 96.9908L91.7467 94.1833ZM86.2602 94.787L87.6483 95.5832C87.101 95.8967 86.5536 96.2101 86.0062 96.5236L85.9993 96.5275C84.6316 97.3108 83.2638 98.0941 81.8959 98.8783C80.7895 99.5124 79.6822 100.147 78.5748 100.781L78.5683 100.784C77.4587 101.42 76.3491 102.055 75.2405 102.691L75.2404 102.691L73.8602 103.482V87.684C74.4073 87.9973 74.9544 88.3106 75.5015 88.6239L75.5033 88.6249C76.8704 89.4079 78.2375 90.1907 79.6046 90.9745L79.6047 90.9745C80.7133 91.61 81.8229 92.2454 82.9325 92.8808C84.0421 93.5163 85.1516 94.1516 86.2602 94.787Z" fill="#003F62" stroke="#003F62" stroke-width="0.5"/>
</svg>
