<svg width="112" height="129" viewBox="0 0 112 129" fill="none" xmlns="http://www.w3.org/2000/svg">
<path d="M108.702 128.143L108.76 128.2H108.842H110.084H110.174L110.234 128.133C110.852 127.437 111.216 126.892 111.197 126.32C111.178 125.749 110.778 125.222 110.112 124.554L110.112 124.554C108.533 122.971 106.954 121.391 105.369 119.819C104.236 118.694 103.097 117.574 101.963 116.458C101.533 116.035 101.103 115.612 100.675 115.191C107.514 106.327 109.499 96.6608 105.488 86.2588C101.457 75.8059 93.4455 69.9579 82.4505 68.0152V68.0151V68.0128V68.0105V68.0081V68.0058V68.0035V68.0012V67.9989V67.9966V67.9943V67.992V67.9897V67.9874V67.9851V67.9828V67.9805V67.9782V67.9759V67.9736V67.9713V67.969V67.9668V67.9645V67.9622V67.9599V67.9576V67.9553V67.953V67.9507V67.9484V67.9461V67.9439V67.9416V67.9393V67.937V67.9347V67.9324V67.9302V67.9279V67.9256V67.9233V67.921V67.9188V67.9165V67.9142V67.9119V67.9096V67.9074V67.9051V67.9028V67.9005V67.8983V67.896V67.8937V67.8915V67.8892V67.8869V67.8846V67.8824V67.8801V67.8778V67.8756V67.8733V67.871V67.8688V67.8665V67.8642V67.862V67.8597V67.8575V67.8552V67.8529V67.8507V67.8484V67.8462V67.8439V67.8416V67.8394V67.8371V67.8349V67.8326V67.8304V67.8281V67.8259V67.8236V67.8214V67.8191V67.8168V67.8146V67.8123V67.8101V67.8078V67.8056V67.8033V67.8011V67.7989V67.7966V67.7944V67.7921V67.7899V67.7876V67.7854V67.7831V67.7809V67.7787V67.7764V67.7742V67.7719V67.7697V67.7675V67.7652V67.763V67.7607V67.7585V67.7563V67.754V67.7518V67.7496V67.7473V67.7451V67.7429V67.7406V67.7384V67.7362V67.7339V67.7317V67.7295V67.7272V67.725V67.7228V67.7206V67.7183V67.7161V67.7139V67.7116V67.7094V67.7072V67.705V67.7027V67.7005V67.6983V67.6961V67.6939V67.6916V67.6894V67.6872V67.685V67.6827V67.6805V67.6783V67.6761V67.6739V67.6717V67.6694V67.6672V67.665V67.6628V67.6606V67.6584V67.6561V67.6539V67.6517V67.6495V67.6473V67.6451V67.6429V67.6407V67.6384V67.6362V67.634V67.6318V67.6296V67.6274V67.6252V67.623V67.6208V67.6186V67.6164V67.6142V67.6119V67.6097V67.6075V67.6053V67.6031V67.6009V67.5987V67.5965V67.5943V67.5921V67.5899V67.5877V67.5855V67.5833V67.5811V67.5789V67.5767V67.5745V67.5723V67.5701V67.5679V67.5657V67.5635V67.5613V67.5591V67.5569V67.5547V67.5525V67.5503V67.5481V67.5459V67.5437V67.5416V67.5394V67.5372V67.535V67.5328V67.5306V67.5284V67.5262V67.524V67.5218V67.5196V67.5174V67.5153V67.5131V67.5109V67.5087V67.5065V67.5043V67.5021V67.4999V67.4977V67.4956V67.4934V67.4912V67.489V67.4868V67.4846V67.4825V67.4803V67.4781V67.4759V67.4737V67.4715V67.4693V67.4672V67.465V67.4628V67.4606V67.4584V67.4563V67.4541V67.4519V67.4497V67.4475V67.4454V67.4432V67.441V67.4388V67.4366V67.4345V67.4323V67.4301V67.4279V67.4257V67.4236V67.4214V67.4192V67.417V67.4149V67.4127V67.4105V67.4083V67.4062V67.404V67.4018V67.3996V67.3975V67.3953V67.3931V67.3909V67.3888V67.3866V67.3844V67.3822V67.3801V67.3779V67.3757V67.3736V67.3714V67.3692V67.367V67.3649V67.3627V67.3605V67.3584V67.3562V67.354V67.3518V67.3497V67.3475V67.3453V67.3432V67.341V67.3388V67.3367V67.3345V67.3323V67.3302V67.328V67.3258V67.3237V67.3215V67.3193V67.3171V67.315V67.3128V67.3106V67.3085V67.3063V67.3042V67.302V67.2998V67.2977V67.2955V67.2933V67.2912V67.289V67.2868V67.2847V67.2825V67.2803V67.2782V67.276V67.2738V67.2717V67.2695V67.2673V67.2652V67.263V67.2609V67.2587V67.2565V67.2544V67.2522V67.25V67.2479V67.2457V67.2436V67.2414V67.2392V67.2371V67.2349V67.2327V67.2306V67.2284V67.2263V67.2241V67.2219V67.2198V67.2176V67.2155V67.2133V67.2111V67.209V67.2068V67.2047V67.2025V67.2003V67.1982V67.196V67.1938V67.1917V67.1895V67.1874V67.1852V67.183V67.1809V67.1787V67.1766V67.1744V67.1722V67.1701V67.1679V67.1658V67.1636V67.1614V67.1593V67.1571V67.155V67.1528V67.1506V67.1485V67.1463V67.1442V67.142V67.1398V67.1377V67.1355V67.1334V67.1312V67.1291V67.1269V67.1247V67.1226V67.1204V67.1183V67.1161V67.1139V67.1118V67.1096V67.1075V67.1053V67.1031V67.101V67.0988V67.0967V67.0945V67.0923V67.0902V67.088V67.0859V67.0837V67.0815V67.0794V67.0772V67.0751V67.0729V67.0707V67.0686V67.0664V67.0643V67.0621V67.0599V67.0578V67.0556V67.0535V67.0513V67.0491V67.047L82.4506 67.0448L82.4505 67.0436C82.4344 64.3671 82.4176 61.6908 82.4009 59.0146C82.3425 49.6643 82.2841 40.3152 82.2485 30.9644V30.9641C82.2428 29.8827 81.9214 29.0747 81.146 28.3117L81.1459 28.3116C72.3272 19.643 63.5221 10.9638 54.7521 2.24707L54.7521 2.24703C53.7256 1.22735 52.6559 0.789027 51.2146 0.800209L51.2145 0.80021C42.5228 0.873687 33.8326 0.919465 25.1415 0.965248C21.4179 0.984864 17.6941 1.00448 13.9699 1.02628L13.9698 1.02628C10.0921 1.0508 6.79031 2.42085 4.46088 4.76984C2.1314 7.11888 0.786464 10.4347 0.800103 14.3282L0.800103 14.3283C0.897103 40.9023 1.01296 67.4763 1.1423 94.0477C1.18058 101.81 6.878 107.292 14.6221 107.23C21.3884 107.174 28.1543 107.142 34.921 107.11C40.2375 107.084 45.5546 107.059 50.8725 107.022C51.2817 107.02 51.5602 107.07 51.7762 107.199C51.9894 107.326 52.1705 107.547 52.3448 107.949C60.0316 125.679 82.62 130.917 97.3421 118.413C97.5417 118.243 97.747 118.087 97.9799 117.909C98.055 117.851 98.133 117.792 98.2147 117.729C98.4035 117.925 98.5886 118.118 98.7715 118.308C99.2931 118.853 99.7959 119.377 100.311 119.886L100.451 119.743L100.311 119.886C102.408 121.956 104.512 124.024 106.615 126.091C107.31 126.775 108.006 127.459 108.702 128.143ZM78.6227 32.0372H78.6232V67.7872C69.6302 68.0773 61.9251 71.5239 56.1895 78.7705L56.3463 78.8946L56.1895 78.7706C50.4544 86.0198 48.8469 94.2738 50.7486 103.436C50.5181 103.436 50.2924 103.435 50.0702 103.435C49.4872 103.435 48.9285 103.434 48.3702 103.436H48.37C44.6018 103.451 40.8339 103.469 37.0663 103.486C29.5375 103.522 22.0094 103.557 14.4799 103.573C11.5475 103.58 9.13098 102.619 7.44479 100.941C5.75855 99.263 4.78618 96.8511 4.77291 93.9247C4.65166 67.4369 4.5385 40.9491 4.43072 14.4613L4.43072 14.4612C4.41743 11.4399 5.35915 8.99983 7.04059 7.31149C8.72216 5.62301 11.1635 4.66638 14.1877 4.65045C21.9948 4.60918 29.8019 4.56552 37.6089 4.52186C41.5117 4.50004 45.4144 4.47821 49.3171 4.45668H49.3194H49.3223H49.3251H49.328H49.3309H49.3337H49.3366H49.3394H49.3423H49.3452H49.348H49.3509H49.3537H49.3566H49.3594H49.3623H49.3652H49.368H49.3709H49.3737H49.3766H49.3794H49.3823H49.3852H49.388H49.3909H49.3937H49.3966H49.3995H49.4023H49.4052H49.408H49.4109H49.4138H49.4166H49.4195H49.4223H49.4252H49.4281H49.4309H49.4338H49.4367H49.4395H49.4424H49.4452H49.4481H49.451H49.4538H49.4567H49.4596H49.4624H49.4653H49.4682H49.471H49.4739H49.4768H49.4796H49.4825H49.4854H49.4883H49.4911H49.494H49.4969H49.4997H49.5026H49.5055H49.5084H49.5112H49.5141H49.517H49.5199H49.5227H49.5256H49.5285H49.5314H49.5343H49.5371H49.54H49.5429H49.5458H49.5487H49.5515H49.5544H49.5573H49.5602H49.5631H49.566H49.5689H49.5717H49.5746H49.5775H49.5804H49.5833H49.5862H49.5891H49.592H49.5949H49.5978H49.6007H49.6036H49.6065H49.6094H49.6123H49.6152H49.6181H49.621H49.6239H49.6268H49.6297H49.6326H49.6355H49.6384H49.6413H49.6442H49.6471H49.6501H49.653H49.6559H49.6588H49.6617H49.6646H49.6675H49.6705H49.6734H49.6763H49.6792H49.6822H49.6851H49.688H49.6909H49.6939H49.6968H49.6997H49.7027H49.7056H49.7085H49.7115H49.7144H49.7173H49.7203H49.7232H49.7262H49.7291H49.732H49.735H49.7379H49.7409H49.7438H49.7468H49.7497H49.7527H49.7556H49.7586H49.7616H49.7645H49.7675H49.7704H49.7734H49.7764H49.7793H49.7823H49.7853H49.7882H49.7912H49.7942H49.7972H49.8001H49.8031H49.8061H49.8091H49.812H49.815H49.818H49.821H49.824H49.827H49.83H49.833H49.836H49.839H49.842H49.845H49.848H49.851H49.854H49.857H49.86H49.863H49.866H49.869H49.872H49.875H49.8781H49.8811H49.8841H49.8871H49.8901H49.8932H49.8962H49.8992H49.9023H49.9053H49.9083H49.9114H49.9144H49.9174H49.9205H49.9235H49.9266H49.9296H49.9327H49.9357H49.9388H49.9418H49.9449H49.948H49.951H49.9541H49.9571H49.9602H49.9633H49.9664H49.9694H49.9725H49.9756H49.9787H49.9817H49.9848H49.9879H49.991H49.9941H49.9972H50.0003H50.0034H50.0065H50.0096H50.0127H50.0158H50.0189H50.022H50.0251H50.0282H50.0313H50.0344H50.0376H50.0407H50.0438H50.0469H50.0501H50.0532H50.0563H50.0595H50.0626H50.0657H50.0689H50.072H50.0752H50.0783H50.0815H50.0846H50.0878H50.0909H50.0941H50.0973H50.1004H50.1036H50.1068H50.1099H50.1131H50.1163H50.1195H50.1227H50.1258H50.129H50.1322H50.1354H50.1386H50.1418H50.145H50.1482H50.1514H50.1546H50.1578H50.161H50.1643H50.1675H50.1707H50.1739H50.1772H50.1804H50.1836H50.1868H50.1901H50.1933H50.1966H50.1998H50.203H50.2063H50.2096H50.2128H50.2161H50.2193H50.2226H50.2259H50.2291H50.2324H50.2357H50.2389H50.2422H50.2455H50.2488H50.2521H50.2554H50.2587H50.262H50.2653H50.2686H50.2719H50.2752H50.2785H50.2818H50.2851H50.2884H50.2918H50.2951H50.2984H50.3018H50.3051H50.3084H50.3118H50.3151H50.3185H50.3218H50.3252H50.3285H50.3319H50.3352H50.3386H50.342H50.3453H50.3487H50.3521H50.3555H50.3589H50.3622H50.3656H50.369H50.3724H50.3758H50.3792H50.3826H50.386H50.3895H50.3929H50.3963H50.3997H50.4031H50.4066H50.41H50.4134H50.4169H50.4203H50.4237H50.4272H50.4306H50.4341H50.4376H50.441H50.4445H50.448H50.4514H50.4549H50.4584H50.4619H50.4653H50.4688H50.4723H50.4758H50.4793H50.4828H50.4863H50.4898H50.4933H50.4969H50.5004H50.5039H50.5074H50.511H50.5145H50.518H50.5216H50.5251H50.5287H50.5322H50.5358H50.5393H50.5429H50.5465H50.55H50.5536H50.5572H50.5608H50.5643H50.5679H50.5715H50.5751H50.5787H50.5823H50.5859H50.5895H50.5931H50.5968H50.6004H50.604H50.6076H50.6113H50.6149H50.6185H50.6222H50.6258H50.6295H50.6331H50.6368H50.6405H50.6441H50.6478H50.6515H50.6552H50.6588H50.6625H50.6662H50.6699H50.6736H50.6773H50.681H50.6847H50.6884H50.6922H50.6959H50.6996H50.7033H50.7071H50.7108H50.7146H50.7183H50.7221H50.7258H50.7296H50.7333H50.7371H50.7409H50.7446H50.7484H50.7522H50.756H50.7598H50.7636H50.7674H50.7712H50.775H50.7788H50.7817C50.7815 5.9926 50.7785 7.51007 50.7755 9.01461C50.7687 12.5021 50.7619 15.9202 50.7898 19.3377C50.8391 25.4668 54.8995 30.5083 60.8874 31.7985C62.3096 32.1051 63.807 32.1152 65.2453 32.1206H65.2455C68.1591 32.1283 71.072 32.0992 73.983 32.0702C75.1676 32.0583 76.352 32.0465 77.5359 32.0372H77.5374H77.5396H77.5417H77.5438H77.546H77.5481H77.5502H77.5524H77.5545H77.5566H77.5588H77.5609H77.563H77.5651H77.5673H77.5694H77.5715H77.5737H77.5758H77.5779H77.5801H77.5822H77.5844H77.5865H77.5886H77.5908H77.5929H77.595H77.5972H77.5993H77.6014H77.6036H77.6057H77.6079H77.61H77.6121H77.6143H77.6164H77.6186H77.6207H77.6228H77.625H77.6271H77.6293H77.6314H77.6335H77.6357H77.6378H77.64H77.6421H77.6443H77.6464H77.6486H77.6507H77.6529H77.655H77.6572H77.6593H77.6614H77.6636H77.6657H77.6679H77.6701H77.6722H77.6744H77.6765H77.6787H77.6808H77.683H77.6851H77.6873H77.6894H77.6916H77.6938H77.6959H77.6981H77.7002H77.7024H77.7046H77.7067H77.7089H77.7111H77.7132H77.7154H77.7176H77.7197H77.7219H77.7241H77.7262H77.7284H77.7306H77.7327H77.7349H77.7371H77.7393H77.7414H77.7436H77.7458H77.748H77.7502H77.7523H77.7545H77.7567H77.7589H77.7611H77.7632H77.7654H77.7676H77.7698H77.772H77.7742H77.7764H77.7786H77.7808H77.783H77.7851H77.7873H77.7895H77.7917H77.7939H77.7961H77.7983H77.8005H77.8027H77.8049H77.8072H77.8094H77.8116H77.8138H77.816H77.8182H77.8204H77.8226H77.8248H77.8271H77.8293H77.8315H77.8337H77.8359H77.8382H77.8404H77.8426H77.8448H77.8471H77.8493H77.8515H77.8537H77.856H77.8582H77.8604H77.8627H77.8649H77.8672H77.8694H77.8716H77.8739H77.8761H77.8784H77.8806H77.8829H77.8851H77.8874H77.8896H77.8919H77.8941H77.8964H77.8986H77.9009H77.9032H77.9054H77.9077H77.91H77.9122H77.9145H77.9168H77.919H77.9213H77.9236H77.9259H77.9281H77.9304H77.9327H77.935H77.9373H77.9396H77.9418H77.9441H77.9464H77.9487H77.951H77.9533H77.9556H77.9579H77.9602H77.9625H77.9648H77.9671H77.9694H77.9717H77.974H77.9764H77.9787H77.981H77.9833H77.9856H77.988H77.9903H77.9926H77.9949H77.9973H77.9996H78.0019H78.0043H78.0066H78.0089H78.0113H78.0136H78.016H78.0183H78.0207H78.023H78.0254H78.0277H78.0301H78.0324H78.0348H78.0371H78.0395H78.0419H78.0442H78.0466H78.049H78.0514H78.0537H78.0561H78.0585H78.0609H78.0633H78.0656H78.068H78.0704H78.0728H78.0752H78.0776H78.08H78.0824H78.0848H78.0872H78.0896H78.092H78.0944H78.0968H78.0993H78.1017H78.1041H78.1065H78.1089H78.1114H78.1138H78.1162H78.1187H78.1211H78.1235H78.126H78.1284H78.1309H78.1333H78.1358H78.1382H78.1407H78.1431H78.1456H78.148H78.1505H78.153H78.1554H78.1579H78.1604H78.1629H78.1653H78.1678H78.1703H78.1728H78.1753H78.1778H78.1803H78.1828H78.1853H78.1878H78.1903H78.1928H78.1953H78.1978H78.2003H78.2028H78.2053H78.2078H78.2104H78.2129H78.2154H78.218H78.2205H78.223H78.2256H78.2281H78.2306H78.2332H78.2357H78.2383H78.2408H78.2434H78.246H78.2485H78.2511H78.2537H78.2562H78.2588H78.2614H78.264H78.2665H78.2691H78.2717H78.2743H78.2769H78.2795H78.2821H78.2847H78.2873H78.2899H78.2925H78.2951H78.2977H78.3003H78.303H78.3056H78.3082H78.3109H78.3135H78.3161H78.3188H78.3214H78.324H78.3267H78.3293H78.332H78.3346H78.3373H78.34H78.3426H78.3453H78.348H78.3506H78.3533H78.356H78.3587H78.3614H78.3641H78.3668H78.3694H78.3721H78.3748H78.3775H78.3803H78.383H78.3857H78.3884H78.3911H78.3938H78.3966H78.3993H78.402H78.4048H78.4075H78.4103H78.413H78.4157H78.4185H78.4213H78.424H78.4268H78.4295H78.4323H78.4351H78.4379H78.4406H78.4434H78.4462H78.449H78.4518H78.4546H78.4574H78.4602H78.463H78.4658H78.4686H78.4714H78.4742H78.4771H78.4799H78.4827H78.4855H78.4884H78.4912H78.4941H78.4969H78.4998H78.5026H78.5055H78.5083H78.5112H78.5141H78.5169H78.5198H78.5227H78.5256H78.5284H78.5313H78.5342H78.5371H78.54H78.5429H78.5458H78.5487H78.5517H78.5546H78.5575H78.5604H78.5633H78.5663H78.5692H78.5722H78.5751H78.578H78.581H78.5839H78.5869H78.5899H78.5928H78.5958H78.5988H78.6017H78.6047H78.6077H78.6107H78.6137H78.6167H78.6197H78.6227ZM53.6121 96.507L53.6126 96.3065H53.6106C53.7473 82.5679 64.9195 71.4673 78.6698 71.4567C92.5114 71.446 103.848 82.7518 103.851 96.5658C103.857 110.462 92.5232 121.696 78.5601 121.632C64.7133 121.568 53.58 110.359 53.6121 96.507ZM76.0102 28.4346C74.6881 28.4356 73.3675 28.4517 72.0483 28.4678C68.9551 28.5054 65.8697 28.543 62.7908 28.3863L62.7806 28.5861L62.7908 28.3863C58.3296 28.1599 54.7854 24.7517 54.5144 20.3465C54.325 17.2659 54.369 14.1746 54.4144 10.9848C54.4326 9.70842 54.451 8.41625 54.4548 7.10271C58.9764 11.565 63.446 15.9743 67.8956 20.364C70.6117 23.0434 73.3203 25.7155 76.0288 28.3878L76.0102 28.4346Z" fill="#003F62" stroke="#003F62" stroke-width="0.4"/>
<path d="M64.2977 50.3456L64.2975 50.3456C60.7838 50.351 57.2674 50.351 53.7539 50.351H53.7301H53.7064H53.6826H53.6589H53.6352H53.6114H53.5877H53.5639H53.5402H53.5164H53.4927H53.4689H53.4452H53.4215H53.3977H53.374H53.3502H53.3265H53.3027H53.279H53.2552H53.2315H53.2078H53.184H53.1603H53.1365H53.1128H53.089H53.0653H53.0415H53.0178H52.9941H52.9703H52.9466H52.9228H52.8991H52.8753H52.8516H52.8278H52.8041H52.7803H52.7566H52.7329H52.7091H52.6854H52.6616H52.6379H52.6141H52.5904H52.5667H52.5429H52.5192H52.4954H52.4717H52.4479H52.4242H52.4004H52.3767H52.3529H52.3292H52.3055H52.2817H52.258H52.2342H52.2105H52.1867H52.163H52.1392H52.1155H52.0918H52.068H52.0443H52.0205H51.9968H51.973H51.9493H51.9255H51.9018H51.8781H51.8543H51.8306H51.8068H51.7831H51.7593H51.7356H51.7119H51.6881H51.6644H51.6406H51.6169H51.5931H51.5694H51.5456H51.5219H51.4982H51.4744H51.4507H51.4269H51.4032H51.3794H51.3557H51.3319H51.3082H51.2845H51.2607H51.237H51.2132H51.1895H51.1657H51.142H51.1183H51.0945H51.0708H51.047H51.0233H50.9995H50.9758H50.952H50.9283H50.9046H50.8808H50.8571H50.8333H50.8096H50.7858H50.7621H50.7383H50.7146H50.6909H50.6671H50.6434H50.6196H50.5959H50.5721H50.5484H50.5247H50.5009H50.4772H50.4534H50.4297H50.4059H50.3822H50.3585H50.3347H50.311H50.2872H50.2635H50.2397H50.216H50.1922H50.1685H50.1448H50.121H50.0973H50.0735H50.0498H50.026H50.0023H49.9786H49.9548H49.9311H49.9073H49.8836H49.8598H49.8361H49.8124H49.7886H49.7649H49.7411H49.7174H49.6936H49.6699H49.6462H49.6224H49.5987H49.5749H49.5512H49.5274H49.5037H49.48H49.4562H49.4325H49.4087H49.385H49.3612H49.3375H49.3138H49.29H49.2663H49.2425H49.2188H49.195H49.1713H49.1476H49.1238H49.1001H49.0763H49.0526H49.0289H49.0051H48.9814H48.9576H48.9339H48.9101H48.8864H48.8627H48.8389H48.8152H48.7914H48.7677H48.7439H48.7202H48.6965H48.6727H48.649H48.6252H48.6015H48.5778H48.554H48.5303H48.5065H48.4828H48.459H48.4353H48.4116H48.3878H48.3641H48.3403H48.3166H48.2929H48.2691H48.2454H48.2216H48.1979H48.1741H48.1504H48.1267H48.1029H48.0792H48.0554H48.0317H48.008H47.9842H47.9605H47.9367H47.913H47.8893H47.8655H47.8418H47.818H47.7943H47.7705H47.7468H47.7231H47.6993H47.6756H47.6518H47.6281H47.6044H47.5806H47.5569H47.5331H47.5094H47.4857H47.4619H47.4382H47.4144H47.3907H47.367H47.3432H47.3195H47.2957H47.272H47.2483H47.2245H47.2008H47.177H47.1533H47.1296H47.1058H47.0821H47.0583H47.0346H47.0109H46.9871H46.9634H46.9396H46.9159H46.8922H46.8684H46.8447H46.8209H46.7972H46.7735H46.7497H46.726H46.7022H46.6785H46.6548H46.631H46.6073H46.5835H46.5598H46.5361H46.5123H46.4886H46.4649H46.4411H46.4174H46.3936H46.3699H46.3462H46.3224H46.2987H46.2749H46.2512H46.2275H46.2037H46.18H46.1562H46.1325H46.1088H46.085H46.0613H46.0376H46.0138H45.9901H45.9663H45.9426H45.9189H45.8951H45.8714H45.8477H45.8239H45.8002H45.7764H45.7527H45.729H45.7052H45.6815H45.6577H45.634H45.6103H45.5865H45.5628H45.5391H45.5153H45.4916H45.4678H45.4441H45.4204H45.3966H45.3729H45.3492H45.3254H45.3017H45.278H45.2542H45.2305H45.2067H45.183H45.1593H45.1355H45.1118H45.0881H45.0643H45.0406H45.0168H44.9931H44.9694H44.9456H44.9219H44.8982H44.8744H44.8507H44.827H44.8032H44.7795H44.7558H44.732H44.7083H44.6845H44.6608H44.6371H44.6133H44.5896H44.5659H44.5421H44.5184H44.4947H44.4709H44.4472H44.4235H44.3997H44.376H44.3522H44.3285H44.3048H44.281H44.2573H44.2336H44.2098H44.1861H44.1624H44.1386H44.1149H44.0912H44.0674H44.0437H44.02H43.9962H43.9725H43.9488H43.925H43.9013H43.8776H43.8538H43.8301H43.8063H43.7826H43.7589H43.7351H43.7114H43.6877H43.6639H43.6402H43.6165H43.5927H43.569H43.5453H43.5215H43.4978H43.4741H43.4503H43.4266H43.4029H43.3791H43.3554H43.3317H43.3079H43.2842H43.2605H43.2367H43.213H43.1893H43.1655H43.1418H43.1181H43.0943H43.0706H43.0469H43.0232H42.9994H42.9757H42.952H42.9282H42.9045H42.8808H42.857H42.8333H42.8096H42.7858H42.7621H42.7384H42.7146H42.6909H42.6672H42.6434H42.6197H42.596H42.5722H42.5485H42.5248H42.5011H42.4773H42.4536H42.4299H42.4061H42.3824H42.3587H42.3349H42.3112H42.2875H42.2637H42.24H42.2163H42.1926H42.1688H42.1451H42.1214H42.0976H42.0739H42.0502H42.0264H42.0027H41.979H41.9553H41.9315H41.9078H41.8841H41.8603H41.8366H41.8129H41.7891H41.7654H41.7417H41.718H41.6942H41.6705H41.6468H41.623H41.5993H41.5165L41.5111 50.3456C40.2011 50.3456 38.891 50.3458 37.5807 50.346C31.5594 50.3468 25.5365 50.3476 19.5156 50.3322C19.5155 50.3322 19.5154 50.3322 19.5153 50.3322L19.5158 50.1322C18.9985 50.1322 18.3275 50.108 18.0096 49.8011L64.2977 50.3456ZM64.2977 50.3456C64.852 50.3442 65.3242 50.1947 65.6628 49.8865C66.0034 49.5765 66.1841 49.1286 66.1973 48.5819M64.2977 50.3456L17.871 49.9454C17.6554 49.739 17.4646 49.439 17.3406 49.1297C17.2182 48.8241 17.1486 48.478 17.2134 48.1839C17.279 47.8832 17.4922 47.6153 17.7274 47.3961C17.967 47.1729 18.2536 46.9783 18.5051 46.8279C18.7115 46.7042 18.9623 46.6877 19.1824 46.6922C19.2861 46.6943 19.3922 46.7016 19.4921 46.7085C19.501 46.7091 19.5098 46.7097 19.5186 46.7103C19.6284 46.7177 19.7303 46.7241 19.8256 46.7241H19.9109H19.9962H20.0815H20.1668H20.2521H20.3374H20.4226H20.5079H20.5932H20.6785H20.7638H20.8491H20.9343H21.0196H21.1049H21.1902H21.2755H21.3608H21.446H21.5313H21.6166H21.7019H21.7872H21.8725H21.9578H22.043H22.1283H22.2136H22.2989H22.3842H22.4695H22.5547H22.64H22.7253H22.8106H22.8959H22.9811H23.0664H23.1517H23.237H23.3223H23.4076H23.4928H23.5781H23.6634H23.7487H23.834H23.9193H24.0045H24.0898H24.1751H24.2604H24.3457H24.431H24.5162H24.6015H24.6868H24.7721H24.8574H24.9426H25.0279H25.1132H25.1985H25.2838H25.369H25.4543H25.5396H25.6249H25.7102H25.7955H25.8807H25.966H26.0513H26.1366H26.2219H26.3071H26.3924H26.4777H26.563H26.6483H26.7335H26.8188H26.9041H26.9894H27.0747H27.16H27.2452H27.3305H27.4158H27.5011H27.5864H27.6716H27.7569H27.8422H27.9275H28.0128H28.098H28.1833H28.2686H28.3539H28.4392H28.5244H28.6097H28.695H28.7803H28.8656H28.9508H29.0361H29.1214H29.2067H29.292H29.3772H29.4625H29.5478H29.6331H29.7183H29.8036H29.8889H29.9742H30.0595H30.1447H30.23H30.3153H30.4006H30.4859H30.5711H30.6564H30.7417H30.827H30.9123H30.9975H31.0828H31.1681H31.2534H31.3387H31.4239H31.5092H31.5945H31.6798H31.765H31.8503H31.9356H32.0209H32.1062H32.1914H32.2767H32.362H32.4473H32.5326H32.6178H32.7031H32.7884H32.8737H32.9589H33.0442H33.1295H33.2148H33.3001H33.3853H33.4706H33.5559H33.6412H33.7264H33.8117H33.897H33.9823H34.0676H34.1528H34.2381H34.3234H34.4087H34.4939H34.5792H34.6645H34.7498H34.8351H34.9203H35.0056H35.0909H35.1762H35.2614H35.3467H35.432H35.5173H35.6026H35.6878H35.7731H35.8584H35.9437H36.0289H36.1142H36.1995H36.2848H36.3701H36.4553H36.5406H36.6259H36.7112H36.7964H36.8817H36.967H37.0523H37.1376H37.2228H37.3081H37.3934H37.4787H37.5639H37.6492H37.7345H37.8198H37.9051H37.9903H38.0756H38.1609H38.2462H38.3314H38.4167H38.502H38.5873H38.6725H38.7578H38.8431H38.9284H39.0137H39.0989H39.1842H39.2695H39.3548H39.44H39.5253H39.6106H39.6959H39.7812H39.8664H39.9517H40.037H40.1223H40.2075H40.2928H40.3781H40.4634H40.5486H40.6339H40.7192H40.8045H40.8898H40.975H41.0603H41.1456H41.2309H41.3161H41.4014H41.4867H41.572H41.6572H41.7425H41.8278H41.9131H41.9984H42.0836H42.1689H42.2542H42.3395H42.4247H42.51H42.5953H42.6806H42.7658H42.8511H42.9364H43.0217H43.107H43.1922H43.2775H43.3628H43.4481H43.5333H43.6186H43.7039H43.7892H43.8745H43.9597H44.045H44.1303H44.2156H44.3008H44.3861H44.4714H44.5567H44.6419H44.7272H44.8125H44.8978H44.9831H45.0683H45.1536H45.2389H45.3242H45.4094H45.4947H45.58H45.6653H45.7505H45.8358H45.9211H46.0064H46.0917H46.1769H46.2622H46.3475H46.4328H46.518H46.6033H46.6886H46.7739H46.8592H46.9444H47.0297H47.115H47.2003H47.2855H47.3708H47.4561H47.5414H47.6267H47.7119H47.7972H47.8825H47.9678H48.053H48.1383H48.2236H48.3089H48.3942H48.4794H48.5647H48.65H48.7353H48.8205H48.9058H48.9911H49.0764H49.1617H49.2469H49.3322H49.4175H49.5028H49.588H49.6733H49.7586H49.8439H49.9292H50.0144H50.0997H50.185H50.2703H50.3555H50.4408H50.5261H50.6114H50.6967H50.7819H50.8672H50.9525H51.0378H51.1231H51.2083H51.2936H51.3789H51.4642H51.5494H51.6347H51.72H51.8053H51.8906H51.9758H52.0611H52.1464H52.2317H52.317H52.4022H52.4875H52.5728H52.6581H52.7434H52.8286H52.9139H52.9992H53.0845H53.1697H53.255H53.3403H53.4256H53.5109H53.5961H53.6814H53.7667H53.852H53.9373H54.0225H54.1078H54.1931H54.2784H54.3637H54.4489H54.5342H54.6195H54.7048H54.7901H54.8753H54.9606H55.0459H55.1312H55.2165H55.3017H55.387H55.4723H55.5576H55.6429H55.7281H55.8134H55.8987H55.984H56.0693H56.1545H56.2398H56.3251H56.4104H56.4957H56.5809H56.6662H56.7515H56.8368H56.9221H57.0074H57.0926H57.1779H57.2632H57.3485H57.4338H57.519H57.6043H57.6896H57.7749H57.8602H57.9454H58.0307H58.116H58.2013H58.2866H58.3719H58.4571H58.5424H58.6277H58.713H58.7983H58.8835H58.9688H59.0541H59.1394H59.2247H59.31H59.3952H59.4805H59.5658H59.6511H59.7364H59.8216H59.9069H59.9922H60.0775H60.1628H60.2481H60.3333H60.4186H60.5039H60.5892H60.6745H60.7598H60.845H60.9303H61.0156H61.1009H61.1862H61.2715H61.3567H61.442H61.5273H61.6126H61.6979H61.7832H61.8684H61.9537H62.039H62.1243H62.2096H62.2949H62.3801H62.4654H62.5507H62.636H62.7213H62.8066H62.8919H62.9771H63.0624H63.1477H63.233H63.3183H63.4036H63.4888C63.5643 46.7241 63.6427 46.7229 63.7229 46.7216C63.9332 46.7183 64.1562 46.7147 64.3727 46.7329C64.9083 46.7756 65.3744 46.9411 65.7047 47.2552C66.0396 47.5736 66.212 48.0227 66.1973 48.5819M66.1973 48.5819L65.9974 48.5766M66.1973 48.5819C66.1973 48.5817 66.1973 48.5816 66.1973 48.5814L65.9974 48.5766M65.9974 48.5766C66.0243 47.5512 65.3696 47.013 64.3565 46.9322L64.2972 50.1456C65.3372 50.1429 65.9731 49.5858 65.9974 48.5766Z" fill="#003F62" stroke="#003F62" stroke-width="0.4"/>
<path d="M19.3072 64.0254L19.3071 64.0254C18.6465 64.0212 18.1053 63.8782 17.7189 63.5855C17.3256 63.2878 17.1159 62.8526 17.0905 62.3199L19.3072 64.0254ZM19.3072 64.0254C20.8227 64.0347 22.34 64.0325 23.8559 64.0302C24.5016 64.0292 25.147 64.0282 25.7919 64.0281L25.7973 64.0335H25.8801C26.5285 64.0335 27.1771 64.0344 27.8258 64.0353C29.4486 64.0375 31.0724 64.0397 32.6958 64.0281L32.696 64.0281C33.3606 64.0225 33.8969 63.8813 34.274 63.5834C34.6583 63.2797 34.8491 62.8359 34.8639 62.2917C34.8801 61.7196 34.6959 61.2401 34.3045 60.9074C33.919 60.5798 33.3597 60.4175 32.6682 60.4147L32.6681 60.4147M19.3072 64.0254L32.6681 60.4147M32.6681 60.4147C28.2057 60.3986 23.7432 60.3959 19.2833 60.4147C18.6062 60.4175 18.0445 60.5987 17.6552 60.9358M32.6681 60.4147L17.6552 60.9358M17.6552 60.9358C17.2615 61.2766 17.0636 61.7602 17.0905 62.3197L17.6552 60.9358Z" fill="#003F62" stroke="#003F62" stroke-width="0.4"/>
<path d="M40.0342 64.0151L40.0343 64.0151C40.6676 64.0321 41.3028 64.0281 41.9342 64.0241C42.2089 64.0223 42.4829 64.0206 42.7557 64.0206H42.7584C43.0276 64.0206 43.2979 64.022 43.5688 64.0235C44.2038 64.0269 44.8423 64.0303 45.4791 64.0152L45.4793 64.0152C45.9987 64.0022 46.44 63.8576 46.7598 63.5625C47.0811 63.266 47.255 62.8404 47.2826 62.3159L47.2826 62.3158C47.3104 61.7831 47.1683 61.325 46.8717 60.9927C46.5749 60.6602 46.1425 60.4752 45.6312 60.4531L45.6308 60.4531C43.7363 60.3748 41.8342 60.3775 39.938 60.4477L39.938 60.4477C39.4225 60.4668 38.9866 60.6509 38.6848 60.98C38.3833 61.3089 38.2337 61.763 38.2528 62.2884L38.2528 62.2885C38.2717 62.8049 38.4372 63.2355 38.7525 63.5402C39.0672 63.8443 39.5079 64.0007 40.0342 64.0151Z" fill="#003F62" stroke="#003F62" stroke-width="0.4"/>
</svg>
