<svg width="95" height="121" viewBox="0 0 95 121" fill="none" xmlns="http://www.w3.org/2000/svg">
<path d="M89.3024 61.3465C89.4963 57.8195 89.4452 54.2789 89.394 50.7382C89.3707 49.1208 89.3473 47.5034 89.3473 45.8872L89.3024 61.3465ZM89.3024 61.3465C88.5735 74.5844 83.7411 86.2614 75.213 96.403C68.528 104.352 60.1316 109.859 50.6049 113.894C47.8564 115.058 45.7019 115.119 42.9373 113.907L89.3024 61.3465ZM47.5931 0.75H47.5908H47.5881H47.5853H47.5826H47.5798H47.5771H47.5743H47.5716H47.5688H47.5661H47.5633H47.5606H47.5578H47.5551H47.5524H47.5496H47.5469H47.5441H47.5414H47.5386H47.5359H47.5331H47.5304H47.5276H47.5249H47.5222H47.5194H47.5167H47.5139H47.5112H47.5084H47.5057H47.5029H47.5002H47.4975H47.4947H47.492H47.4892H47.4865H47.4837H47.481H47.4782H47.4755H47.4728H47.47H47.4673H47.4645H47.4618H47.459H47.4563H47.4536H47.4508H47.4481H47.4453H47.4426H47.4398H47.4371H47.4344H47.4316H47.4289H47.4261H47.4234H47.4206H47.4179H47.4152H47.4124H47.4097H47.4069H47.4042H47.4014H47.3987H47.396H47.3932H47.3905H47.3877H47.385H47.3823H47.3795H47.3768H47.374H47.3713H47.3685H47.3658H47.3631H47.3603H47.3576H47.3548H47.3521H47.3494H47.3466H47.3439H47.3411H47.3384H47.3357H47.3329H47.3302H47.3274H47.3247H47.322H47.3192H47.3165H47.3137H47.311H47.3083H47.3055H47.3028H47.3H47.2973H47.2946H47.2918H47.2891H47.2863H47.2836H47.2809H47.2781H47.2754H47.2726H47.2699H47.2672H47.2644H47.2617H47.2589H47.2562H47.2535H47.2507H47.248H47.2453H47.2425H47.2398H47.237H47.2343H47.2316H47.2288H47.2261H47.2233H47.2206H47.2179H47.2151H47.2124H47.2097H47.2069H47.2042H47.2014H47.1987H47.196H47.1932H47.1905H47.1878H47.185H47.1823H47.1795H47.1768H47.1741H47.1713H47.1686H47.1659H47.1631H47.1604H47.1576H47.1549H47.1522H47.1494H47.1467H47.144H47.1412H47.1385H47.1358H47.133H47.1303H47.1275H47.1248H47.1221H47.1193H47.1166H47.1139H47.1111H47.1084H47.1057H47.1029H47.1002H47.0975H47.0947H47.092H47.0892H47.0865H47.0838H47.081H47.0783H47.0756H47.0728H47.0701H47.0674H47.0646H47.0619H47.0592H47.0564H47.0537H47.0509H47.0482H47.0455H47.0427H47.04H47.0373H47.0345H47.0318H47.0291H47.0263H47.0236H47.0209H47.0181H47.0154H47.0127H47.0099H47.0072H47.0045H47.0017H46.999H46.9963H46.9935H46.9908H46.9881H46.9853H46.9826H46.9799H46.9771H46.9744H46.9716H46.9689H46.9662H46.9634H46.9607H46.958H46.9552H46.9525H46.9498H46.947H46.9443H46.9416H46.9388H46.9361H46.9334H46.9306H46.9279H46.9252H46.9224H46.9197H46.917H46.9142H46.9115H46.9088H46.9061H46.9033H46.9006H46.8979H46.8951H46.8924H46.8897H46.8869H46.8842H46.8815H46.8787H46.876H46.8733H46.8705H46.8678H46.8651H46.8623H46.8596H46.8569H46.8541H46.8514H46.8487H46.8459H46.8432H46.8405H46.8377H46.835H46.8323H46.8295H46.8268H46.8241H46.8214H46.8186H46.8159H46.8132H46.8104H46.8077H46.805H46.8022H46.7995H46.7968H46.794H46.7913H46.7886H46.7858H46.7831H46.7804H46.7776H46.7749H46.7722H46.7695H46.7667H46.764H46.7613H46.7585H46.7558H46.7531H46.7503H46.7476H46.7449H46.7421H46.7394H46.7367H46.7339H46.7312H46.7285H46.7258H46.723H46.7203H46.7176H46.7148H46.7121H46.7094H46.7066H46.7039H46.7012H46.6985H46.6957H46.693H46.6903H46.6875H46.6848H46.6821H46.6793H46.6766H46.6739H46.6712H46.6684H46.6657H46.663H46.6602H46.6575H46.6548H46.652H46.6493H46.6466H46.6438H46.6411H46.6384H46.6357H46.6329H46.6302H46.6275H46.6247H46.622H46.6193H46.6166H46.6138H46.6111H46.6084H46.6056H46.6029H46.6002H46.5974H46.5947H46.592H46.5893H46.5865H46.5838H46.5811H46.5783H46.5756H46.5729H46.5701H46.5674H46.5647H46.562H46.5592H46.5565H46.5538H46.551H46.5483H46.5456H46.5429H46.5401H46.5374H46.5347H46.5319H46.5292H46.5265H46.5238H46.521H46.5183H46.5156H46.5128H46.5101H46.5074H46.5047H46.5019H46.4992H46.4965H46.4937H46.491H46.4883H46.4855H46.4828H46.4801H46.4774H46.4746H46.4719H46.4692H46.4664H46.4637H46.461H46.4583H46.4555H46.4528H46.4501H46.4473H46.4446H46.4419H46.4392H46.4364H46.4337H46.431H46.4282H46.4255H46.4228H46.4201H46.4173H46.4146H46.4119H46.4091H46.4064H46.4037H46.401H46.3982H46.3955H46.3928H46.39H46.3873H46.3846H46.3819H46.3791H46.3764H46.3737H46.3709H46.3682H46.3655H46.3628H46.36H46.3573H46.3546H46.3519H46.3491H46.3464H46.3437H46.3409H46.3382H46.3355H46.3328H46.33H46.3273H46.3246H46.3218H46.3191H46.3164H46.3137H46.3109H46.3082H46.3055H46.3027H46.3H46.2973H46.2946H46.2918H46.2891H46.2864H46.2836H46.2809H46.2782H46.2755H46.2727H46.27H46.2673H46.2645H46.2618H46.2591H46.2564H46.2536H46.2509H46.2482H46.2455H46.2427H46.24H46.2373H46.2345H46.2318H46.2291H46.2264H46.2236H46.2209H46.2182H46.2154H46.2127H46.21H46.2073H46.2045H46.2018H46.1991H46.1964H46.1167L46.0517 0.796087C46.0094 0.826121 45.9636 0.861099 45.9225 0.892463C45.9021 0.908069 45.8828 0.92278 45.8657 0.935543C45.8082 0.978481 45.7583 1.0129 45.7091 1.03925L45.7071 1.04033C43.332 2.34041 40.957 3.64074 38.582 4.94107C26.64 11.4794 14.6977 18.018 2.73966 24.5254C2.04584 24.9026 1.53994 25.3461 1.2117 25.9073C0.88363 26.4682 0.74672 27.1234 0.75006 27.9001C0.766299 31.6861 0.761138 35.4742 0.755976 39.263C0.747878 45.2066 0.739778 51.1517 0.814294 57.0929C0.859321 60.923 1.06516 64.8028 1.70072 68.5838C4.63362 86.0926 13.3937 100.095 27.6588 110.669C33.1894 114.769 39.4151 117.526 45.7069 120.094L45.7073 120.094C46.0682 120.241 46.4977 120.272 46.911 120.237C47.3271 120.203 47.7469 120.101 48.1005 119.965L48.1008 119.964C49.8401 119.29 51.5479 118.537 53.2496 117.786C53.747 117.566 54.2439 117.347 54.7409 117.13C79.2056 106.465 94.2049 83.5981 94.2178 56.9457C94.2187 54.2625 94.2166 51.5793 94.2145 48.8962C94.209 41.9654 94.2036 35.035 94.2499 28.1058V28.1056C94.2549 27.2254 94.103 26.5021 93.7367 25.8909C93.3703 25.2798 92.8049 24.8066 92.0294 24.3988C82.3912 19.3192 72.7762 14.1977 63.1603 9.07571C61.4846 8.18318 59.809 7.29062 58.1331 6.39827C55.6883 5.09587 53.2534 3.7779 50.8171 2.4592C49.7825 1.89922 48.7477 1.33911 47.7118 0.779999L47.5963 0.994056V0.75H47.5935H47.5931ZM89.2643 45.634H89.2472L89.174 45.707L89.1708 45.7102L89.0973 45.7835V45.8872C89.0973 47.5112 89.1208 49.1329 89.1442 50.7524C89.1953 54.2886 89.2462 57.8145 89.0527 61.3327C88.327 74.514 83.5167 86.1398 75.0217 96.2421C68.3678 104.154 60.0069 109.64 50.5074 113.664C49.1534 114.237 47.9608 114.533 46.7752 114.541C45.5905 114.55 44.3958 114.273 43.0378 113.678C32.1387 108.896 23.1067 101.924 16.3516 92.1231C9.26886 81.8445 5.79007 70.4189 5.74849 57.9544C5.73113 52.8198 5.73254 47.6869 5.73395 42.5534C5.73515 38.1896 5.73635 33.8254 5.72602 29.4596C5.72605 29.1052 5.7752 28.8645 5.88271 28.6743C5.98936 28.4856 6.17026 28.3169 6.49198 28.1407C19.7016 20.9447 32.8984 13.7231 46.0824 6.4758L46.0827 6.47563C46.4101 6.29503 46.6735 6.2202 46.9224 6.22184C47.1722 6.22348 47.4348 6.30234 47.7607 6.47705L47.7611 6.47725C61.3047 13.7085 74.858 20.9238 88.4275 28.1071C88.7888 28.2986 88.9931 28.4887 89.113 28.705C89.2344 28.9239 89.2866 29.2003 89.2836 29.5991V29.5992C89.2547 33.6704 89.2583 37.7438 89.2619 41.815C89.263 43.0883 89.2641 44.3613 89.2643 45.634Z" fill="#003F62" stroke="#003F62" stroke-width="0.5"/>
<path d="M49.0131 32.3039L49.2948 32.3399C49.4125 32.3549 49.5305 32.3698 49.6489 32.3848C50.0838 32.4397 50.5225 32.4951 50.9588 32.5584C54.9482 33.1297 58.434 34.78 61.3839 37.5137C64.9249 40.7922 66.9621 44.8603 67.5244 49.643C68.4486 57.4847 64.2591 65.3253 57.2317 68.9563L57.2316 68.9564C55.1589 70.0266 52.973 70.7317 50.6523 71.0145C50.5637 71.0258 50.4769 71.0403 50.3769 71.0575V71.3017C50.3769 72.6382 50.3754 73.9743 50.374 75.3101C50.3702 78.8706 50.3664 82.4292 50.3897 85.9899C50.3897 85.9899 50.3897 85.99 50.3897 85.99L50.1397 85.9916C50.1493 87.3571 49.0416 88.0847 48.1458 88.0719L49.0131 32.3039ZM49.0131 32.3039V32.3411M49.0131 32.3039V32.3411M49.0131 32.3411V32.5879H49.2631V32.3411H49.2591H49.255H49.251H49.2469H49.2428H49.2388H49.2347H49.2306H49.2266H49.2225H49.2184H49.2144H49.2103H49.2063H49.2022H49.1981H49.1941H49.19H49.1859H49.1819H49.1778H49.1737H49.1697H49.1656H49.1616H49.1575H49.1534H49.1494H49.1453H49.1412H49.1372H49.1331H49.129H49.125H49.1209H49.1168H49.1128H49.1087H49.1047H49.1006H49.0965H49.0925H49.0884H49.0843H49.0803H49.0762H49.0721H49.0681H49.064H49.06H49.0559H49.0518H49.0478H49.0437H49.0396H49.0356H49.0315H49.0274H49.0234H49.0193H49.0153H49.0131ZM49.0131 32.3411H49.0112M49.0131 32.3411H49.0112M49.0112 32.3411H49.0071M49.0112 32.3411H49.0071M49.0071 32.3411H49.0031M49.0071 32.3411H49.0031M49.0031 32.3411H48.999M49.0031 32.3411H48.999M48.999 32.3411H48.9949M48.999 32.3411H48.9949M48.9949 32.3411H48.9909M48.9949 32.3411H48.9909M48.9909 32.3411H48.9868M48.9909 32.3411H48.9868M48.9868 32.3411H48.9827M48.9868 32.3411H48.9827M48.9827 32.3411H48.9787M48.9827 32.3411H48.9787M48.9787 32.3411H48.9746M48.9787 32.3411H48.9746M48.9746 32.3411H48.9706M48.9746 32.3411H48.9706M48.9706 32.3411H48.9665M48.9706 32.3411H48.9665M48.9665 32.3411H48.9624M48.9665 32.3411H48.9624M48.9624 32.3411H48.9584M48.9624 32.3411H48.9584M48.9584 32.3411H48.9543M48.9584 32.3411H48.9543M48.9543 32.3411H48.9502M48.9543 32.3411H48.9502M48.9502 32.3411H48.9462M48.9502 32.3411H48.9462M48.9462 32.3411H48.9421M48.9462 32.3411H48.9421M48.9421 32.3411H48.938M48.9421 32.3411H48.938M48.938 32.3411H48.934M48.938 32.3411H48.934M48.934 32.3411H48.9299M48.934 32.3411H48.9299M48.9299 32.3411H48.9259M48.9299 32.3411H48.9259M48.9259 32.3411H48.9218M48.9259 32.3411H48.9218M48.9218 32.3411H48.9177M48.9218 32.3411H48.9177M48.9177 32.3411H48.9137M48.9177 32.3411H48.9137M48.9137 32.3411H48.9096M48.9137 32.3411H48.9096M48.9096 32.3411H48.9055M48.9096 32.3411H48.9055M48.9055 32.3411H48.9015M48.9055 32.3411H48.9015M48.9015 32.3411H48.8974M48.9015 32.3411H48.8974M48.8974 32.3411H48.8933M48.8974 32.3411H48.8933M48.8933 32.3411H48.8893M48.8933 32.3411H48.8893M48.8893 32.3411H48.8852M48.8893 32.3411H48.8852M48.8852 32.3411H48.8812M48.8852 32.3411H48.8812M48.8812 32.3411H48.8771M48.8812 32.3411H48.8771M48.8771 32.3411H48.873M48.8771 32.3411H48.873M48.873 32.3411H48.869M48.873 32.3411H48.869M48.869 32.3411H48.8649M48.869 32.3411H48.8649M48.8649 32.3411H48.8608M48.8649 32.3411H48.8608M48.8608 32.3411H48.8568M48.8608 32.3411H48.8568M48.8568 32.3411H48.8527M48.8568 32.3411H48.8527M48.8527 32.3411H48.8486M48.8527 32.3411H48.8486M48.8486 32.3411H48.8446M48.8486 32.3411H48.8446M48.8446 32.3411H48.8405M48.8446 32.3411H48.8405M48.8405 32.3411H48.8365M48.8405 32.3411H48.8365M48.8365 32.3411H48.8324M48.8365 32.3411H48.8324M48.8324 32.3411H48.8283M48.8324 32.3411H48.8283M48.8283 32.3411H48.8243M48.8283 32.3411H48.8243M48.8243 32.3411H48.8202M48.8243 32.3411H48.8202M48.8202 32.3411H48.8161M48.8202 32.3411H48.8161M48.8161 32.3411H48.8121M48.8161 32.3411H48.8121M48.8121 32.3411H48.808M48.8121 32.3411H48.808M48.808 32.3411H48.8039M48.808 32.3411H48.8039M48.8039 32.3411H48.7999M48.8039 32.3411H48.7999M48.7999 32.3411H48.7958M48.7999 32.3411H48.7958M48.7958 32.3411H48.7917M48.7958 32.3411H48.7917M48.7917 32.3411H48.7877M48.7917 32.3411H48.7877M48.7877 32.3411H48.7836M48.7877 32.3411H48.7836M48.7836 32.3411H48.7796M48.7836 32.3411H48.7796M48.7796 32.3411H48.7755M48.7796 32.3411H48.7755M48.7755 32.3411H48.7714M48.7755 32.3411H48.7714M48.7714 32.3411H48.7674M48.7714 32.3411H48.7674M48.7674 32.3411H48.7633M48.7674 32.3411H48.7633M48.7633 32.3411H48.7592M48.7633 32.3411H48.7592M48.7592 32.3411H48.7552M48.7592 32.3411H48.7552M48.7552 32.3411H48.7511M48.7552 32.3411H48.7511M48.7511 32.3411H48.747M48.7511 32.3411H48.747M48.747 32.3411H48.743M48.747 32.3411H48.743M48.743 32.3411H48.7389M48.743 32.3411H48.7389M48.7389 32.3411H48.7349M48.7389 32.3411H48.7349M48.7349 32.3411H48.7308M48.7349 32.3411H48.7308M48.7308 32.3411H48.7267M48.7308 32.3411H48.7267M48.7267 32.3411H48.7227M48.7267 32.3411H48.7227M48.7227 32.3411H48.7186M48.7227 32.3411H48.7186M48.7186 32.3411H48.7145M48.7186 32.3411H48.7145M48.7145 32.3411H48.7105M48.7145 32.3411H48.7105M48.7105 32.3411H48.7064M48.7105 32.3411H48.7064M48.7064 32.3411H48.7023M48.7064 32.3411H48.7023M48.7023 32.3411H48.6983M48.7023 32.3411H48.6983M48.6983 32.3411H48.6942M48.6983 32.3411H48.6942M48.6942 32.3411H48.6902M48.6942 32.3411H48.6902M48.6902 32.3411H48.6861M48.6902 32.3411H48.6861M48.6861 32.3411H48.682M48.6861 32.3411H48.682M48.682 32.3411H48.678M48.682 32.3411H48.678M48.678 32.3411H48.6739M48.678 32.3411H48.6739M48.6739 32.3411H48.6698M48.6739 32.3411H48.6698M48.6698 32.3411H48.6658M48.6698 32.3411H48.6658M48.6658 32.3411H48.6617M48.6658 32.3411H48.6617M48.6617 32.3411H48.6576M48.6617 32.3411H48.6576M48.6576 32.3411H48.6536M48.6576 32.3411H48.6536M48.6536 32.3411H48.6495M48.6536 32.3411H48.6495M48.6495 32.3411H48.6455M48.6495 32.3411H48.6455M48.6455 32.3411H48.6414M48.6455 32.3411H48.6414M48.6414 32.3411H48.6373M48.6414 32.3411H48.6373M48.6373 32.3411H48.6333M48.6373 32.3411H48.6333M48.6333 32.3411H48.6292M48.6333 32.3411H48.6292M48.6292 32.3411H48.6251M48.6292 32.3411H48.6251M48.6251 32.3411H48.6211M48.6251 32.3411H48.6211M48.6211 32.3411H48.617M48.6211 32.3411H48.617M48.617 32.3411H48.6129M48.617 32.3411H48.6129M48.6129 32.3411H48.6089M48.6129 32.3411H48.6089M48.6089 32.3411H48.6048M48.6089 32.3411H48.6048M48.6048 32.3411H48.6008M48.6048 32.3411H48.6008M48.6008 32.3411H48.5967M48.6008 32.3411H48.5967M48.5967 32.3411H48.5926M48.5967 32.3411H48.5926M48.5926 32.3411H48.5886M48.5926 32.3411H48.5886M48.5886 32.3411H48.5845M48.5886 32.3411H48.5845M48.5845 32.3411H48.5804M48.5845 32.3411H48.5804M48.5804 32.3411H48.5764M48.5804 32.3411H48.5764M48.5764 32.3411H48.5723M48.5764 32.3411H48.5723M48.5723 32.3411H48.5682M48.5723 32.3411H48.5682M48.5682 32.3411H48.5642M48.5682 32.3411H48.5642M48.5642 32.3411H48.5601M48.5642 32.3411H48.5601M48.5601 32.3411H48.5561M48.5601 32.3411H48.5561M48.5561 32.3411H48.552M48.5561 32.3411H48.552M48.552 32.3411H48.5479M48.552 32.3411H48.5479M48.5479 32.3411H48.5439M48.5479 32.3411H48.5439M48.5439 32.3411H48.5398M48.5439 32.3411H48.5398M48.5398 32.3411H48.5357M48.5398 32.3411H48.5357M48.5357 32.3411H48.5317M48.5357 32.3411H48.5317M48.5317 32.3411H48.5276M48.5317 32.3411H48.5276M48.5276 32.3411H48.5235M48.5276 32.3411H48.5235M48.5235 32.3411H48.5195M48.5235 32.3411H48.5195M48.5195 32.3411H48.5154M48.5195 32.3411H48.5154M48.5154 32.3411H48.5114M48.5154 32.3411H48.5114M48.5114 32.3411H48.5073M48.5114 32.3411H48.5073M48.5073 32.3411H48.5032M48.5073 32.3411H48.5032M48.5032 32.3411H48.4992M48.5032 32.3411H48.4992M48.4992 32.3411H48.4951M48.4992 32.3411H48.4951M48.4951 32.3411H48.491M48.4951 32.3411H48.491M48.491 32.3411H48.487M48.491 32.3411H48.487M48.487 32.3411H48.4829M48.487 32.3411H48.4829M48.4829 32.3411H48.4788M48.4829 32.3411H48.4788M48.4788 32.3411H48.4748M48.4788 32.3411H48.4748M48.4748 32.3411H48.4707M48.4748 32.3411H48.4707M48.4707 32.3411H48.4666M48.4707 32.3411H48.4666M48.4666 32.3411H48.4626M48.4666 32.3411H48.4626M48.4626 32.3411H48.4585M48.4626 32.3411H48.4585M48.4585 32.3411H48.4545M48.4585 32.3411H48.4545M48.4545 32.3411H48.4504M48.4545 32.3411H48.4504M48.4504 32.3411H48.4463M48.4504 32.3411H48.4463M48.4463 32.3411H48.4423M48.4463 32.3411H48.4423M48.4423 32.3411H48.4382M48.4423 32.3411H48.4382M48.4382 32.3411H48.4341M48.4382 32.3411H48.4341M48.4341 32.3411H48.4301M48.4341 32.3411H48.4301M48.4301 32.3411H48.426M48.4301 32.3411H48.426M48.426 32.3411H48.4219M48.426 32.3411H48.4219M48.4219 32.3411H48.4179M48.4219 32.3411H48.4179M48.4179 32.3411H48.4138M48.4179 32.3411H48.4138M48.4138 32.3411H48.4098M48.4138 32.3411H48.4098M48.4098 32.3411H48.4057M48.4098 32.3411H48.4057M48.4057 32.3411H48.4016M48.4057 32.3411H48.4016M48.4016 32.3411H48.3976M48.4016 32.3411H48.3976M48.3976 32.3411H48.3935M48.3976 32.3411H48.3935M48.3935 32.3411H48.3894M48.3935 32.3411H48.3894M48.3894 32.3411H48.3854M48.3894 32.3411H48.3854M48.3854 32.3411H48.3813M48.3854 32.3411H48.3813M48.3813 32.3411H48.3772M48.3813 32.3411H48.3772M48.3772 32.3411H48.3732M48.3772 32.3411H48.3732M48.3732 32.3411H48.3691M48.3732 32.3411H48.3691M48.3691 32.3411H48.3651M48.3691 32.3411H48.3651M48.3651 32.3411H48.361M48.3651 32.3411H48.361M48.361 32.3411H48.3569M48.361 32.3411H48.3569M48.3569 32.3411H48.3529M48.3569 32.3411H48.3529M48.3529 32.3411H48.3488M48.3529 32.3411H48.3488M48.3488 32.3411H48.3447M48.3488 32.3411H48.3447M48.3447 32.3411H48.3407M48.3447 32.3411H48.3407M48.3407 32.3411H48.3366M48.3407 32.3411H48.3366M48.3366 32.3411H48.3325M48.3366 32.3411H48.3325M48.3325 32.3411H48.3285M48.3325 32.3411H48.3285M48.3285 32.3411H48.3244M48.3285 32.3411H48.3244M48.3244 32.3411H48.3204M48.3244 32.3411H48.3204M48.3204 32.3411H48.3163M48.3204 32.3411H48.3163M48.3163 32.3411H48.3122M48.3163 32.3411H48.3122M48.3122 32.3411H48.3082M48.3122 32.3411H48.3082M48.3082 32.3411H48.3041M48.3082 32.3411H48.3041M48.3041 32.3411H48.3M48.3041 32.3411H48.3M48.3 32.3411H48.296M48.3 32.3411H48.296M48.296 32.3411H48.2919M48.296 32.3411H48.2919M48.2919 32.3411H48.2878M48.2919 32.3411H48.2878M48.2878 32.3411H48.2838M48.2878 32.3411H48.2838M48.2838 32.3411H48.2797M48.2838 32.3411H48.2797M48.2797 32.3411H48.2757M48.2797 32.3411H48.2757M48.2757 32.3411H48.2716M48.2757 32.3411H48.2716M48.2716 32.3411H48.2675M48.2716 32.3411H48.2675M48.2675 32.3411H48.2635M48.2675 32.3411H48.2635M48.2635 32.3411H48.2594M48.2635 32.3411H48.2594M48.2594 32.3411H48.2553M48.2594 32.3411H48.2553M48.2553 32.3411H48.2513M48.2553 32.3411H48.2513M48.2513 32.3411H48.2472M48.2513 32.3411H48.2472M48.2472 32.3411H48.2431M48.2472 32.3411H48.2431M48.2431 32.3411H48.2391M48.2431 32.3411H48.2391M48.2391 32.3411H48.235M48.2391 32.3411H48.235M48.235 32.3411H48.231M48.235 32.3411H48.231M48.231 32.3411H48.2269M48.231 32.3411H48.2269M48.2269 32.3411H48.2228M48.2269 32.3411H48.2228M48.2228 32.3411H48.2188M48.2228 32.3411H48.2188M48.2188 32.3411H48.2147M48.2188 32.3411H48.2147M48.2147 32.3411H48.2106M48.2147 32.3411H48.2106M48.2106 32.3411H48.2066M48.2106 32.3411H48.2066M48.2066 32.3411H48.2025M48.2066 32.3411H48.2025M48.2025 32.3411H48.1984M48.2025 32.3411H48.1984M48.1984 32.3411H48.1944M48.1984 32.3411H48.1944M48.1944 32.3411H48.1903M48.1944 32.3411H48.1903M48.1903 32.3411H48.1862M48.1903 32.3411H48.1862M48.1862 32.3411H48.1822M48.1862 32.3411H48.1822M48.1822 32.3411H48.1781M48.1822 32.3411H48.1781M48.1781 32.3411H48.1741M48.1781 32.3411H48.1741M48.1741 32.3411H48.17M48.1741 32.3411H48.17M48.17 32.3411H48.1659M48.17 32.3411H48.1659M48.1659 32.3411H48.1619M48.1659 32.3411H48.1619M48.1619 32.3411H48.1578M48.1619 32.3411H48.1578M48.1578 32.3411H48.1537M48.1578 32.3411H48.1537M48.1537 32.3411H48.1497M48.1537 32.3411H48.1497M48.1497 32.3411H48.1456M48.1497 32.3411H48.1456M48.1456 32.3411H48.1415M48.1456 32.3411H48.1415M48.1415 32.3411H48.1375M48.1415 32.3411H48.1375M48.1375 32.3411H48.1334M48.1375 32.3411H48.1334M48.1334 32.3411H48.1294M48.1334 32.3411H48.1294M48.1294 32.3411H48.1253M48.1294 32.3411H48.1253M48.1253 32.3411H48.1212M48.1253 32.3411H48.1212M48.1212 32.3411H48.1172M48.1212 32.3411H48.1172M48.1172 32.3411H48.1131M48.1172 32.3411H48.1131M48.1131 32.3411H48.109M48.1131 32.3411H48.109M48.109 32.3411H48.105M48.109 32.3411H48.105M48.105 32.3411H48.1009M48.105 32.3411H48.1009M48.1009 32.3411H48.0968M48.1009 32.3411H48.0968M48.0968 32.3411H48.0928M48.0968 32.3411H48.0928M48.0928 32.3411H48.0887M48.0928 32.3411H48.0887M48.0887 32.3411H48.0847M48.0887 32.3411H48.0847M48.0847 32.3411H48.0806M48.0847 32.3411H48.0806M48.0806 32.3411H48.0765M48.0806 32.3411H48.0765M48.0765 32.3411H48.0725M48.0765 32.3411H48.0725M48.0725 32.3411H48.0684M48.0725 32.3411H48.0684M48.0684 32.3411H48.0643M48.0684 32.3411H48.0643M48.0643 32.3411H48.0603M48.0643 32.3411H48.0603M48.0603 32.3411H48.0562M48.0603 32.3411H48.0562M48.0562 32.3411H48.0521M48.0562 32.3411H48.0521M48.0521 32.3411H48.0481M48.0521 32.3411H48.0481M48.0481 32.3411H48.044M48.0481 32.3411H48.044M48.044 32.3411H48.04M48.044 32.3411H48.04M48.04 32.3411H48.0359M48.04 32.3411H48.0359M48.0359 32.3411H48.0318M48.0359 32.3411H48.0318M48.0318 32.3411H48.0278M48.0318 32.3411H48.0278M48.0278 32.3411H48.0237M48.0278 32.3411H48.0237M48.0237 32.3411H48.0196M48.0237 32.3411H48.0196M48.0196 32.3411H48.0156M48.0196 32.3411H48.0156M48.0156 32.3411H48.0115M48.0156 32.3411H48.0115M48.0115 32.3411H48.0074M48.0115 32.3411H48.0074M48.0074 32.3411H48.0034M48.0074 32.3411H48.0034M48.0034 32.3411H47.9993M48.0034 32.3411H47.9993M47.9993 32.3411H47.9953M47.9993 32.3411H47.9953M47.9953 32.3411H47.9912M47.9953 32.3411H47.9912M47.9912 32.3411H47.9871M47.9912 32.3411H47.9871M47.9871 32.3411H47.9831M47.9871 32.3411H47.9831M47.9831 32.3411H47.979M47.9831 32.3411H47.979M47.979 32.3411H47.9749M47.979 32.3411H47.9749M47.9749 32.3411H47.9709M47.9749 32.3411H47.9709M47.9709 32.3411H47.9668M47.9709 32.3411H47.9668M47.9668 32.3411H47.9627M47.9668 32.3411H47.9627M47.9627 32.3411H47.9587M47.9627 32.3411H47.9587M47.9587 32.3411H47.9546M47.9587 32.3411H47.9546M47.9546 32.3411H47.9506M47.9546 32.3411H47.9506M47.9506 32.3411H47.9465M47.9506 32.3411H47.9465M47.9465 32.3411H47.9424M47.9465 32.3411H47.9424M47.9424 32.3411H47.9384M47.9424 32.3411H47.9384M47.9384 32.3411H47.9343M47.9384 32.3411H47.9343M47.9343 32.3411H47.9302M47.9343 32.3411H47.9302M47.9302 32.3411H47.9262M47.9302 32.3411H47.9262M47.9262 32.3411H47.9221M47.9262 32.3411H47.9221M47.9221 32.3411H47.918M47.9221 32.3411H47.918M47.918 32.3411H47.914M47.918 32.3411H47.914M47.914 32.3411H47.9099M47.914 32.3411H47.9099M47.9099 32.3411H47.9058M47.9099 32.3411H47.9058M47.9058 32.3411H47.9018M47.9058 32.3411H47.9018M47.9018 32.3411H47.8977M47.9018 32.3411H47.8977M47.8977 32.3411H47.8937H47.8977ZM47.1825 32.5911V32.3411H47.1667L47.151 32.3431C46.9583 32.3675 46.7651 32.3917 46.5716 32.4159C46.1836 32.4644 45.7945 32.513 45.4062 32.5644L45.406 32.5644C37.5273 33.6138 30.8961 39.7536 29.2237 47.5651C29.0931 48.1736 29.0135 48.8025 28.9355 49.4187C28.8974 49.7205 28.8596 50.0193 28.8163 50.3111C28.8127 50.3346 28.8057 50.3616 28.7945 50.3981C28.7916 50.4073 28.788 50.4188 28.7839 50.4316C28.7748 50.4601 28.7637 50.4949 28.7554 50.5246L28.7461 50.5577V50.5921V50.5966V50.6012V50.6057V50.6102V50.6147V50.6192V50.6237V50.6282V50.6327V50.6372V50.6417V50.6462V50.6507V50.6552V50.6598V50.6643V50.6688V50.6733V50.6778V50.6823V50.6868V50.6913V50.6958V50.7003V50.7048V50.7093V50.7138V50.7184V50.7229V50.7274V50.7319V50.7364V50.7409V50.7454V50.7499V50.7544V50.7589V50.7634V50.7679V50.7724V50.7769V50.7815V50.786V50.7905V50.795V50.7995V50.804V50.8085V50.813V50.8175V50.822V50.8265V50.831V50.8355V50.8401V50.8446V50.8491V50.8536V50.8581V50.8626V50.8671V50.8716V50.8761V50.8806V50.8851V50.8896V50.8941V50.8987V50.9032V50.9077V50.9122V50.9167V50.9212V50.9257V50.9302V50.9347V50.9392V50.9437V50.9482V50.9527V50.9572V50.9618V50.9663V50.9708V50.9753V50.9798V50.9843V50.9888V50.9933V50.9978V51.0023V51.0068V51.0113V51.0158V51.0204V51.0249V51.0294V51.0339V51.0384V51.0429V51.0474V51.0519V51.0564V51.0609V51.0654V51.0699V51.0744V51.0789V51.0835V51.088V51.0925V51.097V51.1015V51.106V51.1105V51.115V51.1195V51.124V51.1285V51.133V51.1375V51.1421V51.1466V51.1511V51.1556V51.1601V51.1646V51.1691V51.1736V51.1781V51.1826V51.1871V51.1916V51.1961V51.2007V51.2052V51.2097V51.2142V51.2187V51.2232V51.2277V51.2322V51.2367V51.2412V51.2457V51.2502V51.2547V51.2592V51.2638V51.2683V51.2728V51.2773V51.2818V51.2863V51.2908V51.2953V51.2998V51.3043V51.3088V51.3133V51.3178V51.3224V51.3269V51.3314V51.3359V51.3404V51.3449V51.3494V51.3539V51.3584V51.3629V51.3674V51.3719V51.3764V51.3809V51.3855V51.39V51.3945V51.399V51.4035V51.408V51.4125V51.417V51.4215V51.426V51.4305V51.435V51.4395V51.4441V51.4486V51.4531V51.4576V51.4621V51.4666V51.4711V51.4756V51.4801V51.4846V51.4891V51.4936V51.4981V51.5027V51.5072V51.5117V51.5162V51.5207V51.5252V51.5297V51.5342V51.5387V51.5432V51.5477V51.5522V51.5567V51.5612V51.5658V51.5703V51.5748V51.5793V51.5838V51.5883V51.5928V51.5973V51.6018V51.6063V51.6108V51.6153V51.6198V51.6244V51.6289V51.6334V51.6379V51.6424V51.6469V51.6514V51.6559V51.6604V51.6649V51.6694V51.6739V51.6784V51.683V51.6875V51.692V51.6965V51.701V51.7055V51.71V51.7145V51.719V51.7235V51.728V51.7325V51.737V51.7415V51.7461V51.7506V51.7551V51.7596V51.7641V51.7686V51.7731V51.7776V51.7821V51.7866V51.7911V51.7956V51.8001V51.8047V51.8092V51.8137V51.8182V51.8227V51.8272V51.8317V51.8362V51.8407V51.8452V51.8497V51.8542V51.8587V51.8632V51.8678V51.8723V51.8768V51.8813V51.8858V51.8903V51.8948V51.8993V51.9038V51.9083V51.9128V51.9173V51.9218V51.9264V51.9309V51.9354V51.9399V51.9444V51.9489V51.9534V51.9579V51.9624V51.9669V51.9714V51.9759V51.9804V51.985V51.9895V51.994V51.9985V52.003V52.0075V52.012V52.0165V52.021V52.0255V52.03V52.0345V52.039V52.0435V52.0481V52.0526V52.0571V52.0616V52.0661V52.0706V52.0751V52.0796V52.0841V52.0886V52.0931V52.0976V52.1021V52.1067V52.1112V52.1157V52.1202V52.1247V52.1292V52.1337V52.1382V52.1427V52.1472V52.1517V52.1562V52.1607V52.1652V52.1698V52.1743V52.1788V52.1833V52.1878V52.1923V52.1968V52.2013V52.2058V52.2103V52.2148V52.2193V52.2238V52.2284V52.2329V52.2374V52.2419V52.2464V52.2509V52.2554V52.2599V52.2644V52.2689V52.2734V52.2779V52.2824V52.287V52.2915V52.296V52.3005V52.305V52.3095V52.314V52.3185V52.323V52.3275V52.332V52.3365V52.341V52.3455V52.3501V52.3546V52.3591V52.3636V52.3681V52.3726V52.3771V52.3816V52.3861V52.3906V52.3951V52.3996V52.4041V52.4087V52.4132V52.4177V52.4222V52.4267V52.4312V52.4357V52.4402V52.4447V52.4492V52.4537V52.4582V52.4627V52.4672V52.4718V52.4763V52.4808V52.4853V52.4898V52.4943V52.4988V52.5033V52.5078V52.5123V52.5168V52.5213V52.5258V52.5304V52.5349V52.5394V52.5439V52.5484V52.5529V52.5574V52.5619V52.5664V52.5709V52.5754V52.5799V52.5844V52.589V52.5935V52.598V52.6025V52.607V52.6115V52.616V52.6205V52.625V52.6295V52.634V52.6385V52.643V52.6475V52.6521V52.6566V52.6611V52.6656V52.6701V52.6746V52.6791V52.6836V52.6881V52.6926V52.6971V52.7016V52.7061V52.7107V52.7152V52.7197V52.7242V52.7287V52.7332V52.7377V52.7422V52.7467V52.7512V52.7557V52.7602V52.7647V52.7693V52.7738V52.7783V52.7828V52.7873V52.7918V52.7963V52.8008V52.8053V52.8098V52.8143V52.8188V52.8233V52.8278V52.8324V52.8369V52.8414V52.8459V52.8504V52.8549V52.8594V52.8639V52.8684V52.8729V52.8774V52.8819V52.8864V52.891V52.8955V52.9V52.9331L28.7547 52.9651C28.7627 52.9946 28.7751 53.0339 28.7844 53.0636C28.7887 53.0771 28.7924 53.0887 28.7947 53.0965C28.8054 53.1325 28.8098 53.1537 28.811 53.1685C28.9997 55.8845 29.7154 58.458 31.0211 60.8503L31.2405 60.7306L47.1825 32.5911Z" fill="#003F62" stroke="#003F62" stroke-width="0.5"/>
</svg>
