<svg width="96" height="126" viewBox="0 0 96 126" fill="none" xmlns="http://www.w3.org/2000/svg">
<path d="M0.00317085 62.8566C0.00317085 46.7592 -0.00653987 30.6618 0.00802621 14.5692C0.0177369 7.9198 3.53787 2.78561 9.55852 0.797557C11.0783 0.295719 12.7436 0.0448 14.3459 0.0399747C36.4427 -0.00827902 58.5394 -0.00827902 80.6362 0.0158478C88.9048 0.0254986 94.9789 6.04756 94.9837 14.2796C95.008 46.7785 95.008 79.2773 94.9837 111.776C94.9789 119.999 88.8854 125.982 80.5973 125.992C58.588 126.006 36.5786 126.001 14.5693 125.992C5.98012 125.992 0.0225923 120.032 0.0128816 111.409C-0.00653987 95.2252 0.00802621 79.0409 0.00802621 62.8566H0.00317085ZM5.61597 62.8518C5.61597 79.0795 5.60626 95.3024 5.62082 111.53C5.62568 117.002 9.13611 120.452 14.6275 120.462C20.3957 120.471 26.159 120.462 31.9272 120.462C48.1247 120.462 64.3221 120.467 80.5196 120.462C84.7438 120.462 88.0212 118.146 89.0359 114.363C89.3273 113.282 89.3952 112.119 89.4001 110.99C89.4195 80.7684 89.4146 50.5471 89.4146 20.3258C89.4146 18.2268 89.4535 16.1278 89.4049 14.0287C89.2884 9.13579 85.7489 5.56502 80.8352 5.5602C58.6074 5.52642 36.3795 5.53124 14.1517 5.5602C10.0489 5.56502 6.75698 8.15142 5.86845 11.9683C5.6451 12.9334 5.62568 13.966 5.62568 14.9648C5.61111 30.9272 5.61597 46.8943 5.61597 62.8566V62.8518Z" fill="#003F62"/>
<path d="M47.4639 97.7874C41.3024 97.7874 35.1458 97.7874 28.9844 97.7874C26.2314 97.7874 25.2263 96.7451 25.3283 94.0381C25.7361 83.2196 33.1308 74.476 43.5359 72.5266C55.8491 70.22 67.8904 78.9829 69.4004 91.3745C69.5363 92.4988 69.6431 93.6376 69.6529 94.7667C69.6674 96.6196 68.6235 97.6957 66.7396 97.7729C65.2005 97.8308 63.6613 97.7922 62.1222 97.7922C57.2377 97.7922 52.3532 97.7922 47.4687 97.7922L47.4639 97.7874ZM63.7487 92.132C63.5739 84.7975 56.0918 77.9985 47.9785 77.738C39.5836 77.4678 31.9461 83.9868 31.2178 92.132H63.7487Z" fill="#003F62"/>
<path d="M33.0732 52.5205C33.083 44.5925 39.5891 38.1796 47.5665 38.2278C55.5244 38.2809 61.9238 44.6359 61.9529 52.5109C61.9772 60.3907 55.4467 66.9001 47.5131 66.905C39.5697 66.905 33.0635 60.4293 33.0781 52.5205H33.0732ZM38.6763 52.6122C38.6958 57.4472 42.6189 61.3654 47.4645 61.3847C52.3345 61.404 56.3887 57.3749 56.3596 52.5447C56.3256 47.6566 52.349 43.777 47.4014 43.8059C42.5412 43.8349 38.6569 47.7579 38.6763 52.6074V52.6122Z" fill="#003F62"/>
<path d="M47.0461 13.1021C50.61 13.1021 54.1689 13.0925 57.7328 13.1021C59.772 13.107 60.9907 14.183 60.9616 15.9105C60.9325 17.5704 59.7186 18.6224 57.7619 18.6272C50.5954 18.6368 43.424 18.6368 36.2575 18.6272C34.3299 18.6272 33.0967 17.527 33.087 15.8719C33.0773 14.2168 34.3105 13.1118 36.2332 13.1021C39.8408 13.0877 43.4435 13.1021 47.051 13.1021H47.0461Z" fill="#003F62"/>
</svg>
